<?xml version="1.0" encoding="iso-8859-1"?>
<!-- Generator: Adobe Illustrator 21.0.2, SVG Export Plug-In . SVG Version: 6.00 Build 0)  -->
<!DOCTYPE svg PUBLIC "-//W3C//DTD SVG 1.1//EN" "http://www.w3.org/Graphics/SVG/1.1/DTD/svg11.dtd">
<svg version="1.1" id="Layer_1" xmlns="http://www.w3.org/2000/svg" xmlns:xlink="http://www.w3.org/1999/xlink" x="0px" y="0px"
	 viewBox="0 0 101.967 80.938" style="enable-background:new 0 0 101.967 80.938;" xml:space="preserve">
<g id="Food_4">
	<g>
		<path style="fill:#FFFFFF;" d="M31.659,27.698c-1,0.5-7.903,3.667-8.903,3.667s-4.333-3-10.167,2.833
			c-5.833,5.833-5.333,12.5-2.333,15.833s16.667,9,36.667,9.167s38.833-2.5,39.833-3.167s14.167-5.167,3.333-13.833
			c1.333-2.167,3.167-8.833-2.333-12.667c-1.833-1.667-3.167,0.167-3.667,0.333c-0.5,0.167-16.833-3.667-27-1.667
			c-0.333,0.333-6.5,2-6.5,2s-1.5-6.833-9.833-8.5c-5.667-0.167-8.667,1.833-8.667,2.333S31.659,27.698,31.659,27.698z"/>
		<path d="M23.729,56.658c-0.716-0.868-2.121-0.624-3.134-0.87c-3.809-0.924-7.429-2.256-10.377-4.878
			c-1.421-1.264-2.377-2.931-2.589-4.995c-0.147-1.431-0.256-2.778-0.008-4.233c0.329-1.935,1.169-3.561,2.199-5.149
			c0.105-0.162,0.316-0.318,0.314-0.473c-0.007-0.383,0.736-0.497,0.392-0.859c-0.304-0.32-0.721-0.06-1.054,0.202
			c-0.565,0.445-0.901-0.118-1.165-0.406c-0.274-0.3-0.166-0.656,0.242-0.989c0.834-0.679,1.592-1.456,2.343-2.23
			c0.672-0.692,0.925-1.426,0.147-2.266c-0.366-0.395-0.593-0.915-0.896-1.37c-0.198-0.297-0.417-0.53,0.001-0.872
			c0.386-0.316,0.642-0.29,1.034-0.013c1.299,0.916,1.755,2.361,2.335,3.706c0.399,0.925,0.72,1.069,1.479,0.324
			c1.321-1.296,2.95-2.328,4.631-2.701c1.532-0.34,3.379-0.561,4.946,0.305c0.99,0.547,1.818,0.609,2.839,0.037
			c0.941-0.527,1.925-0.995,2.831-1.581c0.601-0.389,1.097-0.909,0.957-1.762c-0.281-1.707,0.741-2.704,2.085-3.322
			c1.321-0.608,2.697-1.166,4.228-1.082c0.591,0.032,1.169-0.082,1.751-0.308c1.392-0.54,2.77-0.038,3.989,0.503
			c1.545,0.686,3.097,1.441,4.437,2.524c1.845,1.493,2.977,3.44,3.721,5.671c0.687,2.06,0.561,4.102,0.114,6.167
			c-0.07,0.324,0.2,0.513,0.344,0.733c0.661,1.009,0.454,1.967,0.24,3.112c-0.32,1.706-1.597,2.399-2.639,3.392
			c-0.106,0.101-0.248,0.242-0.369,0.238c-0.511-0.013-1.205,0.407-1.474-0.278c-0.269-0.684,0.317-0.934,0.884-1.135
			c0.594-0.21,1.025-0.638,1.364-1.271c-0.62-0.221-1.204-0.209-1.672,0.047c-0.545,0.298-1.13,0.373-1.617,0.204
			c-1.869-0.648-2.783,0.639-3.655,1.802c-1.014,1.351-2.256,2.443-3.509,3.531c-1.999,1.736-4.201,3.236-5.922,5.292
			c-0.365,0.436-0.352,1-0.728,1.418c-0.221,0.246-0.375,0.561-0.737,0.48c-4.343-0.97-8.711-1.985-12.274-4.824
			c-2.543-2.026-4.128-4.722-4.408-8.09c-0.191-2.296-0.199-4.523,0.947-6.625c0.114-0.21,0.506-0.641,0.098-0.927
			c-0.348-0.244-0.595,0.179-0.804,0.354c-2.685,2.253-5.376,4.63-6.185,8.167c-0.659,2.881-0.843,5.893,1.593,8.353
			c2.308,2.331,4.959,3.91,8.157,4.733c1.183,0.304,2.409,0.311,3.58,0.755 M45.092,38.938c0.879,0,1.76-0.032,2.637,0.011
			c0.612,0.03,1.03-0.276,1.22-0.753c1.153-2.893,1.494-5.838,0.601-8.893c-1.131-3.87-4.288-5.149-7.669-6.236
			c-1.134-0.365-2.169-0.131-3.286-0.023c-1.234,0.119-2.427,0.406-3.628,0.62c-1.666,0.297-2.284,1.264-2.287,3.011
			c-0.001,0.36,0.01,0.719,0.015,1.079c0.005,0.363-0.142,0.584-0.521,0.679c-2.96,0.743-5.423,2.609-8.232,3.654
			c-1.118,0.416-2.246,1.849-3.708,0.617c-0.141-0.119-0.371-0.043-0.536,0.121c-0.914,0.905-1.936,1.862-2.265,3.049
			c-0.632,2.277-1.029,4.653-0.061,6.986c0.923,2.222,2.294,4.072,4.31,5.452c1.67,1.144,3.516,1.889,5.393,2.561
			c1.162,0.416,2.429,0.489,3.578,1.003c0.262,0.117,0.829,0.086,0.86-0.199c0.139-1.312,1.328-1.668,2.067-2.418
			c2.229-2.266,4.632-4.353,6.763-6.724c0.544-0.606,0.759-0.938,0.023-1.426c-0.357-0.237-0.589-0.517-0.464-0.975
			c0.134-0.49,0.522-0.576,0.952-0.751C42.241,38.817,43.671,38.987,45.092,38.938z"/>
		<path d="M78.676,58.423c-0.186-0.349-0.537-0.34-0.738-0.241c-1.211,0.599-2.515,0.306-3.769,0.465
			c-3.692,0.47-7.425,0.215-11.105,0.566c-6.214,0.592-12.422,0.338-18.635,0.402c-0.731,0.008-1.273-0.344-1.867-0.59
			c-0.249-0.103-0.737-0.387-0.614-0.727c0.129-0.356,0.44-0.644,0.985-0.676c1.221-0.072,2.329,0.494,3.519,0.501
			c3.959,0.023,7.919,0.005,11.878,0.051c4.877,0.057,9.729-0.47,14.599-0.622c2.956-0.093,5.891-0.858,8.832-1.349
			c0.425-0.071,0.683-0.462,0.964-0.782c0.859-0.978,1.51-0.871,2.328,0.106c0.486,0.58,1.263,0.308,1.827-0.035
			c1.855-1.128,3.62-2.374,5.057-4.04c0.514-0.596,0.896-1.171,0.782-2.005c-0.05-0.366,1.063-0.964,1.333-0.555
			c0.086,0.13,0.19,0.248,0.373,0.485l0.005,1.593c-1.254,2.539-3.442,3.813-5.51,5.155L78.676,58.423z"/>
		<path d="M59.158,54.288c3.279,0,6.586,0.264,9.83-0.073c3.374-0.35,6.736-0.284,10.102-0.413c0.613-0.024,0.901-0.417,1.131-0.883
			c0.428-0.866,0.9-1.305,1.945-0.705c1.029,0.591,1.755-0.182,2.22-0.966c0.599-1.011,1.091-2.101,1.488-3.208
			c0.15-0.419,0.325-0.955-0.237-1.484c-0.729-0.687-0.272-1.926,0.688-2.34c1.164-0.501,1.888-1.493,2.674-2.427
			c1.328-1.575,2.277-3.341,1.711-5.406c-0.722-2.634-1.652-5.197-4.558-6.383c-0.655-0.267-0.76,0.342-1.232,0.302
			c-1.071-0.09-2.206,0.183-3.225-0.063c-2.646-0.639-5.39-0.618-8.017-1.325c-0.076-0.02-0.16-0.02-0.239-0.015
			c-2.305,0.159-4.541-0.553-6.857-0.464c-2.91,0.111-5.77,0.559-8.643,0.943c-0.591,0.079-0.94,0.287-0.445,1.032
			c1.631,2.454,2.928,5.094,3.901,7.875c0.822,2.351-0.171,5.274-2.258,6.736c-1.672,1.171-2.793,2.878-4.247,4.265
			c-1.559,1.487-3.384,2.586-5.043,3.917c-0.44,0.353-1.288,0.383-1.9-0.101c-0.475-0.375-0.931-0.296-1.433-0.013
			c-0.884,0.498-1.818,0.923-2.701,1.396c-0.928,0.497-1.508,0.016-2.204-0.231c-0.399-0.142-0.371-0.548-0.292-0.918
			c0.09-0.423,0.481-0.558,0.724-0.41c1.891,1.149,2.903-0.456,4.082-1.322c3.305-2.431,5.203-5.797,6.282-9.702
			c0.437-1.58,1.015-3.125,0.889-4.795c-0.074-0.982-0.49-1.911-0.452-2.926c0.022-0.588,0.043-1.289,0.675-1.285
			c0.468,0.003,1.03,0.45,1.249,1.067c1.046,2.956,0.224,5.737-0.791,8.493c-0.407,1.104-0.927,2.166-1.332,3.271
			c-0.255,0.695,0.407,0.608,0.644,0.473c1.017-0.58,2.164-0.875,3.037-1.805c0.627-0.668,0.992-2.054,2.575-1.434
			c0.445,0.174,1.082-0.744,1.197-1.528c0.227-1.548-0.009-3.069-0.733-4.39c-1.291-2.358-2.607-4.726-4.847-6.407
			c-0.418-0.314-0.746-0.884-1.078-1.354c-0.44-0.624-0.024-1.326,0.745-1.358c0.404-0.017,0.724-0.107,1.094-0.328
			c0.772-0.46,1.649-0.595,2.579-0.68c3.698-0.336,7.39-0.104,11.066,0.115c2.85,0.17,5.698,0.62,8.528,1.032
			c2.059,0.3,4.088,0.807,6.186,0.831c0.561,0.006,1.062,0.001,1.439-0.606c0.357-0.575,2.224-0.553,2.977-0.106
			c1.487,0.883,2.369,2.272,2.948,3.808c0.721,1.914,1.445,3.833,1.262,5.984c-0.184,2.15-1.233,3.792-2.527,5.401
			c-0.524,0.651-1.417,1.1-0.998,2.429c0.314,0.996-0.469,2.204-0.973,3.244c-0.924,1.91-2.394,3.416-3.752,5.004
			c-0.321,0.375-0.748,0.32-1.103,0.227c-1.8-0.468-3.386,0.557-5.097,0.726c-0.731,0.072-1.485,0.225-2.229,0.238
			c-3.278,0.058-6.573-0.111-9.833,0.156c-3.829,0.313-7.666,0.165-11.482,0.469c-1.824,0.146-3.64,0.363-5.474,0.395
			c-0.733,0.013-1.44,0.006-1.323-0.965c0.086-0.712,0.674-0.972,1.374-0.979c1.279-0.012,2.558-0.059,3.837-0.066
			c2.159-0.012,4.318-0.003,6.477-0.003C59.158,54.263,59.158,54.276,59.158,54.288z M49.53,50.783
			c0.541,0.132,1.115,0.355,1.366-0.348c0.068-0.192-0.025-0.641-0.087-0.649C50.111,49.694,49.945,50.389,49.53,50.783z"/>
	</g>
</g>
</svg>
