<?xml version="1.0" encoding="iso-8859-1"?>
<!-- Generator: Adobe Illustrator 21.0.2, SVG Export Plug-In . SVG Version: 6.00 Build 0)  -->
<!DOCTYPE svg PUBLIC "-//W3C//DTD SVG 1.1//EN" "http://www.w3.org/Graphics/SVG/1.1/DTD/svg11.dtd">
<svg version="1.1" id="Layer_1" xmlns="http://www.w3.org/2000/svg" xmlns:xlink="http://www.w3.org/1999/xlink" x="0px" y="0px"
	 viewBox="0 0 101.967 80.938" style="enable-background:new 0 0 101.967 80.938;" xml:space="preserve">
<g id="Food_3">
	<g>
		<path style="fill:#FFFFFF;" d="M21.515,29.274c0,0-5.5,1-5.375,2.5s0.625,3.375,1.875,5.25s3.5,4.75,4.5,5.375s3.125,1.875,4,2.75
			s3.25,1.125,3.25,1.125l0.375,9.125c0,0-3.875-0.25-4.25,0.75s-1.5,3,2.875,3.625s8-0.75,8.5-1.125s4.625-0.25,5.25-1.5
			c1.25,1,4.25,2,5.75,1.5s6.375-1.5,7.25-2.5s0.875-2.25,0.875-2.25s0.925-1.764,1.9-1.132s4.1,0.632,6.6,0.257
			c2.5-0.375,5.375-0.375,5.5-0.75s0.856-2.006,0.856-2.006l-0.606-1.744c0,0,4.125-0.625,5.75-2.25s4.25-3.375,3.125-7.25
			s-3-5.25-4-5.875s-3.125-3.75-2.375-5.375s-7.375-1.375-7.375-1.375s-8-0.375-10.625,2.625s0.125,5.75,0.125,5.75
			s-0.875,1.125-2.375,1.125s-10.75,1-10.75,1l-3.5,1c0,0-1.25-1.25,0.125-3s3.375-5,3.375-5l-12.625-1L21.515,29.274z"/>
		<path d="M80.35,42.863c-0.842,2.019-2.126,3.665-4.037,4.727c-0.815,0.453-1.743,0.639-2.651,0.878
			c-0.994,0.261-2.169,0.396-2.416,1.8c-0.081,0.461-0.049,0.784,0.124,1.218c0.406,1.018-0.119,1.531-1.165,1.787
			c-2.528,0.619-5.067,1.063-7.673,1.044c-1.453-0.01-2.906-0.074-4.359-0.092c-0.722-0.009-1.223-0.048-0.745,1.056
			c0.426,0.984-0.784,1.551-1.427,1.669c-1.479,0.272-2.603,1.249-4.023,1.629c-2.535,0.679-5.247,1.692-7.554,0.295
			c-2.099-1.27-3.581,0.111-5.307,0.271c-2.049,0.189-4.106,0.659-6.071,1.285c-2.007,0.639-3.904,0.174-5.849-0.054
			c-1.125-0.132-2.901-1.567-3.156-2.628c-0.201-0.837-0.003-1.648,0.761-2.082c1.041-0.591,2.17-1.019,3.411-0.983
			c0.485,0.014,0.878,0.37,0.953,0.71c0.079,0.36-0.351,0.701-0.774,0.699c-0.555-0.002-0.881,0.557-1.441,0.501
			c-0.41-0.041-0.58,0.215-0.583,0.582c-0.002,0.311-0.031,0.645,0.339,0.818c2.146,1.007,4.373,1.291,6.701,0.805
			c1.562-0.326,3.007-0.93,4.422-1.658c0.429-0.221,1-0.156,1.497,0.115c0.751,0.41,2.546-0.368,2.782-1.182
			c0.105-0.36-0.149-0.421-0.398-0.394c-1.135,0.119-2.095-0.695-3.244-0.571c-0.51,0.055-0.878-0.345-1.009-0.826
			c-0.168-0.62,0.46-0.776,0.781-0.861c1.041-0.277,2.104-0.301,3.159,0.089c0.499,0.185,1.137,0.534,1.572,0.066
			c0.455-0.49,0.143-1.097-0.119-1.658c-0.565-1.212-0.87-2.511-1.191-3.806c-0.178-0.717-0.613-1.341-0.89-2.031
			c-0.579-1.441-0.468-2.883-0.446-4.343c0.009-0.618-0.013-1.087-0.844-1.08c-0.623,0.005-1.043-0.52-1.437-0.921
			c-0.601-0.611-1.034-0.619-1.666-0.009c-1.569,1.514-2.189,3.57-3.267,5.362c-1.655,2.751-0.829,5.579-0.655,8.4
			c0.067,1.092,0.095,2.197,0.6,3.234c0.203,0.418,0.015,0.883-0.599,0.903c-0.509,0.016-0.775-0.167-0.829-0.753
			c-0.211-2.32-0.877-4.56-1.269-6.85c-0.027-0.157-0.058-0.315-0.07-0.474c-0.061-0.792,0.137-1.751-0.243-2.333
			c-0.401-0.614-1.441,0.002-2.146-0.247c-0.93-0.329-1.645-1.03-2.383-1.652c-0.615-0.518-1.238-0.687-2.041-0.709l-5.688-6.801
			c0,0-1.409-1.953-1.903-2.681c-0.494-0.728-0.653-3.003-0.636-3.303s-0.618-1.511,1.137-2.093s2.511-0.734,2.511-0.734
			s2.369-1.172,3.244-1.01c0.18,0.396,0.495,0.301,0.747,0.301c3.559-0.005,7.117-0.012,10.676-0.042l2.88,0.014
			c1.765-0.199,3.46,0.365,5.198,0.448l2.563,0.151c-0.446,2.041-2.267,3.14-3.27,4.799c-0.445,0.736-1.002,1.403-1.496,2.109
			c-0.196,0.28-0.262,0.602-0.044,0.895c0.257,0.345,0.484-0.002,0.727-0.066c2.257-0.591,4.555-1.104,6.878-1.074
			c2.214,0.029,4.326-0.634,6.52-0.634c0.739,0,0.797-0.342,0.433-1.017c-0.778-1.446-1.224-3.076-0.098-4.472
			c0.993-1.23,2.44-1.974,3.926-2.608c3.593-1.533,7.354-0.792,11.046-0.888c1.766-0.046,2.614,1.548,2.069,3.217
			c-0.658,2.016-1.937,3.051-3.96,3.67c-2.274,0.696-4.467,1.57-6.874,1.829c-0.789,0.085-1.601,0.328-2.428,0.39
			c-0.651,0.049-1.099,1.125-0.766,1.869c1.282,2.866,0.735,5.785,0.375,8.73c-0.256,2.099-0.231,4.232-0.072,6.345
			c0.038,0.502,0.501,0.797,1.12,0.814c2.814,0.076,5.573-0.197,8.322-0.858c0.907-0.218,1.815-0.549,2.766-0.605
			c0.381-0.023,0.798-0.07,0.654-0.586c-0.128-0.459-0.464-0.707-0.976-0.429c-0.172,0.093-0.361,0.158-0.521,0.268
			c-0.439,0.301-0.934,0.429-1.253-0.048c-0.297-0.445-0.926-0.931-0.398-1.559c0.355-0.422,0.777-0.635,1.44-0.278
			c0.92,0.496,1.311,0.162,1.31-0.885c-0.006-4.238,0.023-8.477-0.036-12.714c-0.013-0.903,0.339-1.615,0.724-2.337
			c0.161-0.301,0.395-0.767,0.897-0.587c0.413,0.148,0.776,0.444,0.739,0.933c-0.061,0.818,0.39,1.158,1.064,1.464
			c1.444,0.656,2.058,2.057,2.679,3.365c0.66,1.391,0.931,2.912,1.04,4.462c0.057,0.809-0.252,1.485-0.59,2.141
			c-0.208,0.402-0.036,0.61,0.169,0.831c0.334,0.361,0.468-0.09,0.651-0.221c1.843-1.319,1.986-3.233,1.596-5.374
			c-0.164-0.898-0.337-1.839-0.697-2.743c-0.591-1.485-1.281-2.619-2.981-3.018c-1.093-0.257-1.492-1.391-1.892-2.321
			c-0.179-0.417-0.351-0.855-0.525-1.286c-1.012-2.5,0.686-5.984,4.04-5.572c1.258,0.155,2.074,0.558,2.758,1.607
			c0.869,1.333,1.505,2.693,1.329,4.311c-0.066,0.605,0.245,0.978,0.637,1.304c1.241,1.029,2.497,2.04,3.761,3.041
			c0.442,0.35,0.623,0.82,0.339,1.255c-0.27,0.413-0.735,0.372-1.211,0.123c-1.284-0.672-2.355-1.636-3.507-2.486
			c-0.41-0.303-0.825-0.694-1.249-0.325c-0.413,0.359-0.069,0.83,0.12,1.289c0.61,1.483,1.215,2.981,1.127,4.643
			c-0.018,0.379-0.07,0.782,0.219,1.254L80.35,42.863z M47.236,57.486c1.518,0.027,3.001-0.333,4.498-0.504
			c0.914-0.105,1.922-0.327,2.814-0.787c0.452-0.233,0.721-0.514,0.707-0.991c-0.051-1.824,0.446-3.595,0.401-5.436
			c-0.077-3.136-0.488-6.27-0.122-9.42c0.069-0.597-0.166-1.37-0.54-1.838c-0.354-0.444-0.905,0.119-1.38,0.265
			c-1.777,0.545-3.555,1.192-5.382,1.443c-1.778,0.244-3.539,0.834-5.379,0.577c-0.194-0.027-0.675,0.031-0.504,0.251
			c0.458,0.586,0.003,1.03-0.006,1.532c-0.018,1.101,0.216,2.213,0.416,3.307c0.188,1.029,0.452,2.045,0.706,3.061
			c0.62,2.474,1.606,4.873,1.594,7.477c-0.004,0.722,0.311,1.031,0.98,1.059C46.438,57.499,46.837,57.486,47.236,57.486z
			 M30.113,29.808c-2.982-0.18-4.998,0.564-7.081,0.386c-0.356-0.03-0.719,0.015-1.078,0.03c-0.397,0.016-0.786,0.181-0.775,0.586
			c0.012,0.448,0.485,0.274,0.769,0.328c0.682,0.13,1.471-0.239,2.043,0.382c0.509,0.553,1.138,0.56,1.824,0.619
			c2.593,0.221,5.116-0.488,7.686-0.491c0.342,0,0.897-0.288,1.006,0.282c0.121,0.63-0.463,0.548-0.865,0.696
			c-1.579,0.583-3.254,0.259-4.841,0.561c-2.426,0.462-4.807,0.337-7.222,0.022c-1.182-0.154-2.391-0.115-3.588-0.137
			c-0.359-0.007-0.858,0.059-0.589,0.587c0.775,1.523,1.417,3.147,2.731,4.321c0.732,0.654,1.82,0.448,2.005-0.406
			c0.252-1.16,0.966-1.529,2.03-1.557c0.998-0.026,2.064,0.126,2.979-0.172c2.433-0.793,5.035-0.794,7.432-1.716
			c0.477-0.183,0.878,0.124,0.943,0.643c0.063,0.502-0.262,0.701-0.739,0.706c-0.278,0.003-0.591-0.037-0.827,0.073
			c-3.237,1.504-6.868,1.745-10.125,3.256c-1.896,0.88-2.109,0.744-0.797,2.314c0.812,0.972,1.5,2.428,3.244,2.024
			c0.589-0.137,0.757,0.378,0.713,0.69c-0.181,1.301,0.667,1.262,1.521,1.306c0.839,0.043,1.56-0.339,2.334-0.541
			c0.893-0.233,1.438-0.655,1.792-1.495c1.026-2.431,2.543-4.561,4.103-6.676c1.268-1.719,2.617-3.382,3.717-5.23
			c0.471-0.791,0.297-0.977-0.501-0.987C36.371,30.165,32.773,30.345,30.113,29.808z M56.411,33.096
			c1.208-0.095,2.349-0.563,3.599-0.517c2.346,0.088,4.561-0.674,6.803-1.247c0.703-0.18,1.357-0.401,1.912-0.858
			c0.592-0.487,0.634-2.085,0.057-2.143c-0.652-0.066-1.189-0.451-1.812-0.493c-3.864-0.256-7.661-0.031-11.113,1.963
			c-0.853,0.493-1.293,1.424-1.15,2.433C54.845,33.216,55.69,33.09,56.411,33.096z M71.045,42.858c0,1.119-0.032,1.997,0.009,2.871
			c0.037,0.779,0.189,1.347,1.263,0.915c1.08-0.435,2.511-2.309,2.566-3.472c0.105-2.216-1.008-3.948-2.036-5.727
			c-0.122-0.211-0.429-0.448-0.712-0.308c-0.305,0.15-0.576,0.363-0.603,0.802C71.425,39.665,70.746,41.335,71.045,42.858z
			 M73.928,29.3c-0.104,0.435,0.194,0.766,0.444,1.123c0.244,0.349,0.488,0.674,0.551,1.146c0.113,0.843,0.924,1.098,1.549,1.245
			c0.62,0.145,1.163-0.531,1.499-0.948c0.378-0.468-0.294-0.951-0.622-1.36c-0.862-1.073-0.807-1.504,0.355-2.159
			c0.236-0.133,0.545-0.137,0.491-0.541c-0.058-0.426-0.357-0.472-0.687-0.506c-0.271-0.029-0.54-0.071-0.809-0.12
			C75.166,26.897,73.948,27.834,73.928,29.3z M40.038,38.49c0.598,0.735,1.253,0.795,1.947,0.806
			c1.955,0.031,3.886-0.335,5.803-0.574c1.303-0.162,2.737-0.221,3.967-0.914c0.25-0.141,0.584-0.264,0.491-0.573
			c-0.125-0.416-0.567-0.328-0.778-0.149c-0.495,0.42-1.058,0.344-1.592,0.302c-2.549-0.203-5.023,0.568-7.561,0.545
			C41.6,37.928,40.882,38.273,40.038,38.49z"/>
	</g>
</g>
</svg>
