<?xml version="1.0" encoding="iso-8859-1"?>
<!-- Generator: Adobe Illustrator 21.0.2, SVG Export Plug-In . SVG Version: 6.00 Build 0)  -->
<!DOCTYPE svg PUBLIC "-//W3C//DTD SVG 1.1//EN" "http://www.w3.org/Graphics/SVG/1.1/DTD/svg11.dtd">
<svg version="1.1" id="Layer_1" xmlns="http://www.w3.org/2000/svg" xmlns:xlink="http://www.w3.org/1999/xlink" x="0px" y="0px"
	 viewBox="0 0 101.967 80.938" style="enable-background:new 0 0 101.967 80.938;" xml:space="preserve">
<g id="Food_2">
	<g>
		<path style="fill:#FFFFFF;" d="M51.47,20.899c-1.75,0.5-5.375,2.5-3.875,4.5c-0.125,1.25-1.5,3.25-1.75,3.875
			s0.875,2.375,1.75,2.75c-1,0.875-2.5,2.669-0.125,4.169l-0.875,3.206c0,0-8.375-0.395-13.5,2.855c0,0-11.125,6.02-9.625,8.895
			s4.125,5.625,12.125,6.25s20.125-2.25,22.125-3.625c-0.25,0.25,3.875,2.25,6.25-0.5c2.75,0.25,8.125-1.375,9.875-4.375
			c0,0,4.375-5.375-2-8.25c-3.375-1.375-7.625-0.25-7.625-0.25s0.5,2.375-2.625,0.75c-1.5-0.25-4.5,0-4.5,0s-1.5-0.25,0.75-2.625
			s-2-2-2-2v-4c0,0,1.375-1.75,0.125-2.375c2.625-1.5,2.125-3.375,0.25-3.5s-0.75-2.25,0-2.875s0.25-3.125-1.75-3.125
			S51.47,20.899,51.47,20.899z"/>
		<path d="M57.574,54.391c-0.586-0.78-0.375-2.556-2.037-2.118c-2.677,0.706-5.427,0.402-8.132,0.814
			c-4.057,0.618-8.173,0.76-12.291,0.647c-1.613-0.044-3.073-0.47-4.406-1.323c-2.87-1.837-2.398-3.988-0.443-5.78
			c1.396-1.279,2.885-2.457,4.378-3.719c-0.519-0.462-0.879-0.117-1.256,0.132c-2.533,1.666-5.089,3.298-7.594,5.006
			c-1.614,1.1-1.713,3.473-0.255,4.869c1.383,1.323,3.092,2.089,4.874,2.7c2.393,0.821,4.892,0.847,7.38,1.101
			c2.834,0.289,5.611-0.105,8.391-0.246c2.171-0.11,4.419-0.62,6.436-1.69c0.297-0.158,0.707-0.181,1.053-0.147
			c0.331,0.033,0.548,0.359,0.611,0.659c0.072,0.341-0.31,0.263-0.498,0.366c-1.244,0.683-2.653,0.938-3.983,1.29
			c-4.287,1.133-8.676,1.643-13.127,1.538c-2.152-0.051-4.161-0.766-6.234-1.19c-1.553-0.317-2.867-1.194-4.331-1.716
			c-1.622-0.579-3.427-3.309-3.402-4.952c0.02-1.347,0.776-2.312,1.708-3.106c2.364-2.014,4.929-3.756,7.575-5.385
			c1.077-0.663,1.968-1.64,3.19-2.063c1.648-0.571,3.279-1.269,5.063-1.275c1.724-0.006,3.434-0.749,5.177-0.083
			c0.294,0.112,0.631,0.006,0.773-0.381c0.263-0.717,0.861-0.513,1.288-0.326c0.477,0.21,0.828,0.717,0.566,1.254
			c-0.617,1.264,0.485,1.369,1.092,1.43c2.044,0.208,3.98-0.272,5.707-1.425c0.304-0.203,0.574-0.413,0.949-0.455
			c0.336-0.037,0.494-0.253,0.456-0.58c-0.047-0.398-0.381-0.331-0.647-0.361c-0.971-0.108-1.773,0.731-2.758,0.501
			c-0.332-0.077-1.088,0.281-0.683-0.675c0.148-0.349-0.372-0.296-0.61-0.301c-0.879-0.021-1.76,0.023-2.639-0.013
			c-2.82-0.116-4.076-2.294-2.799-4.821c0.192-0.38,0.274-0.849-0.018-1.133c-1.633-1.589-0.529-3.105,0.361-4.309
			c0.631-0.854,0.471-1.419,0.089-2.03c-0.528-0.846-0.471-1.529,0.175-2.223c0.822-0.883,1.965-1.312,2.89-1.97
			c1.361-0.967,2.685-0.691,4.05-0.782c0.886-0.059,1.744,0.312,2.483,0.693c1.421,0.732,1.568,2.688,0.367,3.984
			c-0.6,0.647-0.751,0.894,0.291,1.2c0.722,0.212,1.607,0.654,1.468,1.715c-0.119,0.907-0.448,1.551-1.411,2.092
			c-1.169,0.657-2.234,1.541-3.516,2.014c-1.106,0.408-2.204,0.872-3.443,0.779c-0.87-0.065-2.589,1.153-2.95,1.932
			c-0.117,0.252-0.079,0.34,0.134,0.45c0.212,0.109,0.402,0.32,0.621,0.349c1.939,0.259,3.869,0.322,5.804-0.126
			c1.295-0.3,1.326-1.423,1.695-2.335c0.143-0.354,0.101-0.825,0.702-0.745c0.647,0.086,0.393,0.573,0.424,0.925
			c0.017,0.197-0.024,0.398-0.031,0.598c-0.066,1.93-0.069,1.947,1.83,2.31c0.794,0.152,0.98,0.77,1.27,1.372
			c0.277,0.574-0.169,0.762-0.433,1.066c-0.179,0.206-0.382,0.398-0.526,0.626c-0.535,0.85-0.34,1.241,0.659,1.227
			c1.232-0.017,2.438-0.004,3.474,0.802c0.2,0.156,0.468,0.196,0.679,0.07c0.259-0.155,0.189-0.442,0.058-0.637
			c-0.565-0.845,0.205-0.745,0.586-0.767c1.439-0.085,2.707,0.51,3.841,1.282c0.505,0.344,1.091,0.553,1.546,0.989
			c1.841,1.763,2.002,2.889,0.255,4.704c-1.178,1.224-2.677,2.134-3.963,3.263c-0.426,0.374-0.862,0.314-1.308,0.414
			c-0.43,0.097-0.723,0.36-0.723,0.815c0,0.444,0.376,0.487,0.713,0.651c2.66,1.29,4.734-0.014,6.793-1.456
			c1.316-0.922,2.606-1.843,3.245-3.432c0.457-1.136,0.478-2.876-0.84-3.982c-0.691-0.579-1.375-1.167-2.072-1.738
			c-0.241-0.197-0.35-0.475-0.295-0.728c0.082-0.376,0.457-0.244,0.71-0.241c1.927,0.025,2.853,1.439,3.663,2.841
			c1.222,2.115,0.421,4.895-1.565,6.749c-2.462,2.299-5.265,4.089-8.84,3.805c-1.17-0.093-1.675,0.822-2.357,1.297
			c-0.81,0.564-1.706,0.816-2.528,1.038 M44.219,47.46c-0.44,0-0.882,0.031-1.319-0.005c-2.859-0.238-4.054-2.228-2.813-4.733
			c0.149-0.3,0.22-0.449-0.013-0.7c-0.262-0.284-0.42-0.1-0.698,0.011c-2.316,0.923-4.11,2.64-6.134,4
			c-0.868,0.584-1.785,1.158-2.412,2.044c-0.767,1.083-0.636,1.884,0.553,2.509c1.312,0.69,2.69,1.159,4.227,1.238
			c5.836,0.3,11.642-0.214,17.443-0.642c1.767-0.13,3.672-0.24,5.246-1.38c0.807-0.585,1.645-0.541,2.559-0.122
			c1.181,0.541,2.537-0.006,3.049-1.196c0.148-0.344,0.249-0.549,0.629-0.532c1.742,0.078,2.917-1.044,4.12-2.027
			c0.995-0.813,0.875-2.056-0.252-2.71c-1.003-0.582-2.079-1.053-3.157-1.487c-0.469-0.189-0.779,0.032-0.843,0.651
			c-0.084,0.818-0.544,1.347-1.288,1.88c-1.366,0.979-2.926,1.232-4.431,1.711c-1.327,0.422-2.693,0.618-4.102,0.497
			c-0.625-0.054-0.961-0.375-1.224-0.876c-0.198-0.376-0.081-0.726,0.164-0.977c0.364-0.373,0.791-0.248,1.239-0.054
			c0.5,0.217,1.08,0.54,1.562,0.456c1.694-0.297,3.346-0.803,4.936-1.469c0.428-0.179,0.637-0.719,0.638-1.063
			c0.002-0.464-0.564-0.263-0.886-0.286c-0.557-0.039-1.133,0.061-1.676-0.036c-1.669-0.3-3.468,0.84-5.043-0.458
			c-0.049-0.04-0.174-0.043-0.232-0.009c-1.29,0.76-3.063,0.249-3.881,2.413C49.283,46.48,46.805,47.396,44.219,47.46z
			 M49.615,30.712c2.286,0.158,4.224-0.626,5.839-2.231c0.26-0.259,0.857-0.226,0.768-0.778c-0.096-0.597-0.618-0.35-0.968-0.386
			c-0.267-0.028-0.495-0.119-0.585-0.338c-0.324-0.784-0.978-0.608-1.594-0.614c-1.234-0.013-2.415,0.57-3.715,0.125
			c-0.644-0.22-1.139,0.348-1.194,1.135c-0.03,0.426,0.139,0.975-0.554,1.148c-0.627,0.157-0.809,0.854-0.773,1.277
			c0.042,0.503,0.655,0.7,1.226,0.669C48.58,30.69,49.098,30.712,49.615,30.712z M43.293,45.951c0.763,0.287,1.451-0.35,2.242-0.368
			c1.138-0.026,1.966-0.63,2.757-1.388c0.412-0.395,0.611-0.978,0.552-1.323c-0.066-0.393-0.71-0.571-1.226-0.738
			c-1.494-0.482-2.918-0.292-4.404,0.001c-1.279,0.252-2.398,1.412-2.187,2.746c0.182,1.153,1.224,1.007,2.072,1.069
			C43.139,45.953,43.179,45.951,43.293,45.951z M50.997,24.93c1.062,0.099,2.228-0.081,3.341-0.546
			c0.697-0.291,1.32-0.721,1.489-1.501c0.177-0.815-0.617-0.986-1.085-1.21c-1.2-0.575-5.484,0.4-6.396,1.333
			c-0.41,0.419-0.231,0.881-0.174,1.334c0.065,0.52,0.477,0.58,0.893,0.587C49.661,24.937,50.258,24.93,50.997,24.93z M58.146,52.96
			c-0.42,0.694,0.053,0.778,0.671,0.775c0.511-0.003,0.984,0.052,1.475,0.312c0.624,0.33,2.198-0.285,2.328-0.903
			c0.199-0.945-0.529-1.256-1.272-1.486c-0.149-0.046-0.277-0.163-0.427-0.205C59.872,51.154,58.268,51.98,58.146,52.96z"/>
	</g>
</g>
</svg>
