<?xml version="1.0" encoding="iso-8859-1"?>
<!-- Generator: Adobe Illustrator 21.0.2, SVG Export Plug-In . SVG Version: 6.00 Build 0)  -->
<!DOCTYPE svg PUBLIC "-//W3C//DTD SVG 1.1//EN" "http://www.w3.org/Graphics/SVG/1.1/DTD/svg11.dtd">
<svg version="1.1" id="Layer_1" xmlns="http://www.w3.org/2000/svg" xmlns:xlink="http://www.w3.org/1999/xlink" x="0px" y="0px"
	 viewBox="0 0 101.967 80.938" style="enable-background:new 0 0 101.967 80.938;" xml:space="preserve">
<g id="Food_1">
	<g>
		<path style="fill:#FFFFFF;" d="M35.521,9.558l16.5,1.125l1-1.375c0,0,11,0,14.125,0.75l1,2.125l19.75,0.875l2.5,2l-12.375,29.5
			l-0.25,3.75L67.396,70.433c0,0-0.875,1.375-3,1.25c-2.125-0.125-36.375-4.125-47.625-3.5c0-0.125-5.875-0.375-5.875-0.375
			l2.222-6.625l3.528-4.25l-0.25-1.75l12.5-19.625c0,0,1.75-7.625,2.375-10.125S35.521,9.558,35.521,9.558z"/>
		<path d="M10.419,66.713c2.934-0.042,5.847,0.373,8.763,0.58c3.149,0.223,6.327,0.031,9.43,0.467
			c2.628,0.37,5.256,0.069,7.842,0.427c2.545,0.352,5.126,0.126,7.622,0.52c2.303,0.364,4.591,0.199,6.872,0.432
			c1.956,0.2,3.83,0.912,5.819,0.936c0.759,0.009,1.456-0.011,2.198-0.345c0.578-0.26,1.565-0.842,1.842,0.536
			c0.063,0.314,0.461,0.253,0.736,0.254c0.56,0.001,1.12-0.014,1.68-0.015c1.729-0.001,2.017-0.275,2.076-2.073
			c0.024-0.743,0.404-1.713-1.118-1.386c-0.432,0.093-1.357-0.322-1.285-1.219c0.051-0.63-0.343-0.628-0.749-0.635
			c-0.72-0.013-1.44-0.018-2.159,0.001c-4.833,0.125-9.647-0.377-14.459-0.626c-3.781-0.196-7.586-0.012-11.335-0.45
			c-4.461-0.522-8.936,0.001-13.364-0.447c-2.1-0.212-4.196-0.179-6.279-0.406c-0.83-0.09-1.706-0.518-2.013-1.337
			c-0.35-0.933,0.379-1.51,1.043-2.107c0.689-0.619,1.227-1.41,1.82-2.134c0.198-0.241,0.201-0.402-0.094-0.669
			c-0.766-0.694-0.735-1.414-0.007-2.217c1.95-2.15,3.255-4.752,4.852-7.149c0.968-1.452,1.903-2.93,2.783-4.436
			c1.57-2.688,3.29-5.267,5.082-7.815c0.716-1.018,1.145-2.374,1.393-3.788c0.48-2.744,0.868-5.521,1.587-8.232
			c0.506-1.908,0.802-3.872,1.169-5.815c0.416-2.203,0.835-4.406,1.766-6.463c0.124-0.275,0.143-0.516,0.163-0.79
			c0.12-1.646,1.002-2.192,2.572-1.571c0.293,0.116,0.549,0.294,0.889,0.292c3.022-0.011,5.999,0.726,9.036,0.536
			c0.944-0.059,1.888-0.038,2.826,0.33c0.65,0.255,1.426,0.301,1.717-0.69c0.13-0.444,0.482-0.646,0.998-0.665
			c3.613-0.135,7.216-0.166,10.805,0.406c0.98,0.156,1.998,0.055,2.991,0.145c1.634,0.148,3.255,0.396,4.843,0.829
			c0.396,0.108,0.843,0.195,0.696,0.75c-0.129,0.486-0.593,0.258-0.913,0.319c-0.515,0.098-1.077-0.148-1.84,0.257
			c1.307,0.286,2.371,0.196,3.42,0.224c3.542,0.094,7.062,0.546,10.614,0.559c0.993,0.004,1.965,0.288,3.002,0.009
			c0.831-0.224,1.75,0.309,2.615-0.13c0.12-0.061,0.401-0.041,0.456,0.042c0.592,0.894,1.54,1.38,2.263,2.086
			c0.218,0.213-0.164,1.468-0.43,2.165c-0.655,1.715-1.261,3.468-2.261,5.026c-0.687,1.07-0.93,2.315-1.466,3.442l-1.513,4.072
			c-1.566,3.619-2.632,7.433-4.299,11.01c-0.76,1.631-1.626,3.215-2.209,4.923c-0.126,0.369-0.296,0.863-0.154,1.161
			c1.093,2.304-0.59,4.01-1.288,5.877c-0.61,1.63-1.438,3.199-2.222,4.761c-0.443,0.882-0.943,1.76-1.42,2.64
			c-1.603,2.954-2.953,6.019-4.217,9.127c-0.171,0.421-0.473,0.755-1.092,0.499c-0.483-0.2-1.026-0.205-0.912-0.954
			c0.05-0.329,0.167-0.56,0.414-0.809c1.779-1.79,2.258-4.308,3.512-6.402c0.777-1.297,1.33-2.733,1.939-4.125
			c1.064-2.432,2.12-4.871,2.807-7.444c0.088-0.331,0.297-0.542,0.443-0.811c0.115-0.213,0.241-0.579-0.141-0.706
			c-0.291-0.097-0.498,0.042-0.626,0.373c-0.999,2.589-2.561,4.909-3.508,7.538c-0.947,2.633-2.346,5.09-3.278,7.739
			c-0.195,0.554-0.477,1.003-1.099,1.095c-0.751,0.112-1.198-0.408-0.912-1.115c0.271-0.669,0.675-1.248,1.157-1.826
			c0.619-0.743,0.903-1.775,1.288-2.701c1.182-2.845,2.174-5.785,3.566-8.522c1.128-2.217,1.688-4.671,3.075-6.78
			c0.42-0.639,0.908-0.84,1.471-0.988c0.534-0.141,0.82-0.276,1.092-0.859c1.336-2.869,2.68-5.73,3.773-8.704
			c0.38-1.035,0.846-2.039,1.243-3.069c0.127-0.328,0.17-0.692,0.225-1.044c0.058-0.373-0.259-0.462-0.504-0.572
			c-0.32-0.143-0.383,0.139-0.509,0.337c-1.068,1.678-1.557,3.607-2.352,5.402c-0.68,1.535-1.134,3.177-2.161,4.553
			c-0.432,0.579-0.178,1.374-0.62,2.019c-0.437,0.638-0.826,0.92-1.46,0.416c-0.618-0.492-1.307-0.417-2.015-0.445
			c-1.785-0.071-3.565-0.104-5.686,0.046c0.859,0.484,1.726,0.048,2.102,0.908c0.351,0.802,0.256,1.314-0.648,1.299
			c-1.399-0.023-2.78,0.286-4.215-0.302c-0.966-0.396-2.166-0.369-3.256-0.514c-3.753-0.499-7.539-0.676-11.328-0.663
			c-2.468,0.009-4.911-0.354-7.383-0.395c-3.241-0.054-6.422,0.649-9.658,0.523c-0.767-0.03-1.351-0.194-1.78-0.867
			c-0.175-0.275-0.439-0.508-0.266-0.839c0.171-0.328,0.533-0.274,0.847-0.275c2.239-0.005,4.479-0.008,6.718-0.017
			c0.232-0.001,0.463-0.037,0.714-0.187c-1.32-0.056-2.546-0.583-3.852-0.656c-2.309-0.129-4.558-0.498-6.697-1.423
			c-0.612-0.265-0.957,0.16-1.262,0.6c-2.41,3.479-4.932,6.879-7.19,10.466c-0.793,1.26-1.754,2.414-2.467,3.738
			c-0.197,0.366-0.428,0.659-0.194,1.2c2.048-2.705,4.109-5.293,5.755-8.215c0.967-1.716,2.204-3.317,3.571-4.773
			c0.645-0.686,1.376-1.226,2.4-0.504c-0.984,1.711-2.478,3.04-3.588,4.663c-1.271,1.858-2.66,3.637-3.897,5.518
			c-1.7,2.586-3.577,5.036-5.52,7.438c-0.768,0.949-1.622,1.829-2.38,2.785c-0.482,0.607-0.775,1.272,0.348,1.585
			c0.225,0.063,0.43,0.282,0.644,0.282c2.981-0.002,5.908,0.891,8.908,0.541c0.096-0.011,0.183-0.102,0.391-0.225
			c-2.193-1.06-3.165-2.994-3.716-5.073c-0.222-0.839,0.178-1.935,0.535-2.817c1.04-2.571,2.921-4.381,5.274-5.852
			c2.135-1.335,4.123-2.899,6.419-3.984c3.207-1.515,6.504-1.73,9.903-0.803c0.267,0.073,0.553,0.089,0.832,0.104
			c2.944,0.166,5.907,0.177,8.828,0.534c2.609,0.319,5.227,0.624,7.812,1.231c1.952,0.459,3.731,1.104,5.359,2.241
			c2.034,1.421,3.031,5.078,1.722,7.529c-1.143,2.141-3.028,3.346-5.116,4.233c-2.15,0.913-4.362,1.759-6.627,2.299
			c-1.745,0.416-3.502,0.885-5.298,1.103c-0.292,0.035-0.58,0.094-1.119,0.183c0.628,0.356,1.064,0.282,1.474,0.293
			c1.999,0.057,3.993,0.189,5.986,0.312c1.508,0.093,3.076-0.221,4.628-0.238c1.224-0.013,2.41,0.175,3.279,1.044
			c0.466,0.467,1.408-0.092,1.468,0.678c0.108,1.384,0.378,2.823-0.112,4.159c-0.272,0.742-0.388,1.455-0.369,2.207
			c0.019,0.731-0.297,0.987-1.007,0.97c-1.598-0.037-3.198-0.012-4.796-0.041c-0.849-0.015-1.595-0.46-2.445-0.601
			c-3.003-0.498-6.057-0.582-9.04-1.195c-0.078-0.016-0.16-0.025-0.239-0.021c-2.978,0.139-5.893-0.562-8.868-0.628
			c-3.449-0.076-6.933-0.173-10.342-0.552c-4.379-0.487-8.732-0.145-13.089-0.35c-0.386-0.018-0.778,0.078-1.119-0.257
			c-0.279-0.274-0.702-0.242-1.023-0.096c-1.501,0.679-2.988,0.419-4.495,0.004 M40.867,16.242
			c-1.183-0.249-2.147-0.142-2.359,1.303c-0.126,0.859-0.364,1.71-0.609,2.516c-0.394,1.295-0.441,2.639-0.749,3.942
			c-0.336,1.422-0.835,2.803-1.1,4.245c-0.391,2.13-0.825,4.255-1.315,6.365c-0.31,1.332,0.12,2.07,1.487,2.215
			c1.758,0.187,3.518,0.156,5.289,0.462c2.171,0.375,4.441,0.372,6.643,0.433c4.588,0.128,9.149,0.81,13.744,0.64
			c1.948-0.072,3.857,0.366,5.793,0.358c2.086-0.008,4.194,0.501,6.255-0.302c0.38-0.148,1.012-0.203,1.281,0.01
			c1.241,0.984,1.809,0.11,2.246-0.793c1.26-2.601,2.523-5.207,3.591-7.888c0.258-0.649,0.971-1.223,0.731-2.033
			c-0.274-0.923-0.418-1.72,0.807-2.059c0.214-0.059,0.415-0.319,0.456-0.648c0.16-1.265,0.945-2.309,1.277-3.522
			c0.537-1.963,1.579-3.772,1.766-5.847c0.092-1.017-0.432-1.612-1.318-1.738c-1.561-0.221-3.112-0.491-4.711-0.523
			c-3.016-0.06-6.027-0.072-9.054-0.366c-3.904-0.379-7.827-0.771-11.742-0.955c-4.449-0.209-8.883-0.719-13.349-0.688
			c-1.529,0.011-3.051-0.481-4.607-0.443c-0.114,0.003-0.249-0.031-0.34-0.096c-0.696-0.488-1.426-0.357-2.145-0.101
			c-0.238,0.085-0.431,0.119-0.681,0.051c-1.616-0.441-1.905-0.332-2.543,1.159c-1.114,2.602-1.877,5.304-2.583,8.054
			c-0.738,2.875-1.392,5.747-1.931,8.662c-0.18,0.973-0.074,2.044-0.511,2.909c-0.601,1.191-0.059,2.369-0.247,3.534
			c-0.028,0.176,0.069,0.333,0.254,0.332c0.73-0.003,1.382,0.289,2.057,0.499c0.183,0.057,0.476,0.043,0.47-0.212
			c-0.017-0.674,0.482-1.14,0.622-1.771c0.539-2.432,1.11-4.861,1.664-7.289c0.342-1.502,0.818-2.977,1.069-4.499
			c0.397-2.406,0.417-4.86,0.982-7.249c0.378-1.599,1.159-1.965,2.688-1.215c0.411,0.201,0.711,0.612,1.228,0.626
			c1.265,0.034,2.535,0.347,3.753,0.398c2.411,0.1,4.763,0.622,7.182,0.669c3.918,0.075,7.803,0.805,11.729,0.876
			c2.638,0.048,5.282,0.13,7.916,0.018c1.803-0.076,3.621-0.275,5.363-0.873c0.562-0.193,1.292-0.315,1.723,0.096
			c0.468,0.447,0.282,1.086-0.166,1.591c-0.078,0.088-0.078,0.321-0.017,0.437c0.092,0.175,0.254,0.054,0.404,0.006
			c1.391-0.443,2.465,0.328,3.565,0.966c0.329,0.191,0.309,0.54,0.245,0.86c-0.081,0.401-0.432,0.292-0.681,0.292
			c-1.279-0.002-2.557-0.041-3.836-0.043c-0.573-0.001-0.852-0.318-0.783-0.816c0.16-1.161-0.545-1.214-1.378-1.197
			c-6.213,0.124-12.423,0.434-18.63-0.313c-2.525-0.304-5.085-0.072-7.64-0.402C47.057,16.489,43.91,16.976,40.867,16.242z
			 M56.377,46.117c1.451,1.482,1.418,2.446,0.208,3.666c-0.47,0.474-1.054,0.443-1.568,0.677c-2.85,1.3-5.791,1.172-8.708,0.445
			c-1.522-0.38-2.759-1.434-1.668-3.477c0.22-0.412,0.576-0.613,0.832-0.939c0.179-0.229,0.525-0.466,0.374-0.783
			c-0.125-0.26-0.496-0.178-0.769-0.202c-2.761-0.239-5.48,0.271-8.18,0.658c-0.871,0.125-1.856,0.164-2.725,0.574
			c-2.672,1.26-5.24,2.695-7.468,4.646c-1.238,1.085-2.572,2.219-3.047,3.84c-0.419,1.429-0.27,2.975,0.884,4.119
			c1.293,1.283,2.989,1.777,4.741,2.077c0.242,0.041,0.405-0.11,0.599-0.287c0.387-0.351,0.907-0.315,1.334-0.061
			c0.795,0.474,1.727,0.685,2.557,0.707c5.748,0.151,11.495,0.398,17.207-0.775c2.265-0.465,4.547-0.863,6.751-1.541
			c2.49-0.766,5.047-1.431,7.226-2.971c1.677-1.185,2.916-2.411,2.487-4.886c-0.343-1.984-1.4-2.898-2.955-3.739
			c-1.281-0.693-2.692-0.974-4.046-1.208C59.189,46.442,57.905,46.067,56.377,46.117z M50.973,47.472c0,0.008,0,0.016,0,0.024
			c-1.156,0-2.313-0.027-3.467,0.011c-0.584,0.02-0.952,0.353-0.925,0.996c0.018,0.451,0.019,0.882,0.672,0.888
			c2.435,0.024,4.887,0.249,7.178-0.911c0.327-0.166,0.761-0.212,0.687-0.661c-0.065-0.395-0.496-0.337-0.8-0.341
			C53.203,47.463,52.088,47.472,50.973,47.472z M56.423,10.247c2.843,0.335,5.714-0.062,8.542,0.59
			C62.166,9.718,59.28,10.222,56.423,10.247z M85.857,22.233c-0.982,1.014-1.213,2.357-1.856,3.498
			c-0.11,0.195-0.276,0.464,0.094,0.568c0.301,0.084,0.717,0.143,0.848-0.188C85.437,24.867,85.864,23.597,85.857,22.233z"/>
		<path d="M36.313,55.155c1.397-0.207,2.946,0.275,4.483,0.749c0.713,0.22,1.407,0.578,1.474,1.487
			c0.07,0.94-0.361,1.57-1.203,1.967c-1.945,0.918-3.855,1.139-5.764-0.126c-0.467-0.309-0.802-0.709-0.896-1.194
			c-0.157-0.807-0.61-0.824-1.215-0.633c-0.297,0.093-0.579,0.231-0.873,0.334c-0.393,0.139-0.892,0.563-1.183,0.149
			c-0.293-0.417,0.034-0.997,0.343-1.368c0.743-0.89,1.788-1.242,2.906-1.356C34.939,55.108,35.502,55.155,36.313,55.155z"/>
		<path d="M34.287,48.438c1.234-0.146,2.323,0.183,3.104,1.154c0.718,0.893,0.173,2.792-0.945,3.011
			c-1.064,0.209-2.056,0.745-3.214,0.629c-0.663-0.066-1.256-0.275-1.763-0.585c-0.433-0.265-0.969-0.716-0.451-1.445
			c0.415-0.584,0.018-1.43,0.564-2.016C32.337,48.376,33.278,48.281,34.287,48.438z"/>
		<path d="M49.701,55.649c-0.141-0.018-0.371,0.022-0.447-0.068c-1.033-1.233-2.856-1.008-3.972-2.244
			c-0.494-0.547-0.777-1.007-0.425-1.433c0.324-0.392,1.061-0.618,1.588-0.071c0.508,0.527,1.133,0.775,1.776,1.08
			c0.545,0.258,1.041,0.267,1.576,0.316c0.795,0.072,1.07,0.694,1.065,1.303C50.857,55.14,50.413,55.589,49.701,55.649z"/>
		<path d="M55.1,56.368c-0.475-0.023-0.982,0.053-1.416-0.091c-0.708-0.235-1.383-0.739-1.023-1.563
			c0.285-0.654,1.001-0.964,1.78-0.684c0.51,0.184,0.987,0.482,1.508,0.611c0.628,0.156,1.029,0.455,0.956,1.12
			c-0.085,0.774-0.728,0.548-1.208,0.584c-0.197,0.015-0.397,0.002-0.595,0.002C55.1,56.354,55.1,56.361,55.1,56.368z"/>
	</g>
</g>
</svg>
