<?xml version="1.0" encoding="utf-8"?>
<!-- Generator: Adobe Illustrator 21.0.0, SVG Export Plug-In . SVG Version: 6.00 Build 0)  -->
<svg version="1.1" id="Layer_1" xmlns="http://www.w3.org/2000/svg" xmlns:xlink="http://www.w3.org/1999/xlink" x="0px" y="0px"
	 viewBox="0 0 251.3 33.3" style="enable-background:new 0 0 251.3 33.3;" xml:space="preserve">
<g>
	<path style="fill:#FFFFFF;" d="M0,0.6h16.4c4,0,6.9,1,8.7,2.9c1.3,1.3,2.1,3,2.1,5.2v0.1c0,3.7-2.1,5.9-4.9,7.1c3.9,1.3,6.4,3.5,6.4,7.8v0.1
		c0,5.5-4.5,8.8-12.1,8.8H0V0.6z M14.2,13.4c2.7,0,4.2-0.9,4.2-2.8v-0.1c0-1.7-1.4-2.7-4-2.7H8.6v5.6H14.2z M15.5,25.5
		c2.7,0,4.3-1.1,4.3-2.9v-0.1c0-1.7-1.4-2.9-4.3-2.9H8.6v5.9H15.5z"/>
	<path style="fill:#FFFFFF;" d="M66.7,0.4h8.6l13.6,32.3h-9.5L77,26.9H64.7l-2.3,5.7H53L66.7,0.4z M74.4,20l-3.6-9.1L67.3,20H74.4z"/>
	<path style="fill:#FFFFFF;" d="M111.7,16.7L111.7,16.7c0-9.4,7.2-16.7,16.9-16.7c6.5,0,10.8,2.7,13.6,6.7l-6.7,5.2c-1.8-2.3-3.9-3.8-7-3.8
		c-4.5,0-7.6,3.8-7.6,8.5v0.1c0,4.8,3.2,8.6,7.6,8.6c3.3,0,5.3-1.6,7.2-3.9l6.7,4.8c-3,4.2-7.1,7.2-14.2,7.2
		C119.1,33.3,111.7,26.3,111.7,16.7"/>
	<polygon style="fill:#FFFFFF;" points="169.1,0.6 178,0.6 178,13.6 189,0.6 199.5,0.6 187.4,14.4 199.9,32.7 189.3,32.7 181.2,20.8 178,24.4 178,32.7
		169.1,32.7 	"/>
	<polygon style="fill:#FFFFFF;" points="225.4,0.6 251.1,0.6 251.1,8.2 234.1,8.2 234.1,13 249.5,13 249.5,20 234.1,20 234.1,25.1 251.3,25.1 251.3,32.7
		225.4,32.7 	"/>
</g>
<g>
	<path style="fill:#FFFFFF;" d="M4.6,133.3h8.2c2,0,3.4,0.5,4.3,1.4c0.6,0.6,1,1.5,1,2.6v0c0,1.8-1,2.9-2.5,3.5c1.9,0.6,3.2,1.7,3.2,3.9v0
		c0,2.7-2.2,4.4-6,4.4H4.6V133.3z M11.7,139.6c1.3,0,2.1-0.5,2.1-1.4v0c0-0.9-0.7-1.4-2-1.4H8.9v2.8H11.7z M12.3,145.6
		c1.3,0,2.1-0.5,2.1-1.5v0c0-0.9-0.7-1.4-2.2-1.4H8.9v2.9H12.3z"/>
	<path style="fill:#FFFFFF;" d="M37.7,133.1H42l6.8,16H44l-1.2-2.8h-6.1l-1.1,2.8h-4.6L37.7,133.1z M41.6,142.9l-1.8-4.5l-1.8,4.5H41.6z"/>
	<path style="fill:#FFFFFF;" d="M60.1,141.3L60.1,141.3c0-4.7,3.6-8.3,8.4-8.3c3.3,0,5.3,1.4,6.7,3.3l-3.3,2.6c-0.9-1.1-2-1.9-3.5-1.9
		c-2.2,0-3.8,1.9-3.8,4.2v0c0,2.4,1.6,4.2,3.8,4.2c1.7,0,2.6-0.8,3.6-1.9l3.3,2.4c-1.5,2.1-3.5,3.6-7,3.6
		C63.7,149.5,60.1,146,60.1,141.3"/>
	<polygon style="fill:#FFFFFF;" points="88.6,133.3 93,133.3 93,139.7 98.4,133.3 103.7,133.3 97.6,140.1 103.9,149.2 98.6,149.2 94.6,143.3 93,145.1
		93,149.2 88.6,149.2 	"/>
	<polygon style="fill:#FFFFFF;" points="116.5,133.3 129.3,133.3 129.3,137 120.9,137 120.9,139.4 128.5,139.4 128.5,142.9 120.9,142.9 120.9,145.4 
		129.4,145.4 129.4,149.2 116.5,149.2 	"/>
</g>
</svg>
