<?xml version="1.0" encoding="iso-8859-1"?>
<!-- Generator: Adobe Illustrator 21.0.2, SVG Export Plug-In . SVG Version: 6.00 Build 0)  -->
<!DOCTYPE svg PUBLIC "-//W3C//DTD SVG 1.1//EN" "http://www.w3.org/Graphics/SVG/1.1/DTD/svg11.dtd">
<svg version="1.1" id="Layer_1" xmlns="http://www.w3.org/2000/svg" xmlns:xlink="http://www.w3.org/1999/xlink" x="0px" y="0px"
	 viewBox="0 0 101.967 80.938" style="enable-background:new 0 0 101.967 80.938;" xml:space="preserve">
<g>
	<path style="fill:#FFFFFF;" d="M19.941,52.81c-2.495-1.435-11.121-4.886-8.533-13.296c1.725-2.803,8.018-4.959,9.4-4.959
		c1.382-0.001,3.539-2.373,3.754-3.235c0.216-0.863,5.607-9.273,14.88-7.332c4.529,1.078,4.908,3.071,11.511,0.781
		s11.809-6.118,17.401-4.959c5.592,1.159,7.213,5.461,7.912,7.839s1.072,1.501,1.072,1.501s7.945,0.94,10.579,4.682
		s2.634,5.467,0.693,7.624c-1.941,2.157-1.762,5.637-1.762,5.637s-15.706,7.086-19.156,7.518c-3.45,0.431-19.984,1.019-21.637,1.372
		c-1.653,0.353-22.356-1.804-24.081-2.235S19.941,52.81,19.941,52.81z"/>
	<path style="fill:none;" d="M44.228,53.254c-0.039,0.221-0.069,0.481-0.097,0.824C44.202,53.86,44.229,53.577,44.228,53.254z"/>
	<path style="fill:none;" d="M41.045,48.021c-2.205,0.55-4.365,1.281-6.72,1.301c0.846,2.743,1.163,3.197,3.045,2.707
		c1.906-0.496,3.4,0.007,5.241,1.307c0-1.701,0.032-2.895-0.01-4.087C42.567,48.279,42.099,47.758,41.045,48.021z"/>
	<path d="M68.355,19.809c-2.932,0.013-5.804,0.33-8.622,0.937L68.355,19.809z"/>
	<path d="M59.733,20.746c-2.153,0.464-4.276,1.092-6.365,1.911c-0.96,0.376-2.014,0.523-2.922,1.05
		c-0.268,0.156-0.559,0.396-0.45,0.767c0.158,0.539,0.582,0.437,0.958,0.294c2.47-0.942,5.033-1.571,7.582-2.249
		c0.609-0.163,1.219-0.443,1.793-0.04c0.128,0.3,0.007,0.532-0.18,0.665c-2.054,1.468-2.49,3.769-3.101,5.979
		c-0.198,0.718,0.094,1.233,0.705,1.615c0.645,0.403,1.376,0.542,2.077,0.401c1.079-0.217,1.98,0.092,2.987,0.441
		c1.807,0.628,3.706,1.031,5.651,0.511c0.655-0.176,1.193-0.504,1.389-1.185c0.164-0.57-0.24-0.868-0.657-1.139
		c-0.639-0.416-1.288-0.697-1.974-0.119c-0.301,0.255-0.517,0.667-0.855,0.81c-0.623,0.263-1.297,0.18-1.73-0.399
		c-0.505-0.674,0.199-0.964,0.537-1.358c0.431-0.502,1.036-0.711,1.593-1.022c1.113-0.622,2.165-1.356,3.222-2.075
		c0.248-0.169,0.525-0.453,0.269-0.798c-0.126-0.17-0.37-0.311-0.58-0.346c-0.566-0.094-1.259-0.082-1.598,0.316
		c-1.1,1.29-2.615,1.702-4.082,2.307c-0.601,0.247-1.354,0.601-1.652,1.313c-0.495,1.182-1.637,1.201-2.601,1.447
		c-0.9,0.23-1.328-0.401-0.962-1.296c0.254-0.62,0.828-0.987,0.72-1.899c-0.238-2.018,2.008-3.337,3.781-2.309
		c0.467,0.271,0.7,0.089,1.04-0.108c0.654-0.379,1.092-0.941,1.371-1.618c0.43-1.046,1.227-1.401,2.293-1.323
		c0.716,0.053,1.445,0.026,2.149,0.149c2.736,0.478,3.914,2.352,4.601,4.878c0.675,2.481-0.159,4.226-2.109,5.589
		c-1.788,1.25-3.838,1.964-5.92,2.538c-1.919,0.529-3.875,1.098-5.662-0.445c-0.222-0.192-0.596-0.218-0.906-0.293
		c-0.437-0.106-0.961,0.025-0.918,0.467c0.169,1.754-1.052,1.427-2.048,1.478c-0.401,0.021-0.792,0.075-0.998,0.508
		c0.221,0.841,0.885,0.851,1.523,0.699c3.275-0.782,6.723-0.333,9.954-1.419c0.299-0.1,0.624-0.101,1.104,0.336
		c-2.218,1.469-4.639,2.158-7.121,2.587c-1.318,0.228-2.683,0.46-4.047,0.06c-0.766-0.224-1.936-0.99-2.174,0.256
		c-0.166,0.867,1.14,0.823,1.914,0.901c7.42,0.752,13.617-1.894,18.953-6.87c0.697-0.65,1.221-1.476,1.608-2.366
		c0.268-0.615,0.261-1.163-0.556-1.194c-1.075-0.04-1.076-0.776-1.072-1.501c0.017-3.072-1.378-5.343-3.903-6.988
		c-0.268-0.174-0.557-0.318-0.814-0.507l-3.195-0.344L59.733,20.746z"/>
	<path d="M90.991,37.31c-0.415-1.035-0.94-2.031-1.473-3.013c-0.349-0.645-0.916-0.915-1.6-0.466c-0.488,0.32-1.28,0.237-1.46,0.998
		c0.426,0.815,1.327,0.926,1.902,1.469c0.563,0.531,0.931,1.111,0.722,1.903c-0.418,1.588-1.051,3.122-2.631,3.823
		c-3.137,1.391-6.205,3.006-9.571,3.79c-1.883,0.439-3.778,1.089-5.826,0.895c0.144-0.961,0.845-0.915,1.286-1.177
		c0.824-0.488,1.702-0.883,2.527-1.369c0.395-0.233,0.934-0.549,0.683-1.101c-0.286-0.63-0.802-0.239-1.218-0.061
		c-0.882,0.378-1.759,0.769-2.638,1.154c-3.611,1.581-7.391,1.974-11.269,1.536c-0.784-0.088-1.724-0.105-2.148-0.986
		c0.399-0.52,0.809-0.473,1.2-0.454c4.872,0.24,9.321-1.067,13.447-3.616c1.235-0.763,2.349-1.659,3.314-2.731
		c0.301-0.335,0.671-0.797,0.26-1.268c-0.394-0.451-0.882-0.165-1.322,0.009c-1.073,0.425-1.758,1.371-2.669,2.005
		c-4.889,3.402-9.995,5.765-16.048,3.022c-0.397-0.179-0.772-0.213-1.095,0.116c-0.255,0.26-0.171,0.585-0.102,0.896
		c0.337,1.521,1.34,2.507,2.633,3.246c1.199,0.686,2.484,1.204,3.777,1.851c-4.217,1.182-8.452,1.86-12.725,2.294
		c-1.027,0.104-1.215-0.374-0.644-1.337c0.203-0.343,0.466-0.649,0.694-0.978c2.591-3.745,4.365-7.66,2.577-12.323
		c-0.084-0.22-0.076-0.473-0.124-0.708c-0.603-2.973-1.692-5.636-4.45-7.315c-0.815-0.496-1.535-1.149-2.301-1.726
		c-2.71-2.042-5.843-3.375-9.141-2.948c-2.669,0.345-5.292,1.233-7.452,2.968c-0.828,0.761-1.435,1.341-1.435,1.341
		c-0.337,0.379-0.706,0.703-1.089,1.005c-1.015,1.127-1.684,2.44-2.327,3.354c0.189,0.535-0.024,1.145-0.585,1.434
		c-0.338,0.174-0.762,0.227-1.152,0.247c-0.662,0.034-1.266,0.246-1.81,0.58c-2.034,1.249-4.139,2.365-6.232,3.508
		c-1.827,0.998-3.156,2.699-2.931,4.881c0.323,3.134,1.181,6.122,4.065,8.047c1.674,1.118,3.49,1.938,5.331,2.705
		c0.516,0.216,1.206,0.424,1.622-0.474c-0.628-0.206-1.148-0.396-1.679-0.546c-2.884-0.812-5.143-2.541-6.966-4.851
		c-2.29-2.904-1.617-6.538,1.644-8.383c0.044,1.792-0.064,3.502,0.327,5.205c0.903,3.931,3.216,6.192,7.147,6.655
		c1.182,0.139,2.338,0.245,3.564,0.02c1.542-0.284,2.894,0.385,3.451,1.479l0.688-1.618l1.671-3.855
		c2.169-1.594,7.48-2.027,10.567-0.864c-3.476,2.897-6.933,1.059-10.567,0.864c0,0,4.763,3.978,11.071-0.36
		c0,0,1.737,4.783,1.748,7.172c0.156-0.883,0.509-0.931,1.944-1.053c1.114-0.094,2.231-0.235,3.324-0.462
		c5.794-1.205,11.619-2.22,17.476-3.057c4.194-0.6,8.421-1.031,12.487-2.317c1.582-0.5,3.147-1.049,4.595-1.534
		c0.293,2.944-1.958,3.575-3.947,4.454c-2.562,1.132-5.169,2.143-7.861,2.923c-7.561,2.19-15.195,3.855-23.152,3.166
		c-0.635-0.055-1.28-0.046-1.918-0.018c-0.462,0.02-1.055-0.003-1.12,0.626c-0.086,0.823,0.588,0.84,1.136,0.827
		c4.391-0.102,8.782,0.214,13.172-0.453c7.327-1.114,14.303-3.373,21.164-6.061c1.944-0.762,3.725-1.838,5.321-3.203
		c0.434-0.372,1.088-0.891,0.73-1.345c-1.118-1.42,0.277-1.998,0.831-2.789c0.496-0.708,1.252-1.227,1.851-1.87
		C91.283,39.99,91.545,38.692,90.991,37.31z M16.63,45.861c-1.602-2.066-1.321-6.166,0.541-8.252
		c1.048-1.174,2.096-2.444,3.637-3.054c1.365-0.54,2.017-0.102,1.755,1.31c-0.612,3.302,0.17,6.524,0.402,9.777
		c0.103,1.442,1.481,2.21,2.124,3.823C21.393,49.713,18.661,48.483,16.63,45.861z M45.349,49.355
		c-0.282,0.067-0.41-0.175-0.381-0.426c0.028-0.246,0.187-0.446,0.458-0.444c0.261,0.002,0.432,0.149,0.427,0.513
		C45.711,49.104,45.549,49.309,45.349,49.355z M46.649,46.932c-0.928-0.209-1.863-0.158-1.867-1.592
		c-0.003-0.981-1.041-1.351-1.822-1.721c-1.25-0.591-2.61-0.716-3.979-0.731c-2.416-0.026-4.767,0.444-7.109,0.955
		c-0.861,0.188-1.662,0.564-2.399,1.063c-1.601,1.084-1.794,1.711-1.082,3.578c0.083,0.217,0.217,0.435-0.264,0.849
		c-1.589-1.281-3.546-2.063-3.906-4.732c-0.396-2.937-0.809-5.788-0.452-8.791c0.553-4.653,3.112-7.744,6.945-9.991
		c4.279-2.508,8.481-2.314,12.572,0.531c1.044,0.727,2.044,1.521,3.223,2.067c0.958,0.444,1.619,1.282,2.079,2.247
		c1.109,2.329,1.628,4.838,2.207,7.325c0.106,0.453,0.066,0.961-0.002,1.429c-0.119,0.821-0.67,0.913-1.159,0.395
		c-0.784-0.829-1.686-1.465-2.671-1.997c-0.446-0.241-1.026-0.266-1.3,0.191c-0.319,0.532,0.148,0.859,0.589,1.096
		c0.211,0.114,0.434,0.205,0.648,0.312c0.689,0.344,1.73,0.581,1.357,1.592c-0.298,0.808-1.279,0.443-1.947,0.397
		c-0.74-0.051-1.578,0.004-1.424-1.33c0.145-1.258-0.258-1.457-1.988-1.429c-0.413,0.007-0.822,0.13-1.01-0.325
		c-0.193-0.464,0.171-0.754,0.503-0.962c0.81-0.507,1.642-0.98,2.473-1.453c0.91-0.518,1.785-1.081,2.357-1.989
		c0.838-1.33,0.243-2.554-1.336-2.739c-1.724-0.202-3.094,0.61-4.372,1.618c-0.433,0.341-0.805,0.758-1.371,1.299
		c-0.568-1.43-0.505-2.835-0.648-4.193c-0.118-1.131-0.289-2.238-1.096-3.103c-0.897-0.962-1.86-0.81-2.498,0.346
		c-0.571,1.034-0.435,2.172-0.481,3.283c-0.082,2-0.375,2.197-2.278,1.496c-0.748-0.276-1.483-0.589-2.238-0.842
		c-0.844-0.283-1.735-0.354-2.609-0.27c-1.37,0.132-1.864,1.009-1.397,2.335c0.76,2.162,1.789,2.881,3.867,2.575
		c-0.537-0.951-1.628-1.025-2.289-1.652c-0.36-0.341-0.741-0.683-0.62-1.208c0.158-0.683,0.774-0.775,1.333-0.738
		c1.69,0.113,3.323,0.511,4.794,1.368c1.13,0.658,0.972,0.901,0.403,2.048c-0.743,1.499-1.847,1.972-3.398,2.139
		c-1.332,0.144-2.653,0.583-3.759,1.43c-0.327,0.25-0.532,0.622-0.216,1.024c0.251,0.319,0.562,0.186,0.853,0.023
		c1.385-0.779,2.789-1.494,4.391-1.466c0.428,0.793-0.138,1.029-0.505,1.21c-1.497,0.737-2.842,1.805-4.548,2.102
		c-0.421,0.073-0.747,0.347-0.553,0.849c0.174,0.451,0.591,0.582,0.98,0.397c1.872-0.893,3.933-1.377,5.664-2.563
		c0.707-0.485,1.33-0.521,1.923,0.089c1.666,1.713,3.484,1.363,5.232,0.273c1.085-0.677,1.669-0.651,2.47,0.462
		c0.934,1.299,2.496,1.595,4.062,1.682c0.769,0.043,1.572-0.408,2.328,0.138c0.176,0.889-0.416,1.505-0.78,2.191
		C48.129,46.268,47.883,47.209,46.649,46.932z M41.39,35.462c1.095-2.218,2.342-2.988,4.555-2.844
		C44.886,34.356,43.505,35.314,41.39,35.462z M36.944,32.538c-0.461-1.345-0.563-2.731,0.263-4.233
		c0.921,0.783,0.963,1.684,1.021,2.491c0.097,1.347,0.087,2.708,0.021,4.058c-0.068,1.396-0.186,1.423-2.264,0.807
		C37.712,34.927,37.373,33.792,36.944,32.538z M37.724,37.799c1.184-0.041,2.407,0.595,2.226,1.203
		c-0.237,0.802-0.889,1.271-1.712,1.407c-0.758,0.126-1.837-0.891-1.899-1.73C36.299,38.127,36.762,37.832,37.724,37.799z"/>
</g>
</svg>
