<?xml version="1.0" encoding="iso-8859-1"?>
<!-- Generator: Adobe Illustrator 21.0.2, SVG Export Plug-In . SVG Version: 6.00 Build 0)  -->
<!DOCTYPE svg PUBLIC "-//W3C//DTD SVG 1.1//EN" "http://www.w3.org/Graphics/SVG/1.1/DTD/svg11.dtd">
<svg version="1.1" id="Layer_1" xmlns="http://www.w3.org/2000/svg" xmlns:xlink="http://www.w3.org/1999/xlink" x="0px" y="0px"
	 viewBox="0 0 101.967 80.938" style="enable-background:new 0 0 101.967 80.938;" xml:space="preserve">
<g>
	<path style="fill:#FFFFFF;" d="M30.134,33.875c0,0,1,4.333,0.5,4.833s-3.5,0.833-4.333,1.333s-9.333,5.167-10.167,6.167
		c-0.833,1-2.833,4.167,0.833,5.833S27.8,54.375,27.8,54.375s9,1.333,14.833,0.333s29-5,30.5-5.667s3.667-0.333,4.833-0.333
		c1.167,0,5.167,2,6.333-0.833c1.167-2.833,2-8.833,2.167-11c0.167-2.167,1.5-11.667-7.833-12.5c-9.333-0.833-10.667,2.333-12,3.5
		c-1.333,1.167-6-0.167-6-0.167s-10,0.333-12,0.333S40.3,28.708,38.3,29.208s-6.167,2.5-6.833,2.833
		C30.8,32.375,30.134,33.875,30.134,33.875z"/>
	<path style="fill:none;" d="M62.824,33.527c-3.196,1.619-6.686,1.971-10.143,2.598c-4.894,0.887-9.742,1.55-14.715,0.689
		c-1.557-0.27-3.185-0.122-4.78-0.193c-0.898-0.04-1.346,0.294-1.27,1.249c0.22,2.782,0.298,5.576,0.923,8.318
		c0.228,0.999,0.763,1.527,1.741,1.682c0.7,0.112,1.389,0.383,2.37-0.007c-0.399-1.327-0.797-2.536-1.121-3.765
		c-0.243-0.923-0.412-1.867-0.571-2.809c-0.052-0.306,0.034-0.636,0.4-0.769c0.383-0.139,0.691,0.097,0.774,0.372
		c0.645,2.13,1.783,4.141,1.966,6.362c0.075,0.911,0.149,1.184,1.022,1.374c3.899,0.849,7.781,0.385,11.666-0.041
		c0.375-0.041,0.859-0.149,0.789-0.688c-0.269-2.081,0.855-4.013,0.613-6.107c-0.067-0.574-0.266-1.66,0.888-1.567
		c1.107,0.089,1.023,1.087,0.97,1.851c-0.055,0.789-0.324,1.561-0.454,2.348c-0.13,0.784-0.213,1.577-0.298,2.368
		c-0.091,0.848,0.336,1.222,1.135,1.038c1.941-0.448,3.815-1.062,5.517-2.157c0.932-0.6,1.525-1.392,1.807-2.429
		c0.69-2.538,1.493-5.048,1.894-7.657c0.06-0.392,0.084-0.794,0.079-1.19C64.016,33.584,63.638,33.115,62.824,33.527z
		 M43.292,47.932c-0.543,0.015-0.887-0.443-0.86-0.955c0.103-1.934-0.37-3.789-0.685-5.666c-0.071-0.425-0.054-0.806,0.421-0.961
		c0.458-0.149,0.795,0.119,0.966,0.484c0.198,0.423,0.356,0.892,0.4,1.353c0.144,1.505,0.107,3.027,0.476,4.439
		C44.014,47.254,44.083,47.91,43.292,47.932z M49.35,46.197c-0.145,0.567-0.382,1.1-1.103,0.981
		c-0.728-0.12-0.748-0.723-0.724-1.291c0.014-0.314,0.104-0.624,0.1-0.604c0.205-1.057-0.024-1.745-0.142-2.446
		c-0.067-0.397-0.089-0.846,0.354-1.022c0.6-0.239,0.883,0.262,1.053,0.677C49.375,43.676,49.679,44.905,49.35,46.197z
		 M60.214,44.436c-0.061,0.498-0.486,0.828-1.048,0.73c-0.421-0.073-0.78-0.371-0.77-0.79c0.036-1.505,0.105-3.013,0.248-4.511
		c0.046-0.48,0.472-0.896,1.006-0.825c0.588,0.078,0.633,0.632,0.645,1.116c0.016,0.635,0.004,1.272,0.004,1.907
		c-0.021,0-0.04,0-0.06,0C60.239,42.855,60.309,43.655,60.214,44.436z"/>
	<path style="fill:none;" d="M43.67,35.102c2.702,0.929,13.558-0.769,15.767-2.385C54.123,33.093,48.704,32.727,43.67,35.102z"/>
	<path style="fill:none;" d="M80.819,50.054l1.393,0.072C81.753,50.01,81.291,49.959,80.819,50.054z"/>
	<path style="fill:none;" d="M86.979,30.849l-0.012-0.807l-1.014-3.74c0.285,1.669,0.58,3.393,0.935,5.473
		C86.927,31.452,86.956,31.147,86.979,30.849z"/>
	<path style="fill:none;" d="M86.243,43.491l0.891-2.45l-0.031-2.065c-0.163,1.266-0.366,2.528-0.676,3.771
		C86.364,42.995,86.304,43.243,86.243,43.491z"/>
	<path style="fill:none;" d="M32.417,34.469c2.15,0.658,4.392,0.806,6.631,0.817c0.562,0.003,1.037-0.365,1.454-0.763
		c1.33-1.269,3.003-1.891,4.757-2.063c4.446-0.437,8.878-1.116,13.365-1.015c0.319,0,0.639,0.013,0.958-0.002
		c1.273-0.06,2.556-0.055,3.815-0.224c0.719-0.097,1.429-0.585,1.494-1.364c0.075-0.901-0.852-0.785-1.404-0.966
		c-0.524-0.171-1.093-0.215-1.645-0.294c-3.818-0.546-7.647-0.421-11.469-0.105c-4.057,0.335-8.129,0.556-12.119,1.476
		c-2.133,0.492-4.087,1.366-5.883,2.582C31.307,33.269,31.326,34.135,32.417,34.469z"/>
	<path d="M80.819,50.054c0.472-0.095,0.934-0.044,1.393,0.072l1.588,0.082l2.442-6.717c0.061-0.248,0.121-0.496,0.183-0.744
		c0.311-1.244,0.513-2.505,0.676-3.771c0,0-0.175-7.524-0.214-7.203c-0.356-2.08-0.65-3.804-0.935-5.473
		c0,0-1.896-2.927-1.903-1.017c-0.007,2.048-0.526,2.634-2.487,2.776c-3.49,0.254-6.993,0.927-10.48-0.07
		c-0.39-0.112-0.829-0.116-1.046,0.314c-0.273,0.543,0.087,0.918,0.476,1.208c0.799,0.595,1.734,0.807,2.712,0.813
		c2.081,0.014,4.136-0.221,6.181-0.618c1.403-0.272,2.781-0.668,4.261-0.568c1.158,0.078,1.748,0.412,1.818,1.654
		c0.158,2.794,0.581,5.595,0.281,8.381c-0.296,2.744-0.312,5.643-2.471,7.83c-0.225,0.227-0.371,0.514-0.336,0.864
		c0.105,1.058-0.59,0.98-1.242,0.805c-0.607-0.163-1.385-0.272-1.601-0.927c-0.368-1.115-1.098-1.099-1.866-0.684
		c-2.021,1.092-4.299,1.222-6.457,1.699c-6.706,1.481-13.445,2.829-20.206,4.034c-9.657,1.722-19.335,2.719-28.982-0.203
		c-1.833-0.555-3.737-0.916-5.477-1.724c-2.019-0.937-2.228-2.345-0.677-3.859c0.397-0.389,0.823-0.773,1.298-1.054
		c2.749-1.625,5.521-3.211,8.276-4.825c0.922-0.54,1.926-0.71,2.963-0.875c1.143-0.183,1.612,0.299,1.794,1.337
		c0.276,1.57,0.49,3.162,0.931,4.687c0.308,1.065-0.587,2.478,0.501,3.126c0.889,0.529,2.152,0.43,3.249,0.609
		c0.316,0.051,0.631,0.114,0.948,0.149c7.796,0.85,15.486,0.756,22.817-2.554c0.588-0.265,1.18-0.352,1.851-0.327
		c1.416,0.054,2.831-1.767,2.568-3.16c-0.426-2.255,0.717-6.028,2.478-7.9c0.456,2.098,1.75,3.775,2.05,5.88
		c0.174,1.213,1.309,1.511,2.068,0.531c0.647-0.836,1.371-0.955,2.251-1.027c3.676-0.301,7.172-1.589,10.83-1.997
		c0.49-0.054,1.014-0.266,0.814-0.897c-0.189-0.596-0.751-0.548-1.186-0.316c-0.961,0.512-1.988,0.546-3.031,0.557
		c-3.127,0.034-6.183,0.594-9.215,1.289c-1.563,0.358-1.823,0.315-2.192-1.182c-0.678-2.75-0.811-5.523-0.099-8.305
		c0.448-1.751,0.421-1.755-1.482-2.113c-0.227-0.043-0.48-0.082-0.665-0.206c-2.528-1.699-5.429-1.71-8.299-1.853
		c-3.215-0.16-6.352,0.699-9.557,0.726c-1.755,0.015-3.559-0.041-5.251,0.338c-4.586,1.026-9.123,2.259-13.28,4.572
		c-1.222,0.68-1.392,1.051-0.712,2.436c0.466,0.949,0.779,1.908,0.811,2.977c0.024,0.798-0.27,1.227-1.072,1.234
		c-1.14,0.01-2.259,0.15-3.205,0.82c-2.422,1.716-5.13,2.939-7.643,4.494c-1.433,0.887-2.788,1.861-3.708,3.339
		c-0.403,0.647-0.702,1.274-0.363,2.014c0.602,1.314,1.224,2.554,2.806,3.053c1.827,0.575,3.595,1.291,5.509,1.611
		c2.989,0.499,6.018,0.747,8.975,1.461c1.712,0.414,3.473,0.568,5.238,0.437c9.349-0.693,18.539-2.348,27.637-4.567
		c3.081-0.751,6.182-1.427,9.274-2.137c0.09,0.154,0.179,0.307,0.269,0.461c-0.468,0.322,0.437-0.144,0.437-0.144L80.819,50.054z
		 M63.947,35.587c-0.401,2.609-1.204,5.119-1.894,7.657c-0.282,1.037-0.875,1.829-1.807,2.429c-1.702,1.095-3.576,1.709-5.517,2.157
		c-0.799,0.184-1.226-0.19-1.135-1.038c0.085-0.791,0.168-1.584,0.298-2.368c0.13-0.787,0.399-1.559,0.454-2.348
		c0.053-0.764,0.137-1.762-0.97-1.851c-1.154-0.093-0.955,0.993-0.888,1.567c0.242,2.094-0.882,4.026-0.613,6.107
		c0.07,0.539-0.414,0.647-0.789,0.688c-3.885,0.426-7.767,0.89-11.666,0.041c-0.873-0.19-0.947-0.463-1.022-1.374
		c-0.183-2.221-1.321-4.232-1.966-6.362c-0.083-0.275-0.391-0.511-0.774-0.372c-0.366,0.133-0.452,0.463-0.4,0.769
		c0.159,0.942,0.328,1.886,0.571,2.809c0.324,1.229,0.722,2.438,1.121,3.765c-0.981,0.39-1.67,0.119-2.37,0.007
		c-0.978-0.155-1.513-0.683-1.741-1.682c-0.625-2.742-0.703-5.536-0.923-8.318c-0.076-0.955,0.372-1.289,1.27-1.249
		c1.595,0.071,3.223-0.077,4.78,0.193c4.973,0.861,9.821,0.198,14.715-0.689c3.457-0.627,6.947-0.979,10.143-2.598
		c0.814-0.412,1.192,0.057,1.202,0.87C64.031,34.793,64.007,35.195,63.947,35.587z M43.67,35.102
		c5.034-2.375,10.453-2.009,15.767-2.385C57.228,34.333,46.372,36.031,43.67,35.102z M32.371,32.548
		c1.796-1.216,3.75-2.09,5.883-2.582c3.99-0.92,8.062-1.141,12.119-1.476c3.822-0.316,7.651-0.441,11.469,0.105
		c0.552,0.079,1.121,0.123,1.645,0.294c0.552,0.181,1.479,0.065,1.404,0.966c-0.065,0.779-0.775,1.267-1.494,1.364
		c-1.259,0.169-2.542,0.164-3.815,0.224c-0.319,0.015-0.639,0.002-0.958,0.002c-4.487-0.101-8.919,0.578-13.365,1.015
		c-1.754,0.172-3.427,0.794-4.757,2.063c-0.417,0.398-0.892,0.766-1.454,0.763c-2.239-0.011-4.481-0.159-6.631-0.817
		C31.326,34.135,31.307,33.269,32.371,32.548z"/>
	<path d="M69.457,26.684c3.314-1.585,6.675-2.598,10.298-0.961c0.36,0.163,0.851,0.097,1.009-0.352
		c0.219-0.625-0.32-0.871-0.751-0.983c-1.771-0.462-3.549-0.913-5.46-0.839c-0.987-0.036-2.004,0.081-3.011,0.381
		c-1.079,0.322-2.126,0.688-2.915,1.533c-0.279,0.299-0.443,0.73-0.224,1.095C68.648,26.968,69.076,26.866,69.457,26.684z"/>
	<path d="M74.596,32.142c-0.054-0.473-0.399-0.895-0.968-0.85c-0.567,0.046-0.785,0.474-0.806,0.991
		c-0.074,1.82,0.492,3.603,0.28,5.442c-0.061,0.533,0.497,0.773,1.007,0.782c0.596,0.01,0.843-0.38,0.811-0.923
		c-0.042-0.709-0.139-1.415-0.213-2.123c0.027-0.002,0.055-0.004,0.082-0.006C74.732,34.35,74.72,33.24,74.596,32.142z"/>
	<path d="M78.497,32.576c-0.017-0.347-0.302-0.568-0.655-0.532c-0.215,0.022-0.567,0.143-0.603,0.284
		c-0.428,1.682-0.875,3.377-0.6,5.133c0.077,0.497,0.541,0.807,1.049,0.819c0.596,0.014,0.801-0.483,0.835-0.958
		c0.056-0.786,0.015-1.58,0.015-2.371c-0.01,0-0.02,0-0.029,0C78.509,34.159,78.536,33.366,78.497,32.576z"/>
	<path d="M82.983,35.959c0.32-0.971,0.652-1.937,0.964-2.91c0.145-0.452,0.305-0.994-0.263-1.222
		c-0.641-0.257-1.077,0.18-1.253,0.739c-0.307,0.973-0.522,1.976-0.767,2.935c-0.163,0.551-0.088,1.002,0.507,1.123
		C82.643,36.719,82.852,36.358,82.983,35.959z"/>
	<path d="M60.295,40.156c-0.012-0.484-0.057-1.038-0.645-1.116c-0.534-0.071-0.96,0.345-1.006,0.825
		c-0.143,1.498-0.212,3.006-0.248,4.511c-0.01,0.419,0.349,0.717,0.77,0.79c0.562,0.098,0.987-0.232,1.048-0.73
		c0.095-0.781,0.025-1.581,0.025-2.373c0.02,0,0.039,0,0.06,0C60.299,41.428,60.311,40.791,60.295,40.156z"/>
	<path d="M43.534,42.187c-0.044-0.461-0.202-0.93-0.4-1.353c-0.171-0.365-0.508-0.633-0.966-0.484
		c-0.475,0.155-0.492,0.536-0.421,0.961c0.315,1.877,0.788,3.732,0.685,5.666c-0.027,0.512,0.317,0.97,0.86,0.955
		c0.791-0.022,0.722-0.678,0.718-1.306C43.641,45.214,43.678,43.692,43.534,42.187z"/>
	<path d="M47.835,41.815c-0.443,0.176-0.421,0.625-0.354,1.022c0.118,0.701,0.347,1.389,0.142,2.446
		c0.004-0.02-0.086,0.29-0.1,0.604c-0.024,0.568-0.004,1.171,0.724,1.291c0.721,0.119,0.958-0.414,1.103-0.981
		c0.329-1.292,0.025-2.521-0.462-3.705C48.718,42.077,48.435,41.576,47.835,41.815z"/>
</g>
</svg>
