<?xml version="1.0" encoding="iso-8859-1"?>
<!-- Generator: Adobe Illustrator 21.0.2, SVG Export Plug-In . SVG Version: 6.00 Build 0)  -->
<!DOCTYPE svg PUBLIC "-//W3C//DTD SVG 1.1//EN" "http://www.w3.org/Graphics/SVG/1.1/DTD/svg11.dtd">
<svg version="1.1" id="Layer_1" xmlns="http://www.w3.org/2000/svg" xmlns:xlink="http://www.w3.org/1999/xlink" x="0px" y="0px"
	 viewBox="0 0 101.967 80.938" style="enable-background:new 0 0 101.967 80.938;" xml:space="preserve">
<g>
	<path style="fill:#FFFFFF;" d="M72.299,19.077l-25,11.25L16.924,42.702l-4.75,2.875l-1.375,4.625c0,0,0.875,2,1.5,2.5
		s3.875,0.5,3.875,0.5l5,1.875l3.375,2.25l-0.625,1.5l-2.875,0.625l0.5,1.75c0,0,2.625,1.875,5.625,0.375s25.625-13.5,25.625-13.5
		l18.375-8.375l10.125-6.25l9.25-5.375l-1.25-2.625l-4.625-2.25l-3-1.75l0.25-1.5c0,0,0.375-2.75-3.375-2.5
		S72.299,19.077,72.299,19.077z"/>
	<path style="fill:none;" d="M12.38,54.444c-0.278,0.517,0.085,0.922,0.404,1.266c1.16,1.252,2.613,2.075,4.103,2.837
		c-1.359-1.406-2.855-2.963-4.175-4.358C12.581,54.229,12.461,54.294,12.38,54.444z"/>
	<path d="M65.365,22.066l-1.919,0.846c0.137-0.04,0.271-0.087,0.409-0.125C64.385,22.643,64.868,22.321,65.365,22.066z"/>
	<path d="M54.313,27.151c0.681-0.371,1.361-0.745,2.043-1.114l-3.778,1.665C53.05,27.751,53.565,27.558,54.313,27.151z"/>
	<path d="M14.735,44.834c6.933-3.857,14.554-6.214,21.51-10.017c3.934-2.151,8.121-3.738,12.4-5.074
		c0.303-0.095,0.626-0.143,0.912-0.274c0.805-0.368,1.188-0.717,1.202-1.157l-0.834,0.391L11.799,44.327c0,0-0.037,0.071-0.094,0.18
		C12.461,45.383,13.419,45.565,14.735,44.834z"/>
	<path d="M68.74,20.21c0.785-0.392,1.577-0.783,2.397-1.089c0.983-0.366,1.648-0.676,2.06-1.065l-1.148,0.272l-4.389,2.058
		C67.947,20.478,68.307,20.426,68.74,20.21z"/>
	<path d="M9.941,51.198c0.043-0.016,0.083-0.038,0.127-0.052c0.722-0.24,1.348-0.84,1.95-1.355c0.931-0.797,0.762-1.9-0.316-2.414
		c-0.355-0.17-0.831-0.237-1.343-0.231c-0.665,1.334-1.31,2.69-1.31,2.932C9.049,50.161,9.386,50.574,9.941,51.198z"/>
	<path d="M56.262,34.819c0.015,0.006,0.029,0.014,0.044,0.02c0.011,0.005,0.023,0.008,0.034,0.013
		c0.008-0.023,0.01-0.044,0.02-0.067C56.328,34.797,56.294,34.807,56.262,34.819z"/>
	<path d="M63.446,22.912c-2.505,0.737-4.814,1.895-7.091,3.126L63.446,22.912z"/>
	<path d="M66.989,28.29c0.023-0.006,0.046-0.007,0.069-0.014c0.008,0.001,0.016,0.001,0.023,0.002
		c-0.004-0.02-0.004-0.043-0.01-0.062C67.044,28.241,67.016,28.264,66.989,28.29z"/>
	<path d="M91.98,26.748l-0.431-0.67l-1.709-1.421c-1.38-0.175-2.621-0.662-3.744-1.586c-0.238-0.195-0.557-0.304-0.852-0.415
		c-0.399-0.15-0.825-0.145-1.066,0.246c-0.244,0.396-0.037,0.76,0.278,1.052c0.773,0.717,1.852,0.912,2.658,1.45
		c0.1,0.821-0.49,1.035-0.917,1.349c-0.386,0.283-0.801,0.528-1.216,0.769c-2.333,1.357-4.745,2.542-7.003,4.073
		c-2.287,1.551-4.96,2.562-7.526,3.665c-3.224,1.385-6.355,2.916-9.427,4.626c-3.833,2.134-7.873,3.893-11.794,5.872
		c-1.853,0.936-3.685,1.932-5.446,3.031c-4.902,3.059-10.276,5.16-15.438,7.688c-0.903,0.443-1.886,0.937-2.977,0.671
		c-0.64-0.156-1.267-0.434-1.321-1.197c-0.055-0.771,0.631-0.784,1.149-0.95c2.75-0.88,5.188-2.158,6.239-5.103
		c0.24-0.673,0.329-1.399,0.543-2.083c0.507-1.621,1.357-1.959,2.592-0.76c1.434,1.391,3.055,1.734,4.846,1.353
		c2.37-0.504,4.23-1.791,5.307-4.057c0.856-1.803,0.87-1.796,2.782-1.286c2.966,0.792,7.155-0.783,8.94-3.344
		c0.694-0.996,0.871-2.041,0.364-3.161c-0.25-0.55-0.705-1.039-0.471-1.708c-0.011-0.005-0.023-0.008-0.034-0.013
		c-0.015-0.005-0.029-0.014-0.044-0.02c-0.783,0.283-1.695,0.371-2.131,1.22c-0.947,1.841-2.696,2.369-4.497,2.816
		c-0.774,0.192-1.553,0.389-2.342,0.48c-0.693,0.081-1.494,0.209-1.868-0.646c-0.381-0.87-0.394-1.808,0.373-2.423
		c2.392-1.918,5.173-2.788,8.229-2.667c0.888,0.035,1.427,0.918,2.236,1.22c0.033-0.012,0.066-0.022,0.098-0.034
		c-0.01,0.023-0.012,0.044-0.02,0.067c0.358,0.143,0.747,0.244,1.041,0.469c3.334,2.548,8.902,1.553,11.08-2.033
		c0.452-0.743,0.719-1.573,0.631-2.501c-0.101-1.069-0.799-1.459-1.681-1.746c-0.352-0.115-0.269-0.481-0.33-0.763
		c-0.008-0.001-0.016-0.001-0.023-0.002c-0.023,0.007-0.046,0.008-0.069,0.014c-0.77,0.73-1.593,1.391-2.33,2.178
		c-1.454,1.551-3.408,2.342-5.504,2.692c-1.517,0.253-2.302-0.169-2.668-1.332c-0.384-1.223-0.035-2.038,1.233-2.749
		c2.193-1.229,4.577-1.25,6.994-1.096c0.769,0.049,1.48,0.516,2.275,0.307c0.027-0.025,0.055-0.049,0.082-0.074
		c0.006,0.019,0.006,0.042,0.01,0.062c2.496,0.226,5.027-0.119,7.457,0.829c1.511,0.591,3.009,0.088,4.351-0.736
		c2.549-1.566,4.5-3.574,4.73-6.763c0.064-0.898,0.077-1.834-1.058-2.115c-0.902-0.224-2.423,0.701-2.458,1.679
		c-0.042,1.178-0.795,1.716-1.539,2.267c-2.153,1.594-4.641,2.473-7.196,3.177c-0.303,0.084-0.636,0.098-0.952,0.084
		c-0.965-0.042-1.966-0.031-2.344-1.222c-0.245-0.774,0.231-2.75,0.957-3.009c3.037-1.086,5.459-3.604,8.874-3.794
		c0.557-0.031,1.114-0.121,1.66-0.235c0.321-0.067,0.575-0.287,0.513-0.67c-0.059-0.365-0.361-0.578-0.675-0.566
		c-0.551,0.02-1.1,0.14-1.646,0.239c-0.953,0.173-1.495,0.217-1.902-0.016l-2.656,0.629c-0.412,0.389-1.077,0.699-2.06,1.065
		c-0.82,0.306-1.612,0.697-2.397,1.089c-0.433,0.216-0.793,0.269-1.08,0.176l-16.902,7.926c-0.014,0.44-0.397,0.789-1.202,1.157
		c-0.286,0.131-0.609,0.179-0.912,0.274c-4.279,1.336-8.466,2.923-12.4,5.074c-6.956,3.803-14.577,6.16-21.51,10.017
		c-1.315,0.732-2.274,0.549-3.03-0.326c-0.216,0.414-0.785,1.513-1.346,2.637c0.511-0.006,0.987,0.062,1.343,0.231
		c1.078,0.514,1.247,1.617,0.316,2.414c-0.602,0.515-1.228,1.115-1.95,1.355c-0.044,0.015-0.084,0.037-0.127,0.052
		c0.668,0.751,1.654,1.811,2.772,2.992c0.229-0.069,0.502-0.037,0.741-0.073c3.444-0.517,6.432,0.723,9.281,2.447
		c0.45,0.272,1.137,0.68,0.744,1.288c-0.466,0.719-1.113,0.293-1.618-0.141c-0.231-0.198-0.33-0.558-0.931-0.559
		c-0.37,2.586-1.023,2.92-3.394,1.729c-0.217-0.109-0.432-0.222-0.648-0.333c1.197,1.239,2.288,2.36,3.051,3.143
		c0.358-0.077,0.736,0.017,1.151,0.257c2.806,1.62,5.554,1.13,8.193-0.39c1.318-0.759,2.709-1.369,4.022-2.116
		c0.649-0.37,1.283-0.584,1.924-0.637l15.699-8.776c2.063-0.865,4.095-1.805,6.127-2.743l17.422-8.504
		c1.152-0.722,2.328-1.404,3.49-2.108l13.724-8.351C91.881,27.839,91.569,27.169,91.98,26.748z M48.797,40.74
		c1.788-0.801,3.59-1.573,5.387-2.354c0.1,0.166,0.201,0.331,0.301,0.496c-1.285,1.818-3.135,2.72-5.322,3.067
		c-0.337,0.053-0.644-0.035-0.744-0.416C48.326,41.176,48.502,40.872,48.797,40.74z M67.334,30.548
		c-0.444,3.297-3.604,5.166-7.734,4.51C62.399,33.398,65.042,32.272,67.334,30.548z M75.73,26.627
		c1.51-0.827,3.027-1.64,4.542-2.458c0.13,0.166,0.261,0.331,0.391,0.497c-0.908,1.712-2.425,2.747-4.241,3.404
		c-0.471,0.17-0.974-0.002-1.198-0.518C75.015,27.073,75.378,26.82,75.73,26.627z M42.654,44.622
		c-0.735,1.665-3.205,2.658-5.451,1.969c1.669-1.052,3.055-1.933,4.449-2.799c0.272-0.169,0.586-0.241,0.877-0.022
		C42.842,44.006,42.782,44.333,42.654,44.622z M44.988,41.804c-1.038-1.393-1.796-1.09-2.723-0.035
		c-0.829,0.944-1.957,1.615-3.099,2.224c-2.298,1.225-4.428,1.034-6.506-0.493c-0.665-0.488-0.613-0.884,0.033-1.245
		c0.411-0.229,0.88-0.371,1.337-0.502c2.459-0.703,4.925-1.377,7.381-2.089c0.864-0.251,1.714-0.306,2.604-0.175
		C45.178,39.66,45.484,40.286,44.988,41.804z M66.087,23.934c0.434,0.68,0.561,1.483,0.337,2.259
		c-0.125,0.431-0.636,0.497-1.018,0.396c-1.694-0.446-3.464,0.035-5.207-0.791c1.597-0.656,3.191-1.32,4.794-1.961
		C65.358,23.691,65.838,23.543,66.087,23.934z M56.356,26.038c2.277-1.231,4.586-2.389,7.091-3.126l1.919-0.846
		c-0.497,0.255-0.98,0.577-1.51,0.721c-0.138,0.038-0.272,0.085-0.409,0.125L56.356,26.038c-0.682,0.369-1.362,0.743-2.043,1.114
		c-0.748,0.407-1.263,0.599-1.735,0.552L56.356,26.038z M17.071,50.794c0.143,1.093-0.133,1.484-1.254,1.312
		c-0.932-0.144-1.885-0.158-3.196-0.258c1.258-1.569,2.522-2.726,2.252-4.645c-0.117-0.827,0.705-1.153,1.305-1.554
		c2.813-1.88,5.958-3.086,9.052-4.36c3.846-1.584,7.636-3.273,11.315-5.207c4.539-2.386,9.326-4.179,14.129-5.929
		c1.38-0.503,2.619-1.434,3.921-1.643c0.468,0.385,0.428,0.627,0.403,0.864c-0.283,2.717-0.287,2.685-2.941,2.963
		c-1.836,0.192-3.621,0.664-5.31,1.41c-1.022,0.452-2.198,0.982-2.428,2.155c-0.313,1.596-1.504,2.028-2.7,2.337
		c-2.705,0.698-5.452,1.23-8.184,1.82c-0.468,0.101-0.953,0.125-1.42,0.231c-1.947,0.441-2.194,0.898-1.55,2.812
		c0.426,1.266,0.205,1.657-1.251,1.787c-2.069,0.184-4.146,0.282-6.221,0.376c-1.314,0.059-2.506,0.476-3.645,1.084
		C17.296,47.446,16.76,48.41,17.071,50.794z M19.159,49.638c-0.252-0.481,0.011-0.934,0.415-1.24
		c0.312-0.237,0.657-0.471,1.025-0.589c2.456-0.789,4.94-1.337,7.547-0.7c-2.471,1.493-5.203,2.162-7.922,2.856
		C19.832,50.066,19.355,50.013,19.159,49.638z M22.805,53.756c-0.374,0-0.453,0.005-0.532,0c-1.035-0.075-2.5-0.08-2.61-1.153
		c-0.126-1.23,1.413-1.219,2.35-1.409c1.964-0.398,3.748-1.304,5.653-1.854c0.513-0.148,1.101-0.601,1.535-0.054
		c0.487,0.615-0.004,1.2-0.371,1.709c-1.146,1.587-2.815,2.265-4.66,2.604C23.625,53.699,23.067,53.727,22.805,53.756z
		 M33.103,57.511c-2.332,1.505-4.768,2.818-7.426,3.641c-0.369,0.114-0.73,0.162-1.081,0.155c-0.866,0.054-1.673-0.257-2.36-1
		c0.308-0.364,0.614-0.41,0.909-0.384c0.266-0.03,0.525,0.048,0.773,0.074c0.925-0.085,1.705-0.316,2.565-0.858
		c1.793-1.13,3.823-1.886,5.77-2.763c0.162-0.073,0.337-0.099,0.498-0.073c0.297-0.053,0.593,0.041,0.726,0.426
		C33.602,57.088,33.381,57.331,33.103,57.511z M89.603,28.732c-2.976,1.184-5.558,3.123-8.509,4.378
		c-1.671,0.711-3.199,1.797-4.72,2.82c-4.397,2.955-9.105,5.4-14.017,7.24c-4.844,1.814-9.151,4.68-14.024,6.418
		c-2.586,0.922-4.842,2.755-7.269,4.138c-1.179,0.672-2.399,1.275-3.62,1.87c-0.495,0.241-1.012,0.526-1.595,0.433
		c-0.318-0.051-0.603-0.233-0.712-0.57c-0.113-0.35,0.039-0.642,0.329-0.809c0.899-0.518,1.779-1.093,2.732-1.49
		c4.447-1.855,8.317-4.749,12.584-6.928c5.746-2.933,11.486-5.879,17.203-8.867c3.25-1.699,6.43-3.583,9.919-4.723
		c2.942-0.962,5.331-2.804,7.937-4.309c1.028-0.594,2.054-1.261,3.326-1.229c0.513,0.013,0.942,0.133,1.077,0.638
		C90.231,28.259,89.997,28.573,89.603,28.732z"/>
</g>
</svg>
