<?xml version="1.0" encoding="iso-8859-1"?>
<!-- Generator: Adobe Illustrator 21.0.2, SVG Export Plug-In . SVG Version: 6.00 Build 0)  -->
<!DOCTYPE svg PUBLIC "-//W3C//DTD SVG 1.1//EN" "http://www.w3.org/Graphics/SVG/1.1/DTD/svg11.dtd">
<svg version="1.1" id="Layer_1" xmlns="http://www.w3.org/2000/svg" xmlns:xlink="http://www.w3.org/1999/xlink" x="0px" y="0px"
	 viewBox="0 0 101.967 80.938" style="enable-background:new 0 0 101.967 80.938;" xml:space="preserve">
<g>
	<path style="fill:#FFFFFF;" d="M59.282,24.015c-0.875-0.125-5.25,2.5-6.375,3.125s-7.25,0.125-11.375,1.625
		s-15.25,4.375-18.375,6.5s-7.25,5.125-7.375,6.25s-2.25,5.5,1.375,7.25s9.875,4,10.375,4.75s1.625,2.375,2.25,2.875
		s4.75,1.25,6.625,1.25s17.375-2,21.25-3.375s16.625-4.75,22.25-9.5s7-7.25,7-8.75s-4.25-6-7.875-7.5s-6.875-2-8.125-2
		s-5.25,0.625-5.875,0.875s-1.375,0-2.875-1.125S59.282,24.015,59.282,24.015z"/>
	<path d="M41.51,28.267c1.787-0.433,8.902-1.126,10.618-1.589c0.371-0.1,0.817,0.028,0.939,0.519
		c0.095,0.382-0.166,0.598-0.464,0.727c-3.156,1.368-5.262,4.087-7.875,6.15c-3.572,2.82-7.027,5.788-10.533,8.693
		c-0.123,0.102-0.234,0.229-0.373,0.299c-0.484,0.246-1.067,0.712-1.47,0.068c-0.321-0.513,0.268-0.844,0.649-1.103
		c2.85-1.941,5.376-4.28,8.01-6.487c0.348-0.292,0.876-0.464,0.814-1.245c-2.153,0.273-4.123,1.092-6.068,1.893
		c-3.106,1.28-5.987,2.957-8.608,5.101c-1.685,1.378-1.621,3.134,0.959,3.762c2.043,0.497,4.247,0.899,6.381,0.105
		c0.606-0.225,1.21-0.394,1.869-0.333c1.021,0.095,1.592,0.61,1.633,1.655c-2.289,0.12-4.581,0.192-6.862,0.383
		c-1.308,0.11-2.568-0.095-3.794-0.409c-2.932-0.752-3.699-3.514-1.589-5.698c0.713-0.738,1.589-1.339,2.45-1.911
		c3.418-2.271,7.107-3.992,11.027-5.188c1.292-0.394,2.498-1.065,3.894-1.148c2.083-0.124,5.094-2.26,6.314-4.492
		c-1.843,0.003-3.496,0.551-5.159,0.993c-4.165,1.106-8.31,2.29-12.485,3.354c-3.201,0.816-6.267,1.88-8.902,3.949
		c-0.251,0.197-0.515,0.393-0.802,0.523c-2.593,1.173-4.301,3.188-5.667,5.632c-1.449,2.593-1.14,4.308,1.452,5.721
		c3.8,2.071,7.779,3.724,12.017,4.688c0.933,0.212,1.873,0.323,2.847,0.322c3.924-0.001,7.73-1.421,11.721-0.842
		c1.204,0.175,2.521-0.297,3.767-0.561c6.723-1.421,13.487-2.716,19.604-6.098c0.407-0.225,0.928-0.487,1.341-0.415
		c1.426,0.251,2.455-0.543,3.53-1.192c0.955-0.577,1.783-1.387,2.773-1.878c3.955-1.96,5.369-5.064,4.908-9.415
		c-0.216-2.036-1.084-3.279-2.712-4.153c-0.981-0.526-2.059-0.852-3.185-1.012c-2.156-0.307-4.314-0.201-6.459,0.008
		c-0.683,0.067-1.914-0.248-1.915,0.825c-0.001,0.905,1.147,0.871,1.905,1.066c2.415,0.62,4.666,1.668,6.81,2.901
		c1.661,0.955,1.745,2.413,0.394,3.743c-0.454,0.447-0.922,0.883-1.409,1.293c-1.052,0.886-2.328,1.392-3.532,2.015
		c-0.381,0.197-0.879,0.206-1.073-0.178c-0.298-0.592,0.253-0.826,0.676-1.035c0.285-0.141,0.592-0.251,0.902-0.324
		c1.199-0.28,2.166-1.042,3.175-1.654c1.876-1.137,1.733-2.851-0.279-3.718c-1.239-0.534-2.568-0.872-3.874-1.236
		c-1.884-0.525-2.125-0.316-1.964,1.579c0.251,2.935-0.65,5.461-2.505,7.747c-3.44,4.238-8.068,6.502-13.184,7.731
		c-4.143,0.995-8.397,1.059-12.58-0.114c-0.939-0.263-1.94-0.488-1.63-1.86c0.641-0.166,1.224-0.052,1.86,0.169
		c8.525,2.954,18.777,0.253,24.593-6.731c1.369-1.644,2.035-3.608,2.138-5.745c0.023-0.474,0.005-0.977-0.129-1.427
		c-0.243-0.817-0.418-2.059-1.362-2.002c-1.213,0.074-0.774,1.335-0.772,2.138c0.009,3.587-2.122,5.888-4.698,7.93
		c-0.121,0.096-0.283,0.157-0.436,0.192c-0.317,0.073-0.664,0.108-0.885-0.177c-0.354-0.456-0.002-0.748,0.34-0.94
		c2.382-1.337,3.539-3.59,4.503-5.984c0.433-1.076,0.559-2.197,0.052-3.269c-1.042-2.207-1.559-4.723-4.107-6.449
		c1.491-0.215,1.948,0.645,2.458,1.174c1.233,1.278,2.561,1.623,4.305,1.165c4.102-1.076,8.09-0.111,12.045,0.958
		c2.575,0.696,3.829,2.649,4.142,5.061c0.5,3.846-0.27,7.213-3.828,9.655c-2.51,1.723-5.008,3.508-7.708,4.827
		c-3.786,1.849-7.812,3.148-12.044,3.801c-3.309,0.511-6.558,1.415-9.832,2.154c-1.324,0.299-2.636,0.65-3.963,0.933
		c-8.086,1.723-15.886,0.709-23.455-2.477c-0.811-0.341-1.622-0.68-2.441-1.002c-1.886-0.743-2.724-1.53-4.224-2.946
		c0,0,0.083,0.417-0.417-0.5c-0.5-0.917-0.083-2.833-0.083-2.833c0.583-1.083,2.169-4.993,3.151-5.796
		c2.117-1.731,4.602-2.874,6.815-4.455c2.381-1.701,5.302-2.169,8.051-2.998c1.823-0.549,3.661-1.046,5.389-1.537"/>
	<path d="M44.907,57.932c-3.75,0.833-13.668,0.356-13.668,0.356c-0.295-0.746-1.714-1.031-2.597-1.567
		c-0.415-0.252-0.799-0.644-0.579-1.178c0.299-0.727,1.032-0.582,1.43-0.296c3.275,2.355,6.897,1.303,10.442,1.205
		c5.135-0.143,10.135-1.124,15.157-2.09c8.295-1.596,15.88-4.846,22.884-9.474c2.529-1.671,4.83-3.671,6.29-6.454
		c0.404-0.771,0.952-1.474,1.486-2.168c0.354-0.461,0.877-0.829,1.429-0.388c0.494,0.394,0.076,0.88-0.136,1.277
		c-1.68,3.146-3.861,5.876-6.81,7.922c-8.131,5.642-17.012,9.454-26.844,10.935c-2.596,0.391-5.162,0.934-7.926,1.771
		C45.465,57.783,44.907,58.015,44.907,57.932z"/>
</g>
</svg>
