<?xml version="1.0" encoding="iso-8859-1"?>
<!-- Generator: Adobe Illustrator 21.0.2, SVG Export Plug-In . SVG Version: 6.00 Build 0)  -->
<!DOCTYPE svg PUBLIC "-//W3C//DTD SVG 1.1//EN" "http://www.w3.org/Graphics/SVG/1.1/DTD/svg11.dtd">
<svg version="1.1" id="Layer_1" xmlns="http://www.w3.org/2000/svg" xmlns:xlink="http://www.w3.org/1999/xlink" x="0px" y="0px"
	 viewBox="0 0 101.967 80.938" style="enable-background:new 0 0 101.967 80.938;" xml:space="preserve">
<g>
	<g>
		<path style="fill:#FFFFFF;" d="M37.751,31.338c-1,2.833-2.667,8-2.667,8s-2,6.667-1.667,8.667s1.333,6,4.833,7.833
			s11.5,2,15.667-0.833s8.167-6.667,8.167-6.667s5.167-5.833,7-13.667c1.833-7.833,1.667-10.833,1.667-10.833s-2-1.167-6-1
			s-8.667,0.667-10,1s-11.333,4-11.333,4l-5,2.167L37.751,31.338z"/>
	</g>
	<g>
		<path style="fill:none;" d="M69.631,49.163c-0.03,0.198-0.07,0.392-0.118,0.585C69.561,49.556,69.602,49.361,69.631,49.163
			C69.632,49.163,69.632,49.163,69.631,49.163z"/>

			<ellipse transform="matrix(0.4657 -0.8849 0.8849 0.4657 -10.0091 50.3555)" style="fill:#FFFFFF;" cx="36.697" cy="33.467" rx="0.007" ry="0.003"/>
		<path style="fill:#FFFFFF;" d="M46.752,25.869c-0.286,0.231-2.355,1.203-3.032,1.355c-0.007,0.001-0.013,0.004-0.02,0.005
			c0.007-0.002,0.014-0.003,0.021-0.005C44.398,27.072,46.467,26.1,46.752,25.869c-0.083-0.084-0.152-0.203-0.253-0.248
			c-0.114-0.05-0.232-0.088-0.351-0.115c0.118,0.027,0.235,0.065,0.349,0.115C46.599,25.665,46.668,25.784,46.752,25.869z"/>
		<path d="M53.211,24.265c0.766,0.096,1.506,0.062,2.224-0.189C54.716,24.326,53.976,24.36,53.211,24.265z"/>
		<path d="M60.767,46.625c-0.127,0.034-0.25,0.087-0.37,0.148C60.517,46.711,60.64,46.659,60.767,46.625z"/>
		<path d="M48.004,43.189c0.039-0.108,0.047-0.235,0.051-0.364l0,0C48.052,42.953,48.044,43.08,48.004,43.189z"/>
		<path d="M57.825,23.403c0.945-0.09,1.896-0.107,2.845-0.033l0,0C59.72,23.295,58.77,23.313,57.825,23.403z"/>
		<path d="M59.619,40.016c0.426-0.229,0.873-0.416,1.304-0.635c0.288-0.146,0.575-0.297,0.843-0.475
			c0.166-0.11,0.274-0.233,0.321-0.358c-0.049,0.121-0.155,0.24-0.317,0.348c-0.268,0.178-0.555,0.33-0.843,0.475
			c-0.431,0.218-0.879,0.406-1.304,0.635c-0.21,0.113-0.321,0.233-0.334,0.349C59.307,40.242,59.414,40.126,59.619,40.016z"/>
		<path d="M54.675,49.13c0.264-0.095,0.523-0.211,0.776-0.353c-0.001,0.001-0.003,0.001-0.004,0.002
			C55.195,48.921,54.938,49.036,54.675,49.13z"/>
		<path d="M49.894,33.07c0.48-0.019,0.958-0.085,1.437-0.13c1.46-0.886,3.125-0.609,4.702-0.829c0.476-0.066,0.937-0.178,1.399-0.34
			c3.15-1.105,4.178-1.51,6.658-2.77c1.288-0.654,2.568-1.325,3.845-2.002c0.001-0.001,0.002-0.002,0.004-0.003
			c-1.275,0.677-2.554,1.347-3.843,2.001c-2.48,1.26-3.508,1.665-6.658,2.77c-0.462,0.162-0.923,0.274-1.399,0.34
			c-1.577,0.22-3.242-0.057-4.702,0.829c-0.479,0.045-0.957,0.111-1.437,0.13c-2.574,0.102-5.149,0.189-7.723,0.296
			c-0.073,0.003-0.152,0.033-0.225,0.076c0.072-0.041,0.149-0.07,0.219-0.072C44.745,33.259,47.32,33.172,49.894,33.07z"/>
		<path d="M36.515,39.604c0.581,0.308,1.185,0.502,1.841,0.483c0.965-0.027,1.932-0.045,2.892-0.132
			c1.126-0.103,2.25-0.138,3.375-0.045c0.313,0.026,0.615,0.158,0.925,0.233c0.418,0.101,0.511,0.331,0.396,0.735
			c-0.082,0.284-0.211,0.537-0.526,0.633c0.321-0.094,0.452-0.349,0.533-0.636c0.115-0.404,0.022-0.634-0.396-0.735
			c-0.309-0.075-0.612-0.207-0.925-0.233c-1.125-0.093-2.249-0.058-3.375,0.045c-0.96,0.087-1.927,0.105-2.892,0.132
			c-0.656,0.018-1.26-0.175-1.841-0.483c-0.259-0.137-0.448-0.168-0.588-0.091C36.073,39.437,36.26,39.469,36.515,39.604z"/>
		<path d="M38.728,42.217c-0.153,0.226-0.208,0.576-0.026,0.868c0.26,0.417,0.719,0.673,1.203,0.692
			c1.086,0.043,2.175,0.017,3.263,0.017c0-0.001,0.001-0.002,0.001-0.003c-1.086,0.001-2.174,0.026-3.257-0.017
			c-0.484-0.019-0.943-0.275-1.203-0.692c-0.183-0.292-0.127-0.643,0.026-0.868c0.084-0.123,0.24-0.239,0.384-0.272
			c0,0-0.001,0-0.002,0C38.972,41.974,38.813,42.092,38.728,42.217z"/>
		<path d="M36.903,47.958c-0.019,0.098,0.144,0.271,0.263,0.344c0.122,0.075,0.299,0.111,0.442,0.091
			c0.688-0.096,1.007-0.739,1.54-1.071c0.87-0.542,1.791-0.682,2.762-0.346c0.302,0.104,0.568,0.305,0.864,0.432
			c0.388,0.166,1.107,0.018,1.285-0.35c0.631-1.303,1.681-1.367,2.855-0.987c0.483,0.156,0.908,0.189,1.361-0.04
			c0.576-0.29,1.166-0.552,1.74-0.846c0.627-0.322,1.237-0.254,1.845,0.031c0.323,0.152,0.623,0.179,0.909,0.04
			c0.435-0.21,0.857-0.45,1.349-0.509c1.291-0.155,2.426-0.869,3.712-1.041c1.734-0.864,3.655-1.242,5.397-2.078
			c0.278-0.134,0.518-0.378,0.73-0.612c0.067-0.074,0.117-0.148,0.153-0.223c-0.036,0.071-0.085,0.142-0.149,0.213
			c-0.212,0.234-0.451,0.478-0.73,0.612c-1.742,0.836-3.663,1.215-5.397,2.078c-1.286,0.172-2.421,0.885-3.712,1.041
			c-0.492,0.059-0.915,0.299-1.349,0.509c-0.286,0.138-0.586,0.111-0.909-0.04c-0.608-0.285-1.219-0.353-1.845-0.031
			c-0.573,0.295-1.164,0.556-1.74,0.846c-0.453,0.229-0.878,0.196-1.361,0.04c-1.174-0.38-2.224-0.315-2.855,0.987
			c-0.178,0.368-0.897,0.516-1.285,0.35c-0.296-0.127-0.562-0.327-0.864-0.432c-0.971-0.336-1.892-0.196-2.762,0.346
			c-0.533,0.332-0.852,0.975-1.54,1.071c-0.143,0.02-0.32-0.016-0.442-0.091c-0.119-0.073-0.282-0.246-0.263-0.344
			c0.153-0.79,0.345-1.573,0.524-2.359c-0.001,0.003-0.003,0.006-0.004,0.01C37.247,46.384,37.056,47.167,36.903,47.958z"/>
		<path d="M38.351,33.257c0.543,0.064,0.54,0.069,0.968,0.904c0.36,0.702,0.839,0.912,1.346,0.623
			c-0.505,0.284-0.981,0.072-1.34-0.627c-0.428-0.834-0.425-0.84-0.968-0.904c-0.282-0.034-0.564-0.06-0.846-0.088
			c0,0.002,0,0.003,0,0.005C37.79,33.198,38.071,33.225,38.351,33.257z"/>
		<path d="M43.039,44.113c0.046-0.09,0.088-0.204,0.129-0.32l0,0C43.126,43.909,43.085,44.022,43.039,44.113z"/>
		<path d="M44.11,28.47c0.424-0.212,0.938-0.235,1.38-0.419c0.889-0.371,1.769-0.767,2.627-1.205c0.589-0.3,1.2-0.433,1.846-0.488
			c0.641-0.055,1.282-0.126,1.863-0.444c0.574-0.314,1.185-0.483,1.842-0.506c0.483-0.017,0.965-0.054,1.446-0.103
			c0.319-0.032,0.685-0.014,0.945-0.165c1.166-0.678,2.466-0.672,3.739-0.823c0.212-0.025,0.369-0.091,0.512-0.235
			c-0.141,0.141-0.297,0.206-0.506,0.232c-1.272,0.151-2.573,0.144-3.739,0.823c-0.26,0.151-0.625,0.133-0.945,0.165
			c-0.481,0.048-0.963,0.086-1.446,0.103c-0.657,0.023-1.268,0.191-1.842,0.506c-0.581,0.318-1.222,0.389-1.863,0.444
			c-0.646,0.055-1.257,0.187-1.846,0.488c-0.858,0.437-1.738,0.834-2.627,1.205c-0.442,0.184-0.957,0.207-1.38,0.419
			c-0.863,0.432-1.75,0.803-2.639,1.171c-0.049,0.021-0.103,0.052-0.157,0.091c0.053-0.037,0.104-0.067,0.152-0.087
			C42.361,29.273,43.247,28.902,44.11,28.47z"/>
		<path d="M54.398,28.58c0.868-0.374,1.85-0.344,2.794-0.118c0.491,0.118,0.822,0.44,1.067,0.856
			c0.072,0.122,0.151,0.31,0.105,0.414c-0.027,0.062-0.085,0.123-0.153,0.172c0.069-0.049,0.127-0.111,0.156-0.173
			c0.046-0.104-0.033-0.292-0.105-0.414c-0.245-0.416-0.576-0.738-1.067-0.856c-0.944-0.226-1.925-0.256-2.794,0.118
			c-1.019,0.439-2.105,0.658-3.11,1.111c-0.432,0.195-0.858,0.402-1.279,0.619l0,0c0.42-0.217,0.846-0.424,1.277-0.618
			C52.293,29.238,53.379,29.019,54.398,28.58z"/>
		<path d="M59.077,47.549c-0.503,0.245-1.004,0.501-1.523,0.707c0.521-0.206,1.024-0.463,1.53-0.71
			c0.432-0.211,0.822-0.506,1.242-0.745c-0.002,0.001-0.005,0.001-0.007,0.003C59.899,47.043,59.51,47.339,59.077,47.549z"/>
		<path d="M37.618,50.88c0.218,0.44,0.524,0.823,0.916,1.101c0.25,0.178,0.581,0.304,0.887,0.333
			c2.087,0.201,4.181,0.201,6.274,0.109c0.314-0.014,0.657-0.068,0.93-0.212c0.001-0.001,0.003-0.001,0.005-0.002
			c-0.273,0.143-0.615,0.197-0.928,0.211c-2.093,0.092-4.186,0.092-6.274-0.109c-0.306-0.029-0.636-0.156-0.887-0.333
			c-0.392-0.278-0.698-0.661-0.916-1.101c-0.239-0.483,0.132-1.142,0.653-1.301C37.753,49.731,37.378,50.395,37.618,50.88z"/>
		<path d="M51.896,51.129c-0.794,0.287-1.612,0.446-2.467,0.459c-0.736,0.011-1.448,0.093-2.131,0.331
			c0.681-0.236,1.39-0.318,2.124-0.328C50.28,51.578,51.1,51.418,51.896,51.129z"/>
		<path d="M59.189,49.91c0.056,0.076,0.014,0.273-0.048,0.377c-0.419,0.704-1.035,1.23-1.677,1.71
			c-0.9,0.675-1.809,1.347-2.77,1.927c-0.548,0.33-1.099,0.662-1.675,0.94c0.578-0.279,1.131-0.611,1.682-0.943
			c0.962-0.58,1.87-1.253,2.77-1.927c0.641-0.48,1.257-1.007,1.677-1.71c0.062-0.104,0.103-0.301,0.048-0.377
			c-0.087-0.118-0.265-0.24-0.404-0.238c-0.961,0.011-1.934-0.044-2.829,0.431c-0.001,0-0.001,0.001-0.002,0.001
			c0.894-0.471,1.865-0.418,2.824-0.429C58.923,49.67,59.102,49.792,59.189,49.91z"/>
		<path d="M55.517,50.296c-0.452,0.161-0.928,0.233-1.411,0.28c-0.479,0.047-1.006,0.028-1.422,0.225
			c-0.002,0.001-0.004,0.001-0.006,0.002c0.417-0.196,0.942-0.179,1.421-0.225C54.585,50.531,55.064,50.459,55.517,50.296z"/>
		<path d="M66.402,23.395c0.965-0.007,1.93,0.035,2.895,0.054c0.438,0.009,0.897,0.47,0.939,0.909
			c0.077,0.805,0.197,1.657-0.135,2.385c-0.553,1.212-0.641,2.482-0.754,3.762c-0.057,0.647-0.223,1.26-0.459,1.866
			c-0.174,0.445-0.375,0.918-0.386,1.382c-0.036,1.495-0.971,2.723-1.164,4.163c-1.008,2.365-2.052,4.714-3.379,6.921
			c-0.244,0.406-0.626,0.73-0.951,1.085c-0.203,0.222-0.458,0.359-0.74,0.445c0.285-0.086,0.542-0.223,0.747-0.448
			c0.325-0.355,0.707-0.679,0.951-1.085c1.327-2.207,2.372-4.556,3.379-6.921c0.193-1.44,1.128-2.667,1.164-4.163
			c0.011-0.465,0.213-0.937,0.386-1.382c0.236-0.605,0.402-1.218,0.459-1.866c0.112-1.28,0.2-2.549,0.754-3.762
			c0.332-0.728,0.212-1.58,0.135-2.385c-0.042-0.439-0.501-0.9-0.939-0.909c-0.965-0.019-1.93-0.061-2.895-0.054
			c-1.908,0.014-3.815,0.053-5.723,0.082c0,0.001-0.001,0.002-0.001,0.003C62.59,23.448,64.496,23.409,66.402,23.395z"/>
		<path d="M71.327,28.42c-0.062,1.148-0.729,2.136-0.786,3.279c-0.024,0.482-0.085,0.965-0.168,1.441
			c-0.082,0.473-0.131,0.976-0.335,1.398c-0.634,1.314-0.641,2.838-1.417,4.096c-0.458,2.243-1.505,4.245-2.688,6.158
			c-1.268,2.051-2.641,4.044-4.51,5.633c-0.613,0.521-1.161,1.119-1.751,1.667c-0.354,0.329-0.696,0.691-1.106,0.934
			c-1.11,0.66-2.098,1.498-3.188,2.174c-0.951,0.59-2.052,0.94-3.006,1.526c-1.274,0.782-2.836,0.624-4.097,1.388
			c-2.082,0.278-4.168,0.443-6.263,0.15c-0.317-0.044-0.669-0.061-0.934-0.213c-0.982-0.562-2.107-0.79-3.076-1.394
			c-0.685-0.427-1.363-0.842-1.956-1.4c-1.564-1.474-2.519-3.335-3.305-5.28c-0.106-0.263-0.175-0.534-0.219-0.808
			c0.044,0.276,0.113,0.548,0.22,0.813c0.786,1.945,1.741,3.806,3.305,5.28c0.593,0.558,1.271,0.973,1.956,1.4
			c0.968,0.604,2.094,0.831,3.076,1.394c0.266,0.152,0.617,0.169,0.934,0.213c2.095,0.293,4.181,0.128,6.263-0.15
			c1.26-0.764,2.823-0.606,4.097-1.388c0.955-0.586,2.055-0.936,3.006-1.526c1.091-0.676,2.078-1.514,3.188-2.174
			c0.409-0.243,0.752-0.605,1.106-0.934c0.59-0.549,1.138-1.146,1.751-1.667c1.868-1.589,3.241-3.582,4.51-5.633
			c1.183-1.913,2.23-3.915,2.688-6.158c0.776-1.258,0.783-2.783,1.417-4.096c0.204-0.422,0.253-0.925,0.335-1.398
			c0.083-0.476,0.144-0.959,0.168-1.441c0.057-1.143,0.724-2.131,0.786-3.279c0.061-1.123,0.185-2.245,0.329-3.361
			c0-0.002,0-0.004,0-0.007c0,0.001,0,0.001,0,0.002C71.513,26.175,71.388,27.297,71.327,28.42z"/>
		<path d="M51.157,43.534c-0.151,0.05-0.306,0.101-0.463,0.12c-0.481,0.057-0.953,0.009-1.387-0.221
			c-0.385-0.203-0.762-0.424-1.141-0.639l0,0c0.38,0.215,0.757,0.436,1.142,0.64c0.434,0.229,0.906,0.278,1.387,0.221
			C50.852,43.636,51.007,43.585,51.157,43.534c0.362-0.118,0.788-0.836,0.646-1.153c-0.031-0.07-0.072-0.133-0.121-0.19
			c0.048,0.056,0.089,0.119,0.12,0.189C51.944,42.697,51.518,43.416,51.157,43.534z"/>
		<path d="M52.639,55.024c-0.166,0.072-0.329,0.15-0.5,0.21C52.31,55.173,52.473,55.095,52.639,55.024z"/>
		<path d="M49.876,50.147c0.183-0.083,0.369-0.157,0.556-0.224C50.244,49.99,50.059,50.065,49.876,50.147L49.876,50.147z"/>
		<path d="M44.023,43.019c0.003-0.001,0.007-0.001,0.011-0.002C44.03,43.018,44.026,43.018,44.023,43.019z"/>
		<path d="M51.997,31.141c0-0.005,0-0.008,0-0.013c-0.001,0-0.001,0-0.002,0C51.997,31.132,51.997,31.137,51.997,31.141z"/>
		<path d="M52.532,23.865c-0.011,0.206,0.26,0.347,0.642,0.397c0,0,0,0,0.001,0C52.793,24.212,52.522,24.071,52.532,23.865
			c0.007-0.104,0.225-0.26,0.366-0.282c0.799-0.128,1.557-0.341,2.298-0.691c-0.001,0-0.003,0.001-0.004,0.001
			c-0.74,0.349-1.497,0.562-2.295,0.69C52.757,23.605,52.538,23.761,52.532,23.865z"/>
		<path d="M48.055,42.824c-0.289-0.03-0.578-0.047-0.866-0.045C47.477,42.778,47.766,42.794,48.055,42.824L48.055,42.824z"/>
		<path d="M36.824,36.283c0,0.001,0,0.002-0.001,0.003c0.139-0.254,0.258-0.513,0.359-0.775
			C37.081,35.773,36.962,36.03,36.824,36.283z"/>
		<path d="M52.667,39.158c1.024-0.45,1.965-1.08,3.123-1.239c0.954-0.131,1.727-0.856,2.725-0.945
			c0.81-0.073,1.443-0.716,2.268-0.778c0.643-0.049,1.292-0.055,1.925-0.161c0.318-0.053,0.51-0.338,0.622-0.592c0,0,0,0,0-0.001
			c-0.112,0.253-0.303,0.53-0.617,0.583c-0.633,0.106-1.282,0.113-1.925,0.161c-0.825,0.062-1.458,0.705-2.268,0.778
			c-0.998,0.09-1.771,0.814-2.725,0.945c-1.158,0.159-2.098,0.789-3.123,1.239c-0.115,0.051-0.189,0.193-0.282,0.292
			c0.001,0.001,0.002,0.001,0.003,0.002C52.482,39.342,52.556,39.207,52.667,39.158z"/>
		<path d="M55.66,41.541c0.022,0.081,0.03,0.157,0.025,0.23C55.69,41.698,55.682,41.621,55.66,41.541
			c-0.033-0.121-0.245-0.307-0.312-0.284c-0.082,0.029-0.151,0.068-0.206,0.116c0.055-0.047,0.124-0.086,0.206-0.115
			C55.415,41.234,55.627,41.42,55.66,41.541z"/>
		<path d="M55.108,41.419c-0.035,0.038-0.07,0.075-0.09,0.12C55.037,41.493,55.073,41.456,55.108,41.419z"/>
		<path d="M70.174,21.605c-1.041,0.485-2.091,0.758-3.254,0.743c-1.611-0.021-3.223,0.075-4.835,0.121
			c-0.664,0.019-1.143,0.308-1.415,0.901l0,0c0.272-0.592,0.751-0.881,1.414-0.9c1.612-0.046,3.224-0.142,4.835-0.121
			C68.082,22.364,69.133,22.091,70.174,21.605c0.023-0.01,0.051-0.016,0.076-0.027c0,0-0.001,0-0.001-0.001
			C70.225,21.588,70.198,21.594,70.174,21.605z"/>
		<ellipse transform="matrix(0.886 -0.4636 0.4636 0.886 -3.9692 30.8072)" cx="60.679" cy="23.477" rx="0.003" ry="0.002"/>
		<path d="M37.506,33.028c0-0.002,0-0.003,0-0.005c-0.036,0.004-0.069,0.013-0.104,0.019c0,0.002,0,0.003,0,0.005
			C37.437,33.042,37.47,33.032,37.506,33.028z"/>
		<path d="M37.506,33.165c0.001,0,0.003,0,0.004,0c-0.004-0.046,0.001-0.09-0.004-0.136l-0.004,0.005
			C37.507,33.078,37.502,33.121,37.506,33.165z"/>
		<path d="M48.149,42.828l-0.078-0.085l0.076,0.086C48.148,42.829,48.149,42.829,48.149,42.828c0.004-0.013,0.013-0.02,0.017-0.034
			c0,0-0.001,0-0.001-0.001C48.161,42.807,48.152,42.815,48.149,42.828z"/>
		<ellipse transform="matrix(0.7224 -0.6915 0.6915 0.7224 -12.5199 35.1445)" cx="37.51" cy="33.165" rx="0.003" ry="0.003"/>
		<path d="M43.333,43.712c0.003-0.004,0.005-0.007,0.008-0.012c-0.044-0.003-0.087-0.009-0.131-0.011
			c-0.001,0.004-0.003,0.006-0.004,0.01l0.001,0.002C43.25,43.704,43.291,43.709,43.333,43.712z"/>
		<path d="M60.682,23.474c0.001,0,0.003,0,0.004,0c0.017-0.037,0.033-0.06,0.051-0.1l-0.007,0.005
			C60.713,23.417,60.699,23.439,60.682,23.474z"/>
		<path d="M37.401,33.048c-0.001,0-0.001,0-0.002,0c-0.001,0.034-0.003,0.068-0.004,0.103l0.002-0.002
			C37.398,33.115,37.4,33.081,37.401,33.048z"/>
		<path d="M60.738,23.372c-0.018-0.001-0.035,0-0.053-0.002C60.702,23.372,60.72,23.371,60.738,23.372L60.738,23.372z"/>
		<path d="M66.92,22.349c-1.611-0.021-3.223,0.075-4.835,0.121c-0.664,0.019-1.142,0.308-1.414,0.9c0.005,0,0.01,0,0.014,0
			c0.018,0.001,0.035,0,0.053,0.002l0,0h0.001l-0.002,0.002c-0.018,0.04-0.033,0.064-0.051,0.1c1.908-0.029,3.815-0.068,5.723-0.082
			c0.965-0.007,1.93,0.035,2.895,0.054c0.438,0.009,0.897,0.47,0.939,0.909c0.077,0.805,0.197,1.657-0.135,2.385
			c-0.554,1.213-0.642,2.482-0.754,3.762c-0.057,0.648-0.223,1.261-0.459,1.866c-0.173,0.445-0.375,0.917-0.386,1.382
			c-0.036,1.496-0.971,2.723-1.164,4.163c-1.007,2.365-2.052,4.714-3.379,6.921c-0.244,0.406-0.626,0.73-0.951,1.085
			c-0.205,0.225-0.462,0.362-0.747,0.448c-0.03,0.009-0.055,0.026-0.085,0.034c-0.462,0.119-0.955,0.101-1.416,0.224
			c-0.127,0.034-0.25,0.087-0.37,0.148c-0.023,0.012-0.048,0.015-0.071,0.028c-0.42,0.239-0.81,0.534-1.242,0.745
			c-0.506,0.246-1.009,0.503-1.53,0.71c-0.522,0.207-1.062,0.363-1.642,0.406c-0.157,0.012-0.327,0.041-0.461,0.115
			c-0.253,0.142-0.512,0.258-0.776,0.353c-0.793,0.286-1.631,0.382-2.482,0.43c-0.609,0.034-1.194,0.161-1.762,0.363
			c-0.187,0.067-0.372,0.142-0.556,0.224l0,0c-0.002,0.001-0.005,0.002-0.007,0.003c-0.596,0.269-1.241,0.342-1.886,0.351
			c-1.61,0.023-3.222-0.002-4.831,0.046c-1.32,0.039-2.556-0.196-3.706-0.859c-0.29-0.167-0.615-0.143-0.938-0.145
			c-0.079,0-0.156,0.011-0.23,0.033c-0.521,0.159-0.892,0.818-0.653,1.301c0.218,0.44,0.524,0.823,0.916,1.101
			c0.251,0.177,0.581,0.304,0.887,0.333c2.088,0.201,4.181,0.201,6.274,0.109c0.313-0.014,0.655-0.068,0.928-0.211
			c0.219-0.115,0.442-0.211,0.668-0.289c0.683-0.238,1.395-0.321,2.131-0.331c0.855-0.013,1.673-0.172,2.467-0.459
			c0.263-0.095,0.523-0.204,0.781-0.326h0.001c0.002-0.001,0.004-0.001,0.006-0.002c0.416-0.197,0.943-0.178,1.422-0.225
			c0.484-0.046,0.96-0.118,1.411-0.28c0.149-0.054,0.296-0.117,0.439-0.193c0.001-0.001,0.003-0.001,0.005-0.002
			c0.001,0,0.001-0.001,0.002-0.001c0.895-0.475,1.868-0.42,2.829-0.431c0.139-0.002,0.317,0.12,0.404,0.238
			c0.055,0.076,0.014,0.273-0.048,0.377c-0.42,0.703-1.036,1.23-1.677,1.71c-0.9,0.674-1.808,1.347-2.77,1.927
			c-0.55,0.332-1.103,0.664-1.682,0.943c-0.124,0.06-0.254,0.105-0.38,0.159c-0.166,0.071-0.329,0.15-0.5,0.21
			c-0.306,0.107-0.621,0.195-0.948,0.255c-0.468,0.086-0.905,0.327-1.367,0.461s-0.933,0.298-1.406,0.321
			c-2.089,0.103-4.177,0.338-6.271,0.079c-0.646-0.08-1.242-0.288-1.839-0.544c-2.67-1.145-4.393-3.177-5.505-5.791
			c-0.124-0.291-0.201-0.615-0.233-0.93c-0.148-1.445-0.138-2.894-0.03-4.342c0.048-0.645,0.127-1.296,0.415-1.875
			c0.442-0.889,0.486-1.862,0.682-2.803c0.062-0.297,0.155-0.48,0.297-0.554c0.14-0.077,0.329-0.046,0.588,0.091
			c0.581,0.308,1.185,0.501,1.841,0.483c0.965-0.027,1.932-0.045,2.892-0.132c1.126-0.103,2.25-0.138,3.375-0.045
			c0.313,0.026,0.616,0.158,0.925,0.233c0.418,0.101,0.511,0.331,0.396,0.735c-0.081,0.287-0.212,0.542-0.533,0.636
			c-0.021,0.006-0.035,0.018-0.057,0.023c-1.106,0.24-2.233,0.268-3.361,0.274c-0.961,0.006-1.93-0.076-2.881,0.134
			c-0.143,0.034-0.3,0.149-0.384,0.272c-0.153,0.225-0.209,0.576-0.026,0.868c0.26,0.417,0.719,0.673,1.203,0.692
			c1.083,0.042,2.171,0.017,3.257,0.017c0.011-0.032,0.025-0.055,0.036-0.089l0,0l0,0c0-0.001,0-0.001,0.001-0.002l0,0
			c0.001-0.004,0.003-0.006,0.004-0.01c0.044,0.002,0.087,0.008,0.131,0.011c0.235-0.379,0.43-0.594,0.682-0.681
			c0.003-0.001,0.007-0.001,0.011-0.002c0.087-0.029,0.181-0.047,0.287-0.051c0.957-0.038,1.911-0.182,2.869-0.187
			c0.288-0.002,0.577,0.015,0.866,0.045c0.001-0.03,0.013-0.054,0.012-0.085l-0.001-0.001c0.033,0.019,0.066,0.037,0.099,0.055
			c0.086-0.326,0.259-0.565,0.547-0.659c0.769-0.251,1.565-0.286,2.362-0.235c0.244,0.016,0.462,0.122,0.608,0.292
			c0.049,0.057,0.09,0.12,0.121,0.19c0.142,0.317-0.284,1.035-0.645,1.154c-0.151,0.05-0.306,0.101-0.463,0.12
			c-0.481,0.057-0.953,0.008-1.387-0.221c-0.386-0.203-0.763-0.425-1.142-0.64c-0.004,0.013-0.013,0.021-0.016,0.035
			c-0.001,0-0.002,0-0.003,0l0,0c-0.031-0.004-0.061-0.002-0.092-0.005c-0.003,0.129-0.011,0.256-0.051,0.364
			c-0.049,0.135-0.127,0.252-0.239,0.349c-0.227,0.196-0.462,0.387-0.715,0.547c-0.531,0.335-1.104,0.492-1.688,0.155
			c-0.633-0.366-1.319-0.482-2.026-0.528c-0.018,0.029-0.033,0.047-0.052,0.078c-0.003,0-0.006,0-0.009,0l0.002,0.003
			c-0.037,0-0.073,0.001-0.11,0.001c-0.041,0.115-0.083,0.229-0.129,0.32c-0.184,0.362-0.411,0.532-0.717,0.535
			c-0.645,0.006-1.29-0.012-1.934,0.007c-0.643,0.019-1.286,0.06-1.927,0.111c-0.502,0.041-0.927,0.398-1.03,0.823
			c-0.179,0.786-0.371,1.569-0.524,2.359c-0.019,0.098,0.144,0.271,0.263,0.344c0.122,0.075,0.299,0.111,0.442,0.091
			c0.688-0.096,1.007-0.739,1.54-1.071c0.87-0.542,1.791-0.682,2.762-0.346c0.302,0.105,0.568,0.305,0.864,0.432
			c0.388,0.166,1.107,0.018,1.285-0.35c0.631-1.302,1.681-1.367,2.855-0.987c0.483,0.156,0.908,0.189,1.361-0.04
			c0.576-0.29,1.167-0.551,1.74-0.846c0.626-0.322,1.237-0.254,1.845,0.031c0.323,0.151,0.623,0.178,0.909,0.04
			c0.434-0.21,0.857-0.45,1.349-0.509c1.291-0.156,2.426-0.869,3.712-1.041c1.734-0.863,3.655-1.242,5.397-2.078
			c0.279-0.134,0.518-0.378,0.73-0.612c0.064-0.07,0.113-0.142,0.149-0.213c0.103-0.212,0.083-0.419-0.057-0.576
			c-0.101-0.114-0.256-0.221-0.402-0.247c-0.648-0.118-1.274-0.057-1.866,0.277c-0.562,0.317-1.14,0.616-1.815,0.575
			c-0.148-0.009-0.305-0.059-0.435-0.131c-0.184-0.101-0.264-0.217-0.246-0.336c0.013-0.116,0.123-0.236,0.334-0.349
			c0.425-0.229,0.873-0.417,1.304-0.635c0.288-0.145,0.575-0.297,0.843-0.475c0.161-0.107,0.268-0.227,0.317-0.348
			c0.046-0.122,0.034-0.244-0.042-0.357c-0.084-0.125-0.233-0.236-0.376-0.284c-0.468-0.159-0.959-0.157-1.429-0.042
			c-0.467,0.114-0.913,0.308-1.372,0.458c-0.458,0.15-0.911,0.363-1.381,0.416c-1.134,0.129-2.206,0.436-3.256,0.87
			c-0.286,0.118-0.634,0.088-0.953,0.127c-0.337,0.041-0.634-0.053-0.893-0.286c0.002-0.003,0.004-0.006,0.007-0.008
			c-0.001-0.001-0.002-0.001-0.003-0.002c0.093-0.099,0.167-0.241,0.282-0.292c1.025-0.45,1.965-1.08,3.123-1.239
			c0.954-0.131,1.727-0.855,2.725-0.945c0.81-0.073,1.443-0.716,2.268-0.778c0.643-0.048,1.292-0.055,1.925-0.161
			c0.314-0.052,0.506-0.33,0.617-0.583c-0.209-0.273-0.463-0.495-0.769-0.514c-1.621-0.101-3.229-0.022-4.741,0.643
			c-0.892,0.393-1.892,0.388-2.768,0.84c-0.715,0.37-1.461,0.682-2.211,0.977c-1.196,0.471-2.387,0.966-3.614,1.339
			c-0.935,0.284-1.933,0.283-2.844-0.143c-0.895-0.418-1.808-0.663-2.794-0.665c-2.097-0.004-4.195-0.001-6.291-0.05
			c-0.314-0.007-0.536-0.345-0.606-0.638c-0.078-0.326-0.028-0.651,0.128-0.938c0.001-0.002,0.002-0.004,0.003-0.007
			c0.001-0.001,0.001-0.002,0.001-0.003c0.138-0.253,0.257-0.51,0.357-0.772c0.284-0.744,0.397-1.524,0.325-2.342
			c-0.039-0.004-0.078-0.008-0.116-0.012l0.006-0.007c0.001-0.034,0.003-0.068,0.004-0.103c-0.303,0.052-0.569,0.172-0.696,0.42
			c-0.949,1.858-1.989,3.671-2.701,5.647c-0.22,0.612-0.419,1.212-0.472,1.858s-0.156,1.287-0.438,1.872
			c-0.358,0.743-0.489,1.529-0.546,2.336c-0.034,0.482-0.071,0.966-0.066,1.449c0.008,0.843-0.09,1.711,0.041,2.539
			c0.044,0.275,0.113,0.545,0.219,0.808c0.786,1.945,1.741,3.806,3.305,5.28c0.593,0.558,1.271,0.973,1.956,1.4
			c0.969,0.604,2.094,0.832,3.076,1.394c0.265,0.152,0.617,0.169,0.934,0.213c2.095,0.293,4.181,0.128,6.263-0.15
			c1.261-0.764,2.823-0.606,4.097-1.388c0.954-0.586,2.055-0.936,3.006-1.526c1.09-0.676,2.078-1.514,3.188-2.174
			c0.41-0.243,0.752-0.605,1.106-0.934c0.59-0.548,1.138-1.146,1.751-1.667c1.869-1.589,3.242-3.582,4.51-5.633
			c1.183-1.913,2.23-3.915,2.688-6.158c0.776-1.258,0.783-2.782,1.417-4.096c0.204-0.422,0.253-0.925,0.335-1.398
			c0.083-0.476,0.144-0.959,0.168-1.441c0.057-1.143,0.724-2.131,0.786-3.279c0.061-1.123,0.186-2.245,0.329-3.361
			c0-0.001,0-0.001,0-0.002c-0.125-2.091-0.699-3.082-1.406-3.479c-0.025,0.01-0.052,0.016-0.077,0.028
			C69.134,22.091,68.083,22.364,66.92,22.349z M55.142,41.373c0.055-0.048,0.124-0.087,0.206-0.116
			c0.067-0.023,0.279,0.163,0.312,0.283c0.022,0.081,0.03,0.158,0.025,0.231c-0.015,0.217-0.149,0.396-0.368,0.525
			c-0.1-0.102-0.248-0.189-0.293-0.313c-0.061-0.167-0.062-0.319-0.006-0.445c0.02-0.045,0.055-0.082,0.09-0.12
			C55.12,41.404,55.127,41.386,55.142,41.373z"/>
		<path d="M43.282,43.79l-0.054-0.062l0.048,0.062c0.003,0,0.006,0,0.009,0c0.018-0.031,0.034-0.049,0.052-0.078
			c-0.001,0-0.002,0-0.003,0C43.316,43.741,43.3,43.759,43.282,43.79z"/>
		<path d="M37.966,29.532c-0.451,0.257-0.527,0.769-0.65,1.23c0.195,0.754,0.109,1.518,0.086,2.28
			c0.035-0.006,0.068-0.015,0.104-0.019c0,0.002,0,0.003,0,0.005c0,0,0,0,0.001,0l-0.001,0.001c0.005,0.046,0,0.09,0.004,0.136
			c0.282,0.028,0.564,0.055,0.846,0.088c0.543,0.064,0.54,0.07,0.968,0.904c0.359,0.699,0.835,0.911,1.34,0.627
			c0.167-0.095,0.337-0.244,0.506-0.448c0.201-0.242,0.37-0.513,0.584-0.743c0.052-0.057,0.122-0.113,0.197-0.155
			c0.074-0.043,0.153-0.073,0.225-0.076c2.574-0.107,5.149-0.194,7.723-0.296c0.48-0.019,0.958-0.085,1.437-0.13
			c1.46-0.886,3.125-0.609,4.702-0.829c0.476-0.066,0.937-0.178,1.399-0.34c3.15-1.105,4.178-1.51,6.658-2.77
			c1.288-0.654,2.568-1.324,3.843-2.001c0.313-0.168,0.41-0.469,0.375-0.83c-0.047-0.48-0.581-0.806-1.012-0.695
			c-0.473,0.122-0.892,0.336-1.32,0.552c-1.149,0.579-2.293,1.171-3.464,1.703c-1.224,0.557-2.475,0.671-3.703-0.026
			c-0.718-0.408-1.489-0.596-2.312-0.566c-0.804,0.029-1.608,0.054-2.41,0.108c-0.644,0.044-1.253,0.211-1.854,0.476
			c-2.06,0.908-4.088,1.881-6.083,2.921c-1.038,0.542-2.123,0.708-3.271,0.592c-0.481-0.048-0.969-0.05-1.442-0.138
			c-0.29-0.054-0.58-0.198-0.825-0.367c-0.135-0.094,0.323-0.734,0.701-0.998c0.055-0.039,0.108-0.07,0.157-0.091
			c0.889-0.368,1.776-0.739,2.639-1.171c0.423-0.212,0.938-0.235,1.38-0.419c0.889-0.371,1.769-0.768,2.627-1.205
			c0.589-0.301,1.2-0.433,1.846-0.488c0.641-0.055,1.282-0.126,1.863-0.444c0.574-0.315,1.185-0.483,1.842-0.506
			c0.483-0.017,0.965-0.055,1.446-0.103c0.32-0.032,0.685-0.014,0.945-0.165c1.166-0.679,2.467-0.672,3.739-0.823
			c0.209-0.025,0.365-0.091,0.506-0.232c0.125-0.127,0.242-0.33,0.371-0.605c-0.025,0-0.05,0.001-0.075,0.001l0.009-0.007
			c0.015-0.039,0.039-0.065,0.055-0.101c-0.949-0.074-1.899-0.057-2.845,0.033c-0.154,0.015-0.309,0.013-0.463,0.033
			c-0.469,0.059-0.957,0.19-1.373,0.409c-0.183,0.097-0.368,0.166-0.554,0.23c-0.718,0.251-1.458,0.285-2.224,0.189
			c-0.012-0.002-0.024-0.001-0.036-0.003l0,0h-0.001c-0.382-0.05-0.653-0.191-0.642-0.397c0.006-0.104,0.225-0.26,0.365-0.282
			c0.798-0.128,1.555-0.341,2.295-0.69c-6.155,1.423-6.536,2.99-11.47,4.331c-1.251,0.281-2.306,1.132-3.62,1.215
			C39.388,28.8,38.661,29.137,37.966,29.532z M50.009,30.31c0.001,0,0.001-0.001,0.002-0.001l0,0
			c0.421-0.217,0.847-0.424,1.279-0.619c1.005-0.453,2.091-0.672,3.11-1.111c0.869-0.374,1.85-0.344,2.794-0.118
			c0.491,0.118,0.822,0.44,1.067,0.856c0.072,0.122,0.151,0.31,0.105,0.414c-0.028,0.062-0.087,0.124-0.156,0.173
			c-0.069,0.05-0.149,0.087-0.22,0.099c-1.249,0.211-2.351,0.93-3.626,1.041c-0.315,0.028-0.63,0.071-0.946,0.08
			c-0.473,0.014-0.948,0.004-1.422,0.004c0,0.005,0,0.008,0,0.013c-0.633,0-1.266,0.013-1.898-0.01
			c-0.139-0.005-0.302-0.112-0.404-0.219C49.524,30.73,49.642,30.5,50.009,30.31z"/>
		<ellipse transform="matrix(0.6866 -0.727 0.727 0.6866 -16.0191 48.4254)" cx="48.162" cy="42.794" rx="0.001" ry="0.001"/>
		<ellipse transform="matrix(0.2912 -0.9567 0.9567 0.2912 -11.2927 72.3421)" cx="43.173" cy="43.792" rx="0.001" ry="0.002"/>
		<path d="M43.159,50.544c-1.321,0.04-2.556-0.196-3.706-0.859c-0.29-0.167-0.615-0.143-0.938-0.145
			c-0.081,0-0.161,0.013-0.237,0.036c0.074-0.022,0.151-0.034,0.23-0.033c0.323,0.002,0.648-0.022,0.938,0.145
			c1.15,0.663,2.386,0.898,3.706,0.859c1.609-0.048,3.221-0.023,4.831-0.046c0.645-0.009,1.29-0.082,1.886-0.351
			c0.002-0.001,0.005-0.002,0.007-0.003c-0.595,0.269-1.241,0.342-1.886,0.351C46.38,50.522,44.768,50.496,43.159,50.544z"/>
		<ellipse transform="matrix(0.4706 -0.8824 0.8824 0.4706 -15.6815 61.2617)" cx="43.21" cy="43.699" rx="0.001" ry="0.001"/>
		<polygon points="43.207,43.702 43.206,43.699 43.205,43.701 		"/>
		<path d="M53.019,54.864c-0.124,0.06-0.254,0.105-0.38,0.159C52.765,54.969,52.896,54.924,53.019,54.864z"/>
		<path d="M49.831,55.946c-0.462,0.135-0.933,0.298-1.406,0.321c-2.088,0.103-4.176,0.338-6.271,0.079
			c-0.646-0.08-1.241-0.288-1.839-0.544c-2.67-1.144-4.393-3.177-5.505-5.791c-0.124-0.291-0.201-0.615-0.233-0.93
			c-0.148-1.445-0.138-2.894-0.03-4.342c0.048-0.645,0.127-1.295,0.415-1.875c0.442-0.889,0.486-1.862,0.682-2.803
			c0.061-0.293,0.151-0.475,0.29-0.551c-0.142,0.074-0.234,0.257-0.297,0.554c-0.196,0.941-0.24,1.914-0.682,2.803
			c-0.288,0.579-0.367,1.23-0.415,1.875c-0.108,1.448-0.118,2.897,0.03,4.342c0.032,0.315,0.109,0.639,0.233,0.93
			c1.112,2.614,2.835,4.646,5.505,5.791c0.597,0.256,1.193,0.464,1.839,0.544c2.094,0.259,4.182,0.024,6.271-0.079
			c0.473-0.023,0.944-0.187,1.406-0.321c0.462-0.134,0.899-0.375,1.367-0.461c0.327-0.06,0.642-0.148,0.948-0.255
			c-0.303,0.106-0.616,0.192-0.941,0.252C50.73,55.57,50.293,55.812,49.831,55.946z"/>
		<path d="M60.767,46.625c0.461-0.122,0.954-0.104,1.416-0.224c0.03-0.008,0.055-0.025,0.085-0.034
			c-0.027,0.008-0.05,0.024-0.078,0.031C61.725,46.519,61.23,46.501,60.767,46.625z"/>
		<path d="M55.454,48.776c-0.001,0-0.002,0.001-0.003,0.001c0.134-0.074,0.304-0.104,0.461-0.115c0.58-0.043,1.12-0.199,1.642-0.406
			c-0.52,0.206-1.058,0.361-1.635,0.404C55.761,48.671,55.589,48.7,55.454,48.776z"/>
		<path d="M47.298,51.92c-0.226,0.078-0.449,0.174-0.668,0.289c0.001,0,0.002,0,0.002-0.001
			C46.85,52.093,47.073,51.998,47.298,51.92z"/>
		<path d="M50.431,49.923c0.568-0.202,1.153-0.328,1.762-0.363c0.851-0.048,1.688-0.143,2.482-0.43
			c-0.791,0.284-1.627,0.379-2.475,0.427C51.589,49.592,51.002,49.719,50.431,49.923z"/>
		<path d="M60.326,46.801c0.023-0.013,0.048-0.017,0.071-0.028C60.373,46.785,60.348,46.788,60.326,46.801L60.326,46.801z"/>
		<path d="M43.205,43.702L43.205,43.702c-0.011,0.034-0.025,0.057-0.036,0.089l0,0C43.181,43.759,43.194,43.736,43.205,43.702z"/>
		<path d="M42.007,41.805c-0.963,0.006-1.932-0.076-2.883,0.134c-0.002,0-0.004,0.002-0.005,0.003
			c0.952-0.209,1.92-0.128,2.881-0.134c1.128-0.006,2.255-0.034,3.361-0.274c0.022-0.005,0.036-0.017,0.057-0.023
			c-0.018,0.005-0.03,0.016-0.05,0.02C44.262,41.771,43.135,41.798,42.007,41.805z"/>
		<path d="M60.614,23.474c0,0.001-0.001,0.001-0.001,0.002c0.023,0,0.046-0.001,0.07-0.001c0.016-0.035,0.031-0.057,0.048-0.095
			L60.614,23.474z"/>
		<path d="M62.049,38.181c-0.084-0.125-0.233-0.235-0.376-0.284c-0.467-0.159-0.959-0.157-1.429-0.042
			c-0.467,0.115-0.914,0.308-1.372,0.458c-0.458,0.149-0.911,0.362-1.381,0.416c-1.134,0.13-2.206,0.437-3.256,0.87
			c-0.286,0.118-0.634,0.088-0.953,0.127c-0.336,0.042-0.633-0.053-0.89-0.284c-0.002,0.003-0.004,0.006-0.007,0.008
			c0.259,0.233,0.556,0.327,0.893,0.286c0.319-0.039,0.667-0.009,0.953-0.127c1.05-0.434,2.122-0.741,3.256-0.87
			c0.47-0.053,0.923-0.266,1.381-0.416c0.459-0.15,0.905-0.344,1.372-0.458c0.47-0.115,0.961-0.117,1.429,0.042
			c0.143,0.048,0.292,0.159,0.376,0.284c0.076,0.113,0.088,0.236,0.042,0.357C62.137,38.424,62.127,38.298,62.049,38.181z"/>
		<path d="M62.565,34.918c-1.621-0.101-3.229-0.022-4.741,0.643c-0.892,0.392-1.892,0.387-2.768,0.84
			c-0.715,0.369-1.462,0.682-2.211,0.977c-1.195,0.471-2.387,0.966-3.614,1.339c-0.935,0.284-1.933,0.282-2.844-0.143
			c-0.895-0.418-1.808-0.663-2.794-0.665c-2.097-0.004-4.195-0.001-6.291-0.05c-0.315-0.007-0.536-0.345-0.606-0.638
			c-0.078-0.325-0.028-0.648,0.127-0.935c-0.001,0.002-0.002,0.004-0.003,0.007c-0.156,0.287-0.206,0.612-0.128,0.938
			c0.07,0.293,0.292,0.631,0.606,0.638c2.096,0.049,4.194,0.046,6.291,0.05c0.986,0.002,1.899,0.247,2.794,0.665
			c0.911,0.426,1.909,0.427,2.844,0.143c1.227-0.373,2.418-0.868,3.614-1.339c0.75-0.295,1.496-0.607,2.211-0.977
			c0.876-0.452,1.876-0.447,2.768-0.84c1.512-0.665,3.12-0.744,4.741-0.643c0.306,0.019,0.56,0.242,0.769,0.514
			c0.001-0.003,0.003-0.006,0.005-0.009C63.125,35.16,62.872,34.937,62.565,34.918z"/>
		<path d="M37.511,33.17c-0.002,0-0.003,0-0.005,0c0.072,0.819-0.041,1.598-0.325,2.342C37.466,34.767,37.581,33.988,37.511,33.17z"
			/>
		<path d="M64.057,40.207c-0.102-0.113-0.256-0.22-0.402-0.247c-0.648-0.118-1.275-0.057-1.866,0.277
			c-0.562,0.318-1.14,0.616-1.815,0.575c-0.148-0.009-0.305-0.059-0.435-0.131c-0.179-0.099-0.263-0.211-0.25-0.326
			c-0.019,0.119,0.061,0.234,0.246,0.336c0.13,0.072,0.287,0.122,0.435,0.131c0.675,0.041,1.253-0.258,1.815-0.575
			c0.592-0.334,1.218-0.395,1.866-0.277c0.146,0.026,0.301,0.133,0.402,0.247c0.139,0.157,0.16,0.364,0.057,0.576
			C64.218,40.578,64.198,40.367,64.057,40.207z"/>
		<path d="M43.205,43.702c-0.011,0.034-0.024,0.057-0.036,0.089c0.036,0,0.071-0.001,0.107,0l-0.048-0.062L43.205,43.702z"/>
		<path d="M55.956,50.103c-0.143,0.076-0.29,0.139-0.439,0.193c0.151-0.054,0.299-0.118,0.444-0.194
			C55.959,50.102,55.957,50.102,55.956,50.103z"/>
		<path d="M43.168,43.794c0.037,0,0.073-0.001,0.11-0.001l-0.002-0.003c-0.036,0-0.071,0-0.107,0
			C43.169,43.792,43.168,43.793,43.168,43.794z"/>
		<path d="M42.326,44.638c-0.645,0.006-1.29-0.012-1.934,0.007c-0.643,0.018-1.286,0.059-1.927,0.111
			c-0.506,0.041-0.936,0.403-1.034,0.833l0,0c0.103-0.426,0.528-0.783,1.03-0.823c0.641-0.051,1.284-0.092,1.927-0.111
			c0.644-0.019,1.289-0.001,1.934-0.007c0.306-0.003,0.533-0.173,0.717-0.535C42.856,44.469,42.629,44.635,42.326,44.638z"/>
		<path d="M60.613,23.475c0-0.001,0.001-0.001,0.001-0.002l-0.001,0.001c0-0.001,0.001-0.002,0.002-0.003l-0.009,0.007
			c0.025,0,0.05-0.001,0.075-0.001c0-0.001,0.001-0.002,0.001-0.003C60.659,23.475,60.636,23.475,60.613,23.475z"/>
		<path d="M60.685,23.477c-0.001,0-0.003,0-0.004,0c-0.129,0.275-0.246,0.478-0.371,0.605
			C60.436,23.955,60.554,23.753,60.685,23.477z"/>
		<path d="M52.677,50.803c-0.258,0.122-0.518,0.231-0.781,0.326c0.263-0.095,0.524-0.204,0.782-0.327
			C52.678,50.803,52.677,50.803,52.677,50.803z"/>
		<path d="M41.177,34.332c0.202-0.242,0.371-0.513,0.584-0.743c0.051-0.055,0.119-0.109,0.191-0.151
			c-0.075,0.042-0.144,0.098-0.197,0.155c-0.214,0.23-0.383,0.501-0.584,0.743c-0.17,0.204-0.34,0.353-0.506,0.448
			C40.833,34.689,41.005,34.539,41.177,34.332z"/>
		<path d="M37.506,33.165c-0.004-0.044,0.001-0.086-0.004-0.131l-0.104,0.119c0-0.002,0-0.003,0-0.005l-0.002,0.002
			c0,0.001,0,0.002,0,0.003C37.432,33.157,37.469,33.161,37.506,33.165z"/>
		<path d="M37.396,33.153c0-0.001,0-0.002,0-0.003l-0.006,0.007c0.039,0.004,0.078,0.008,0.116,0.012c0-0.002,0-0.003,0-0.005
			C37.469,33.161,37.432,33.157,37.396,33.153z"/>
		<path d="M68.32,26.162c-0.047-0.48-0.581-0.806-1.012-0.695c-0.473,0.122-0.892,0.336-1.32,0.552
			c-1.149,0.579-2.293,1.171-3.464,1.703c-1.224,0.557-2.475,0.671-3.703-0.026c-0.718-0.407-1.489-0.595-2.312-0.566
			c-0.804,0.028-1.608,0.054-2.41,0.108c-0.644,0.043-1.252,0.211-1.854,0.476c-2.06,0.908-4.088,1.88-6.083,2.921
			c-1.038,0.541-2.123,0.708-3.271,0.592c-0.481-0.049-0.969-0.05-1.442-0.138c-0.29-0.054-0.58-0.198-0.825-0.367
			c-0.135-0.093,0.319-0.727,0.696-0.994c-0.378,0.265-0.837,0.904-0.701,0.998c0.245,0.169,0.535,0.313,0.825,0.367
			c0.473,0.088,0.961,0.09,1.442,0.138c1.148,0.116,2.233-0.05,3.271-0.592c1.995-1.04,4.023-2.013,6.083-2.921
			c0.601-0.265,1.21-0.432,1.854-0.476c0.802-0.054,1.606-0.079,2.41-0.108c0.823-0.03,1.594,0.158,2.312,0.566
			c1.228,0.697,2.479,0.583,3.703,0.026c1.171-0.532,2.315-1.124,3.464-1.703c0.428-0.216,0.847-0.43,1.32-0.552
			c0.431-0.111,0.965,0.215,1.012,0.695c0.035,0.361-0.062,0.662-0.375,0.83c0.001,0,0.001-0.001,0.002-0.001
			C68.259,26.827,68.355,26.525,68.32,26.162z"/>
		<path d="M37.4,33.043c0.021-0.762,0.107-1.526-0.086-2.28c0.123-0.461,0.199-0.973,0.65-1.23c0.694-0.395,1.422-0.732,2.136-1.093
			c1.307-0.083,2.359-0.924,3.6-1.209c-4.919,1.332-7.576,0.651-6.997,6.233C36.831,33.214,37.097,33.094,37.4,33.043z"/>
		<path d="M37.399,33.048c0-0.002,0-0.003,0-0.005c-0.303,0.051-0.569,0.172-0.696,0.42c0,0.002,0,0.004,0,0.006
			C36.831,33.22,37.097,33.099,37.399,33.048z"/>
		<polygon points="37.507,33.028 37.506,33.028 37.506,33.029 		"/>
		<path d="M37.398,33.148l0.104-0.115v0.001l0.004-0.005v-0.001c-0.036,0.004-0.069,0.013-0.104,0.019
			C37.4,33.081,37.398,33.115,37.398,33.148z"/>
		<ellipse transform="matrix(0.9425 -0.3341 0.3341 0.9425 -8.8904 14.394)" cx="37.398" cy="33.041" rx="0.003" ry="0.003"/>
		<path d="M40.1,28.439c-0.714,0.361-1.442,0.698-2.136,1.093c-0.451,0.257-0.527,0.769-0.65,1.23
			c0.194,0.755,0.108,1.519,0.086,2.28c0.001,0,0.001,0,0.002,0c0.022-0.762,0.108-1.526-0.086-2.28
			c0.123-0.461,0.199-0.973,0.65-1.23c0.695-0.395,1.422-0.732,2.136-1.093c1.314-0.083,2.369-0.934,3.62-1.215
			c-0.007,0.002-0.014,0.003-0.021,0.005C42.459,27.515,41.407,28.357,40.1,28.439z"/>
		<polygon points="37.502,33.034 37.502,33.033 37.398,33.148 37.398,33.153 		"/>
		<path d="M70.249,21.578c-1.402-0.786-3.33,0.77-3.33,0.77c1.163,0.015,2.213-0.258,3.254-0.743
			C70.198,21.594,70.225,21.588,70.249,21.578z"/>
		<path d="M60.67,23.37c0.272-0.593,0.751-0.882,1.415-0.901c1.612-0.046,3.224-0.142,4.835-0.121c0,0-5.565-0.879-11.724,0.544
			c-0.741,0.35-1.499,0.563-2.298,0.691c-0.141,0.022-0.359,0.178-0.365,0.282c-0.011,0.206,0.26,0.347,0.642,0.397
			c0.012,0.002,0.024,0.001,0.036,0.003c0.765,0.095,1.505,0.061,2.224-0.189c0.185-0.065,0.37-0.134,0.553-0.231
			c0.415-0.22,0.904-0.35,1.373-0.409c0.154-0.019,0.31-0.018,0.465-0.033C58.77,23.313,59.72,23.295,60.67,23.37z"/>
		<circle cx="60.67" cy="23.37" r="0"/>
		<path d="M53.175,24.262c0.012,0.002,0.024,0.001,0.036,0.003C53.199,24.264,53.187,24.264,53.175,24.262L53.175,24.262z"/>
		<polygon points="60.739,23.372 60.738,23.372 60.737,23.374 		"/>
		<path d="M55.988,23.845c-0.182,0.097-0.367,0.166-0.553,0.231c0.186-0.065,0.371-0.134,0.554-0.23
			c0.416-0.219,0.904-0.35,1.373-0.409c0.154-0.02,0.309-0.018,0.463-0.033c-0.155,0.015-0.31,0.013-0.465,0.033
			C56.892,23.495,56.403,23.625,55.988,23.845z"/>
		<path d="M60.616,23.47l0.116-0.094c-0.001,0.001-0.001,0.002-0.002,0.003l0.007-0.005c0-0.001,0.001-0.001,0.001-0.002
			c-0.018-0.001-0.035,0-0.053-0.002c-0.005,0-0.01,0-0.014,0C60.654,23.406,60.63,23.432,60.616,23.47z"/>
		<path d="M60.67,23.37L60.67,23.37c-0.017,0.036-0.041,0.062-0.056,0.101l0.001-0.001C60.63,23.432,60.654,23.406,60.67,23.37z"/>
		<path d="M60.685,23.371c-0.005,0-0.01,0-0.014,0l0,0C60.675,23.37,60.68,23.37,60.685,23.371z"/>
		<ellipse transform="matrix(0.3714 -0.9285 0.9285 0.3714 16.3126 71.034)" cx="60.616" cy="23.47" rx="0.001" ry="0.002"/>
		<polygon points="60.732,23.376 60.616,23.47 60.614,23.474 60.73,23.379 		"/>
		<path d="M50.099,31.131c0.632,0.023,1.265,0.01,1.898,0.01c-0.633,0-1.266,0.013-1.896-0.011
			c-0.139-0.005-0.303-0.111-0.404-0.219c-0.172-0.182-0.053-0.412,0.314-0.602c-0.001,0-0.001,0.001-0.002,0.001
			c-0.367,0.19-0.485,0.42-0.314,0.602C49.797,31.019,49.96,31.126,50.099,31.131z"/>
		<path d="M48.713,42.135c-0.288,0.094-0.461,0.333-0.547,0.659c0.379,0.215,0.756,0.436,1.141,0.639
			c0.434,0.23,0.906,0.278,1.387,0.221c0.157-0.019,0.312-0.07,0.463-0.12c0.361-0.118,0.787-0.837,0.645-1.154
			c-0.031-0.069-0.071-0.133-0.12-0.189c-0.146-0.17-0.363-0.275-0.607-0.291C50.277,41.849,49.481,41.884,48.713,42.135z"/>
		<path d="M48.713,42.135c0.768-0.251,1.564-0.286,2.362-0.235c0.244,0.016,0.461,0.122,0.607,0.291
			c-0.146-0.17-0.364-0.276-0.608-0.292c-0.797-0.051-1.593-0.016-2.362,0.235c-0.288,0.094-0.462,0.333-0.547,0.659
			c0,0,0.001,0,0.001,0.001C48.251,42.469,48.425,42.229,48.713,42.135z"/>
		<path d="M48.149,42.828c0.003-0.014,0.012-0.021,0.016-0.034c-0.032-0.018-0.065-0.036-0.098-0.055l0.004,0.004L48.149,42.828z"/>
		<path d="M48.164,42.794L48.164,42.794c-0.033-0.019-0.066-0.037-0.099-0.056l0.001,0.001l0,0
			C48.099,42.758,48.132,42.776,48.164,42.794z"/>
		<circle cx="48.055" cy="42.824" r="0"/>
		<path d="M43.344,43.7c0.706,0.046,1.391,0.162,2.024,0.528c0.583,0.338,1.156,0.181,1.688-0.155
			c0.253-0.16,0.488-0.35,0.715-0.547c0.109-0.09,0.185-0.205,0.233-0.338c0.04-0.109,0.047-0.236,0.051-0.364
			c-0.289-0.03-0.578-0.047-0.865-0.045c-0.957,0.005-1.91,0.15-2.866,0.187c-0.107,0.004-0.202,0.021-0.29,0.051
			c-0.003,0.001-0.007,0.001-0.011,0.002C43.772,43.107,43.577,43.322,43.344,43.7z"/>
		<path d="M43.205,43.701L43.205,43.701L43.205,43.701z"/>
		<path d="M43.336,43.712c0.003-0.004,0.005-0.007,0.008-0.012c-0.001,0-0.002,0-0.003,0c-0.003,0.004-0.005,0.007-0.008,0.012
			C43.334,43.712,43.335,43.712,43.336,43.712z"/>
		<path d="M44.023,43.019c-0.252,0.088-0.447,0.303-0.682,0.681c0.001,0,0.002,0,0.003,0C43.577,43.322,43.772,43.107,44.023,43.019
			z"/>
		<path d="M47.056,44.073c-0.532,0.336-1.105,0.493-1.688,0.155c-0.633-0.366-1.318-0.482-2.024-0.528
			c-0.003,0.004-0.005,0.007-0.008,0.012c0.707,0.046,1.393,0.162,2.026,0.528c0.584,0.337,1.157,0.18,1.688-0.155
			c0.253-0.16,0.488-0.351,0.715-0.547c0.112-0.097,0.19-0.215,0.239-0.349c-0.048,0.133-0.125,0.247-0.233,0.338
			C47.544,43.723,47.309,43.913,47.056,44.073z"/>
		<path d="M48.055,42.824c0.031,0.003,0.061,0.001,0.092,0.005l0,0C48.116,42.825,48.086,42.828,48.055,42.824L48.055,42.824z"/>
		<path d="M48.067,42.739c0.001,0.031-0.011,0.055-0.012,0.085c0.031,0.003,0.061,0.001,0.092,0.005l-0.076-0.086L48.067,42.739z"/>
		<path d="M47.189,42.779c-0.958,0.005-1.912,0.15-2.869,0.187c-0.106,0.004-0.2,0.022-0.287,0.051
			c0.088-0.03,0.183-0.047,0.29-0.051C45.28,42.929,46.232,42.785,47.189,42.779z"/>
		<path d="M43.282,43.79c0.018-0.031,0.034-0.05,0.052-0.078c-0.042-0.003-0.083-0.008-0.126-0.01l0.02,0.026L43.282,43.79z"/>
		<path d="M48.067,42.739L48.067,42.739c0.001,0.031-0.011,0.055-0.012,0.085l0,0C48.056,42.794,48.068,42.77,48.067,42.739z"/>
		<polygon points="43.207,43.702 43.205,43.701 43.205,43.702 43.228,43.728 		"/>
		<ellipse cx="43.203" cy="43.7" rx="0" ry="0"/>
		<path d="M48.067,42.739L48.067,42.739L48.067,42.739z"/>
		<polygon points="48.067,42.739 48.067,42.739 48.07,42.743 		"/>
		<path d="M55.024,41.982c0.045,0.125,0.193,0.212,0.293,0.314c0.219-0.13,0.352-0.308,0.368-0.525
			c0.005-0.072-0.003-0.149-0.025-0.23c-0.033-0.121-0.245-0.307-0.312-0.283c-0.082,0.029-0.151,0.068-0.206,0.115
			c-0.015,0.013-0.021,0.031-0.034,0.045c-0.035,0.037-0.07,0.075-0.09,0.12C54.962,41.664,54.963,41.816,55.024,41.982z"/>
		<path d="M55.108,41.419c0.013-0.014,0.019-0.032,0.034-0.045C55.127,41.386,55.12,41.404,55.108,41.419z"/>
		<path d="M55.317,42.296c0.219-0.13,0.353-0.308,0.368-0.525C55.669,41.988,55.536,42.166,55.317,42.296z"/>
		<path d="M55.024,41.982c-0.061-0.166-0.062-0.319-0.006-0.444C54.962,41.663,54.963,41.816,55.024,41.982
			c0.045,0.125,0.193,0.212,0.293,0.314C55.217,42.194,55.069,42.107,55.024,41.982z"/>
	</g>
</g>
</svg>
