<?xml version="1.0" encoding="utf-8"?>
<!-- Generator: Adobe Illustrator 21.0.2, SVG Export Plug-In . SVG Version: 6.00 Build 0)  -->
<!DOCTYPE svg PUBLIC "-//W3C//DTD SVG 1.1//EN" "http://www.w3.org/Graphics/SVG/1.1/DTD/svg11.dtd">
<svg version="1.1" id="Layer_1" xmlns="http://www.w3.org/2000/svg" xmlns:xlink="http://www.w3.org/1999/xlink" x="0px" y="0px"
	 viewBox="0 0 102 80.9" style="enable-background:new 0 0 102 80.9;" xml:space="preserve">
<style type="text/css">
	.st0{fill:#FFFFFF;}
</style>
<g id="cartoon_food_6">
	<path class="st0" d="M33.4,20c-3.7,1.7-6.9,7.5,2.8,7.2c1.5,3.2,1.2,4.8,0.5,5.8s-1,3.8,0.2,5.2c-5.5,0-11,3.4-11,3.4
		s-0.5,4.4,0.8,5.9c-1,1.8-4.9,2-5.8,3.1s-3.4,5.1,1.8,9.6c5.8,2.8,13,3,13,3s8.8,2,9.8,2s15.8-1.5,15.8-1.5l11.2-2.5
		c0,0,12.8-5.8,8-14.2c-3.2-3.2-7.2-3.8-7.2-3.8s-5-1.5-5.5-3s-1.2-4.7-6.5-4.9c0.2-1.4,0.1-5.3-2.8-6.2c1.8-3.1,2.5-7-2.7-5.3
		c4.3-5.1,1-8.6-3.7-8.3s-12.8,2-14,2.5S33.4,20,33.4,20z"/>
</g>
<g>
	<path d="M54.3,65.5c-3,0.4-8,0.8-12.9-0.1c-5.7-1-11.5-1.9-17.1-3.4c-2.7-0.8-5.9-4.4-5.9-6.9c-0.1-3.4,1.9-5.5,4.7-6.8
		c1.5-0.7,2.6-1.1,1.6-3.1c-0.6-1.3-0.1-2.8,1.3-3.5c2.7-1.4,5.1-3.3,8.3-3.6c0.5-0.1,1.2-0.1,1-0.7c-0.7-2.8,1.4-5.2,0.8-8
		c-0.2-1-0.5-1.3-1.5-1.3c-1.2,0.1-2.4,0-3.6-0.3c-2.6-0.7-3.4-3.3-1.8-5.4c1.1-1.4,2.5-2.4,4.2-3.2c5.4-2.4,10.9-4,16.8-4.3
		c1.5-0.1,3,0.1,4.5,0.4c2.8,0.7,4,2.7,3.2,5.3c-0.3,1.1-0.2,1.8,0.8,2.4c2.2,1.3,2,3.1,0.8,4.9c-0.8,1.1-0.9,1.9,0.4,2.7
		c1.1,0.6,1.6,1.8,1.4,3.1c-0.2,1.3,0.5,1.7,1.6,1.6c2-0.1,3.4,0.7,4.3,2.5c1.6,3.2,4.5,4.3,7.7,4.9c3.5,0.7,5.8,2.9,7.2,6.1
		c1.2,2.7,0,5.2-1.7,7.3c-3.1,3.9-7.3,6.4-12.3,7.3C64.2,64,60.3,65.3,54.3,65.5z M24.1,55.1c0,2.2,1.8,4.3,5,5.1
		c7.4,1.7,15,2.1,22.6,1c7.7-1.1,15.3-2.9,22.3-6.8c1.5-0.9,2.8-1.9,3.6-3.4c1.1-2.2,0.3-4.6-1.8-5.7c-1-0.5-1.6-0.5-1.8,0.8
		c-0.2,1.7-1.2,3.1-2.4,4c-4.6,3.6-9.7,4.9-15.4,3.2c-0.7-0.2-1.3-0.2-2,0.1c-5.9,2.9-12.1,3.4-18.4,2.2c-2.7-0.5-4.9-1.8-5.6-4.8
		c-0.4-1.7-1.5-2-3.1-1C24.9,51.1,24.2,52.9,24.1,55.1z M36.6,25.6c6.2,0.1,12.2-1,17.9-3.6c1.5-0.7,2.4-1.6,2.1-3.3
		c-0.3-1.6-1.6-1.7-3-1.8c-3.2-0.4-6.4-0.1-9.5,0.6c-4.4,1.1-8.8,2.5-12.5,5.3c-0.5,0.4-1.4,0.8-1.1,1.6c0.2,0.7,1.1,1,1.8,1.1
		C33.7,25.7,35.1,25.6,36.6,25.6z M60.1,52.2c4.1-0.4,8.1-0.8,11.1-4.1c1.3-1.4,1.6-2.7,0.4-4.3c-1-1.4-4.1-2.6-5.3-1.9
		c-4.3,2.5-9,3.2-13.8,3.3c-1.3,0-2.3,0.3-2.7,1.5c-0.5,1.3,0.7,2.4,1.5,2.7C54.3,50.3,56.8,52.6,60.1,52.2z M35.7,40.1
		c-2.8-0.5-4.9,1.4-7.1,2.4c-2.6,1.2-2.6,2.4-0.3,4.1c0.7,0.5,1.5,1.3,2.5,0.2c0.3-0.4,1.1-0.5,1.2,0c0.6,2,2.2,1.3,3.4,1.4
		c3.6,0.2,7.1-0.7,10.6-1.8c2.1-0.7,2.1-2.7,2.6-4.4c0.2-0.6-0.4-0.8-0.9-0.7C43.6,42.2,39.7,40.9,35.7,40.1z M55.4,31.9
		c-1.2,0.5-2.1,0.9-3.1,1.3c-0.8,0.4-2.4,0.4-1.1,2c0.2,0.2,0.1,0.9-0.4,0.9c-0.6,0.1-1.5,0.3-1.7-0.3c-0.6-2.1-2.3-1.6-3.7-1.6
		c-1.9-0.1-3.8-0.3-5.7-0.9c-2-0.7-2.7,0.3-2.8,2.1c-0.2,2.4,1.2,3.5,3.3,3.9c4.6,1,9,0.1,13.5-1.1c1.9-0.5,3.8-1.1,5.1-2.9
		c0.6-0.9,1.4-1.7,0.7-2.8c-0.7-1.2-1.9-1.2-3.2-0.8c0.2,1,1.8,1.2,1.1,2.4c-0.1,0.2-0.6,0.3-0.8,0.2C55.4,34,55.5,33,55.4,31.9z
		 M55.7,23.8c-1.5,0.6-3,1.2-4.6,1.8c-3.6,1.2-7.3,1.8-11,2c-1.4,0.1-2.7,0.9-1.8,2.1c0.7,1,2.1,2.1,3.7,2.2c0.3,0,0.8,0,0.9-0.2
		c1.2-2.9,2.5-1,3.6,0c0.5,0.4,0.9,0.6,1.5,0.5c3.7-0.5,7.2-1.5,9.7-4.5c0.6-0.7,1.6-1.4,1.1-2.5C58.2,24.1,56.8,24.3,55.7,23.8z
		 M42.3,54.2c2.6,0,5.2-0.3,7.7-1.2c0.6-0.2,1.7-0.2,1.4-1.2c-0.2-0.8-1-0.6-1.6-0.5c-1.5,0.2-2.6,0.1-1.9-2
		c0.3-1.1-0.5-1.6-1.6-1.1c-4.2,1.6-8.5,2-12.9,1.9c-0.5,0-1.2-0.3-1.4,0.4c-0.2,0.5,0,1.1,0.4,1.6c0.5,0.7,1.1,1.1,1.9,1.3
		C36.9,54.2,39.6,54.3,42.3,54.2z M48.4,63.7c7.1,0.2,13.9-1.1,20.7-2.8c3.3-0.8,6.1-2.2,8.7-4.3c2.1-1.7,3.5-3.8,3.3-6.6
		c0-0.6-0.3-1.2-0.8-1.3c-0.8-0.1-0.7,0.7-0.8,1.2c-0.3,1.8-1.3,3.2-2.6,4.4c-2.1,2-4.8,3.2-7.4,4.2C62.7,61.2,55.5,62.4,48.4,63.7z
		 M63.1,37.1c-0.3,0-0.6,0-1,0c-3.6,0.1-6.3,2.8-9.8,3.4c-0.7,0.1-0.7,1-0.6,1.6c0.1,0.8,0.8,0.9,1.4,1c3.8,0.2,7.4-0.3,10.9-1.9
		c1.1-0.5,2.4-1.1,2.1-2.5C65.8,37.3,64.4,37.1,63.1,37.1z M22.4,52.1c-2.6,1.6-2.5,4.3,0.3,6C21.9,56,22.6,54,22.4,52.1z"/>
	<path d="M48,20.8c-0.9-0.2-2.1,0.3-2.1-1.1c0-0.8,0.8-0.8,1.5-0.8c1,0,1.8,0.5,1.8,1.5C49.2,21.2,48.3,20.7,48,20.8z"/>
	<path d="M42.3,23c0.1-0.8,0.8-0.9,1.4-0.9c0.7,0,1.4,0.3,1.3,1.1c-0.1,0.9-1.2,0.7-1.7,0.9C42.6,24.3,42.3,23.6,42.3,23z"/>
	<path d="M38.5,23.9c-0.7-0.3-1.9,0.4-2.1-0.9c-0.1-0.7,0.6-0.8,0.9-0.6c0.7,0.6,2.1-0.4,2.3,1C39.8,24.1,39.1,24,38.5,23.9z"/>
	<path d="M65.7,43.9c0.4,0.1,0.9,0.1,1.3,0.3c0.6,0.2,1.6,0.4,1.5,1.2c0,0.8-0.9,0.6-1.5,0.7c-0.4,0.1-0.8,0.1-1.1,0.2
		c-0.6,0.3-1.3,0.8-1.9,0c-0.4-0.5-0.7-1.1-0.4-1.8C63.9,43.6,64.9,44,65.7,43.9z"/>
	<path d="M60.5,48.3c1.2-0.1,1.8-0.2,2,0.5c0.1,0.6-0.4,1-1,1.2c-0.9,0.2-1.6,0.6-2.3,1.1c-0.7,0.5-1.3,0-1.6-0.7
		c-0.3-0.8-0.2-1.4,0.8-1.6C59.3,48.5,60.2,48.4,60.5,48.3z"/>
	<path d="M42.6,43.8c1.2,0,2.2,0,2.2,1c0,1.5-1.4,0.7-2.2,1c-0.7,0.2-1.5-0.1-1.4-1C41.3,43.7,42.3,43.9,42.6,43.8z"/>
	<path d="M36.6,43.1c-0.2-1.1,0-1.5,0.6-1.5c0.9,0.1,1.7,0.5,1.8,1.5c0.1,0.7-0.5,0.9-1.1,1C36.9,44.2,36.7,43.4,36.6,43.1z"/>
	<path d="M50.6,27.1c0.7,0.1,1.4,0.4,1.5,1.2c0,0.7-0.7,0.7-1.3,0.7c-0.7,0-1.3-0.1-1.3-1C49.4,27.3,49.9,27.1,50.6,27.1z"/>
	<path d="M42.5,50.2c0.9,0.5,2.7,0.1,2.8,1.8c0,0.8-1,0.5-1.6,0.3c-1-0.4-2.7,0.6-2.9-1.2C40.7,50,41.7,50.2,42.5,50.2z"/>
</g>
</svg>
