<?xml version="1.0" encoding="utf-8"?>
<!-- Generator: Adobe Illustrator 21.0.2, SVG Export Plug-In . SVG Version: 6.00 Build 0)  -->
<!DOCTYPE svg PUBLIC "-//W3C//DTD SVG 1.1//EN" "http://www.w3.org/Graphics/SVG/1.1/DTD/svg11.dtd">
<svg version="1.1" id="Layer_1" xmlns="http://www.w3.org/2000/svg" xmlns:xlink="http://www.w3.org/1999/xlink" x="0px" y="0px"
	 viewBox="0 0 102 80.9" style="enable-background:new 0 0 102 80.9;" xml:space="preserve">
<style type="text/css">
	.st0{fill:#FFFFFF;}
</style>
<g id="people_food_5">
	<path class="st0" d="M35.2,25.7c-4.2,0.8-11.6,3.9-12.5,5.6c-0.9,1.7-3.2,6.8-1.3,9.2s4.4,4.9,6.1,6c1.7,1.1,4.8,2.6,9.7,4.3
		c4.8,1.8,8.7,2.7,11.1,2.8c2.4,0.1,6.2,0.8,8.6-0.8s8.8-2.6,11.4-3.4c2.7-0.8,9.3-1.6,12.3-7.2s-2.1-12-4.1-12.1
		c-2.1-0.1-7.1-3.7-16.1-3.5s-13.1-1.1-16.4-0.9C40.5,25.8,35.2,25.7,35.2,25.7z"/>
</g>
<g>
	<path d="M38.6,24.8c9.7,0.4,19.4,0,29.1,1.5c5,0.8,10.1,2,13.1,6.9c0.9,1.4,1.5,2.8,1.3,4.5c-0.6,5.1-3.3,8.6-8,10.7
		c-5.7,2.6-11.8,3.8-17.8,5.5c-6.5,1.9-12.8,0-19.1-1.3c-3.9-0.8-7.5-2.1-10.2-5.6c-1.4-1.8-4.2-2.4-5.5-4.7
		c-2.9-5-1.6-10.4,3.3-13.4C29.1,26.3,33.6,24.6,38.6,24.8z M49.1,49.5c6.8,0.8,13.1-0.4,19.4-1.2c4.1-0.6,7.8-1.9,10.4-5.8
		c3.5-5.3,1-9.5-3.4-11.8c-4-2-8.4-2.9-13-3.1c-4.6-0.2-9.3-0.1-13.9-0.6c-3.6-0.4-7-0.2-10.4,1c-0.6,0.2-1.3,0.5-1.6-0.3
		c-0.4-1.2-1.4-1-2.2-0.8c-2.4,0.7-4.8,1.2-7,2.5c-2.9,1.7-5.9,3.4-6,7.4c-0.1,4.2,2.2,7.3,7.4,9.2C35.6,48.3,42.2,50.6,49.1,49.5z
		 M41.5,51.5c6.3,1.7,12.2,2.2,15,0C51.3,51.5,46.3,51.5,41.5,51.5z"/>
	<path d="M61.8,41.6c0-1.6,0.9-3-0.5-4.6c-0.7-0.8,0.2-2.2,1.2-3.1c3.6-3.1,11.4-1.1,13.1,3.4c0.6,1.5,0.3,2.9-1.1,3.8
		c-1.6,1.1-3.3,2.2-5,3.2c-1.9,1-4,1.1-6,0.3c-1.1-0.4-2.1-0.5-3,0.5c-2.1,2.3-4.5,2.4-7.2,1c-1.2-0.7-2.1-0.8-3.3,0.4
		c-2,1.9-5.8,1.2-8.1-0.8c-1.8-1.6-3.7-2.8-6.4-2.3c-2.5,0.4-4.9-0.6-6.8-2.3c-2.5-2.2-2.7-5.5-0.6-7.7c1.6-1.6,6.5-1.6,8,0.3
		c1.3,1.6,2.1,1.6,3.3-0.1c1-1.4,2.7-2,4.4-1.9c2.9,0.1,4.4,2.4,3.2,5c-0.8,1.7-0.3,2.5,1.2,3c0.5,0.2,1.1,0.5,1.4,0.9
		c1.6,1.7,2.1,0.5,2.8-0.8c0.6-1.1,0.4-1.6-0.8-1.7c-1,0-1.9-0.5-1.5-1.6c0.4-1.2,1.3-0.8,2.2-0.4c1.7,0.7,3.5,0.4,5.2-0.1
		c0.8-0.2,1.6-0.6,0.8-1.7c-0.9-1.2-4.2-1.5-5.5-0.5c-0.2,0.2-0.4,0.6-0.8,0.3c-0.2-0.2-0.4-0.5-0.4-0.8c-0.1-1.6,0.8-2.4,2.3-2.4
		c2.2,0,4,0.9,5.6,2.4c1,1,1,2.3,0.1,3.3c-1.2,1.3-0.6,2,0.6,2.5C61.2,39.6,61.7,40.4,61.8,41.6z M31.9,34.6c-0.3,0-1.2,0-2,0.2
		c-1.2,0.3-1.6,1.3-1.5,2.4c0.1,0.8,0.1,2,1.3,1.9c1.2-0.1,1.6,0.5,2.3,1.3c1,1.3,3.9,1.5,4.5,0.4C37.7,38.5,35.3,34.7,31.9,34.6z
		 M44.6,40.5c-0.6,0.1-1.8-0.3-1.7,0.6c0.1,1.2-1.6,2-0.4,3.2c1.2,1.3,4.7,2,6.3,1.2c1.8-0.8,1.9-2,0.4-3.3
		C47.9,41.2,46.3,40.7,44.6,40.5z M67.5,38.6c-2.8,0-4.8,1.7-4.2,3.7c0.5,1.9,2.5,1,3.9,1.1c0.2,0,0.3-0.1,0.5-0.1
		c1.7-0.2,3.1-1,2.9-2.8C70.3,38.8,68.6,38.7,67.5,38.6z M56.1,45.4c2.3,0,3.8-0.9,3.8-2.3c0-1.6-1.7-3.3-3.4-3.4
		c-1.3,0-3.1,2-3.1,3.6C53.5,45.3,55,45.2,56.1,45.4z M62.6,37.6c4.4-1.7,7.3-1.3,9,1.5c0.7,1.1,1.1,2,2.4,0.9c1.1-1,0.7-2-0.2-2.9
		c-2.2-2.3-6.3-3.2-9.3-1.9C63.5,35.6,62.8,36.1,62.6,37.6z M37.8,38.4c1.1-0.2,2,0,3,0.1c1.3,0.1,2.6-0.2,3.7-0.9
		c1.4-0.9,1.8-2.9,0.8-3.6c-1.1-0.7-4.4,0-4.7,1.3C40.2,37,39.3,37.8,37.8,38.4z"/>
</g>
</svg>
