<?xml version="1.0" encoding="iso-8859-1"?>
<!-- Generator: Adobe Illustrator 21.0.2, SVG Export Plug-In . SVG Version: 6.00 Build 0)  -->
<!DOCTYPE svg PUBLIC "-//W3C//DTD SVG 1.1//EN" "http://www.w3.org/Graphics/SVG/1.1/DTD/svg11.dtd">
<svg version="1.1" id="Layer_1" xmlns="http://www.w3.org/2000/svg" xmlns:xlink="http://www.w3.org/1999/xlink" x="0px" y="0px"
	 viewBox="0 0 101.967 80.938" style="enable-background:new 0 0 101.967 80.938;" xml:space="preserve">
<g>
	<path style="fill:#FFFFFF;" d="M25.174,33.595c-1.667,0.333-9.333,2.961-4,6.294c5.333,3.333,6.333,3.833,6.333,4.667
		c0,0.833-1.333,2.333-1.333,2.333s1.5,3.667,10,4.5c8.5,0.833,23.667,0.167,27.833-1c4.167-1.167,7.833-3,8.833-4.333
		c1-1.333-6.833-3.667-6.833-3.667s14.667-4,15-5.167c0.333-1.167,4.333-3.5-1.833-5.833c-5.5-1.5-9.5-1.333-10.167-1.333
		c-0.667,0-14.667,0-14.667,0s-11.333,0.5-12.167,0.667c-0.833,0.167-11,1.5-11,1.5L25.174,33.595z"/>
	<g>
		<path style="fill:none;" d="M21.446,45.254c0.649,0.393,1.335,0.728,2.004,1.089c0,0,0,0-0.001-0.001
			C22.781,45.982,22.096,45.647,21.446,45.254z"/>
		<path style="fill:none;" d="M34.861,53.613c-0.064-0.147-0.124-0.297-0.171-0.45c-0.047-0.153-0.077-0.312-0.115-0.468
			c0,0,0,0,0,0c0.037,0.157,0.067,0.316,0.115,0.47c0.047,0.153,0.106,0.303,0.171,0.45c0.09,0.205,0.114,0.421,0.101,0.642
			C34.975,54.035,34.951,53.818,34.861,53.613z"/>
		<path style="fill:none;" d="M19.548,43.946c-0.582-0.365-1.184-0.699-1.771-1.058C18.364,43.247,18.966,43.581,19.548,43.946z"/>
		<path style="fill:none;" d="M30.01,52.852c-0.402,0.259-0.857,0.343-1.322,0.358C29.152,53.195,29.608,53.112,30.01,52.852z"/>
		<path style="fill:none;" d="M18.112,45.508c-0.24,0.003-0.45,0.103-0.6,0.289c-0.039,0.048-0.076,0.119-0.097,0.19
			c0.022-0.071,0.059-0.142,0.098-0.19C17.662,45.612,17.872,45.511,18.112,45.508z"/>
		<path style="fill:none;" d="M18.362,45.538c0.306,0.075,0.641,0.143,0.891,0.318C19.004,45.681,18.668,45.613,18.362,45.538z"/>
		<polygon style="fill:#FFFFFF;" points="34.575,52.693 34.575,52.695 34.576,52.694 		"/>
		<path style="fill:#FFFFFF;" d="M19.548,43.946c0.34,0.214,0.673,0.439,0.989,0.69c0.289,0.229,0.596,0.429,0.91,0.618
			c-0.311-0.188-0.616-0.386-0.902-0.614C20.226,44.387,19.891,44.16,19.548,43.946z"/>
		<path style="fill:#FFFFFF;" d="M29.735,52.474c-0.117-0.101-0.248-0.186-0.382-0.273c-0.046-0.03-0.091-0.06-0.137-0.09
			c0.046,0.03,0.091,0.06,0.137,0.09C29.486,52.288,29.617,52.373,29.735,52.474z"/>
		<path style="fill:#FFFFFF;" d="M30.01,52.852c0.008-0.005,0.017-0.008,0.025-0.013c-0.079-0.148-0.183-0.264-0.3-0.365
			c0.117,0.101,0.221,0.217,0.3,0.365C30.027,52.844,30.018,52.847,30.01,52.852z"/>
		<path d="M42.683,41.213c-0.264-0.053-0.445-0.257-0.566-0.525c0,0-0.001,0-0.001,0C42.237,40.955,42.417,41.161,42.683,41.213
			c1.391,0.276,2.798,0.27,4.205,0.146c0.051-0.005,0.111-0.02,0.169-0.04c-0.058,0.019-0.117,0.034-0.168,0.039
			C45.482,41.482,44.075,41.488,42.683,41.213z"/>
		<path d="M64.554,32.781c-0.476-0.005-0.954,0.132-1.431,0.204c-1.077,0.796-2.445,0.782-3.621,1.302
			c-0.604,0.267-1.167,0.288-1.704,0.033c0.539,0.258,1.105,0.239,1.711-0.029c1.177-0.52,2.545-0.505,3.621-1.302
			c0.477-0.072,0.955-0.209,1.431-0.204c1.934,0.019,3.868,0.063,5.8,0.148c0.138,0.006,0.281,0.071,0.419,0.16
			c-0.139-0.091-0.286-0.158-0.426-0.164C68.422,32.843,66.488,32.8,64.554,32.781z"/>
		<path d="M40.25,40.648c0.564-0.002,1.128-0.026,1.693-0.065l0,0C41.378,40.622,40.814,40.645,40.25,40.648z"/>
		<path d="M36.033,36.711c0.163,0.055,0.315,0.06,0.442,0.013C36.348,36.771,36.196,36.765,36.033,36.711
			c-0.303-0.101-0.457-0.274-0.464-0.512C35.576,36.437,35.73,36.61,36.033,36.711z"/>
		<path d="M20.832,37.208c-0.378,0.302-0.753,0.608-1.117,0.925c-0.12,0.104-0.196,0.256-0.304,0.375
			c-0.333,0.367-0.299,0.926,0.086,1.252c0.245,0.207,0.481,0.432,0.75,0.604c0.002,0.001,0.003,0.002,0.005,0.003
			c-0.268-0.172-0.504-0.396-0.748-0.602c-0.385-0.325-0.418-0.884-0.086-1.252c0.108-0.119,0.184-0.271,0.304-0.375
			c0.365-0.317,0.74-0.623,1.117-0.925c0.545-0.436,1.256-0.452,1.757-0.063c0,0-0.001-0.001-0.001-0.001
			C22.094,36.755,21.379,36.771,20.832,37.208z"/>
		<path d="M29.726,45.55c0.965-0.008,1.93-0.008,2.895,0.015c0.648,0.015,1.28,0.157,1.868,0.435
			c0.594,0.281,1.223,0.429,1.865,0.443c1.162,0.024,2.115,0.776,3.243,0.885c0.973,0.094,1.883,0.368,2.771,0.78
			c0.598,0.277,1.084,0.083,1.579-0.657c0.297-0.443,0.658-0.741,1.143-0.753c1.447-0.037,2.897-0.031,4.344,0.007
			c0.473,0.012,0.944,0.168,1.413,0.27c0.627,0.136,1.252,0.281,1.877,0.425c0.585,0.135,0.757,0.406,0.579,0.98
			c-0.048,0.154-0.175,0.328-0.138,0.454c0.085,0.284,0.355,0.44,0.688,0.534c0.318,0.09,0.651,0.136,0.945-0.02
			c1.845-0.977,3.668-1.992,5.579-2.841c1.026-0.456,2.027-0.942,3.158-1.142c0.613-0.108,1.169-0.51,1.77-0.728
			c0.459-0.167,1.019-0.218,1.398,0.049c0.967,0.679,2.038,0.91,3.173,0.999c0.156,0.012,0.309,0.072,0.462,0.113
			c0.39,0.104,0.543,0.353,0.446,0.74c-0.036,0.143-0.053,0.336-0.149,0.41c0,0,0.001-0.001,0.001-0.001
			c0.099-0.072,0.115-0.269,0.151-0.413c0.097-0.387-0.056-0.636-0.446-0.74c-0.153-0.041-0.306-0.101-0.462-0.113
			c-1.135-0.089-2.206-0.32-3.173-0.999c-0.379-0.266-0.939-0.215-1.398-0.049c-0.601,0.218-1.157,0.62-1.77,0.728
			c-1.131,0.2-2.132,0.686-3.158,1.142c-1.911,0.848-3.734,1.864-5.579,2.841c-0.294,0.156-0.627,0.11-0.945,0.02
			c-0.333-0.094-0.603-0.25-0.688-0.534c-0.038-0.126,0.09-0.3,0.138-0.454c0.178-0.574,0.006-0.845-0.579-0.98
			c-0.625-0.144-1.25-0.29-1.877-0.425c-0.469-0.102-0.94-0.257-1.413-0.27c-1.447-0.038-2.897-0.044-4.344-0.007
			c-0.486,0.012-0.847,0.31-1.143,0.753c-0.496,0.74-0.981,0.934-1.579,0.657c-0.888-0.412-1.797-0.686-2.771-0.78
			c-1.128-0.109-2.08-0.86-3.243-0.885c-0.643-0.013-1.272-0.162-1.865-0.443c-0.588-0.278-1.22-0.42-1.868-0.435
			c-0.964-0.023-1.93-0.023-2.895-0.015c-0.68,0.006-1.221,0.335-1.701,0.791c-0.059,0.056-0.11,0.12-0.153,0.189
			c0.042-0.067,0.092-0.13,0.15-0.185C28.505,45.885,29.046,45.556,29.726,45.55z"/>
		<path d="M22.979,42.316c-0.536-0.348-1.031-0.756-1.468-1.253c-0.084-0.096-0.181-0.171-0.285-0.234
			c0.101,0.062,0.196,0.136,0.278,0.23C21.943,41.558,22.441,41.967,22.979,42.316z"/>
		<path d="M79.973,33.418c0.099,0.055,0.198,0.113,0.296,0.171C80.171,33.531,80.072,33.473,79.973,33.418z"/>
		<path d="M50.424,45.387c-0.392-0.013-0.799-0.027-1.24-0.041C49.624,45.36,50.031,45.374,50.424,45.387z"/>
		<path d="M54.126,31.892c-0.151-0.021-0.329,0.023-0.472,0.088c-0.879,0.396-1.789,0.741-2.616,1.226
			c-1.038,0.609-2.119,0.707-3.265,0.577c-0.481-0.054-0.962-0.126-1.445-0.137c-1.138-0.026-2.237,0.104-3.271,0.669
			c-1.182,0.646-2.481,0.627-3.774,0.451c-0.308-0.042-0.603-0.206-0.893-0.337c-0.438-0.198-0.848-0.482-1.303-0.614
			c-1.15-0.334-2.251-0.245-3.119,0.692c-1.087,1.186-2.151,2.397-3.182,3.545c1.032-1.148,2.095-2.359,3.189-3.541
			c0.868-0.937,1.969-1.026,3.119-0.692c0.455,0.132,0.865,0.416,1.303,0.614c0.29,0.131,0.585,0.295,0.893,0.337
			c1.293,0.177,2.592,0.195,3.774-0.451c1.035-0.565,2.134-0.695,3.271-0.669c0.482,0.011,0.964,0.083,1.445,0.137
			c1.146,0.13,2.227,0.032,3.265-0.577c0.827-0.486,1.737-0.831,2.616-1.226c0.143-0.065,0.321-0.109,0.472-0.088
			c0.314,0.044,0.648,0.083,0.924,0.222c-0.002-0.001-0.004-0.003-0.006-0.004C54.775,31.975,54.44,31.936,54.126,31.892z"/>
		<path d="M33.983,39.802c0.262,0.18,0.55,0.395,0.849,0.436c1.761,0.242,3.526,0.406,5.298,0.406
			c-1.773-0.001-3.538-0.165-5.297-0.408c-0.298-0.041-0.587-0.256-0.849-0.436c-0.472-0.325-0.635-0.731-0.487-1.167
			C33.348,39.069,33.51,39.475,33.983,39.802z"/>
		<path d="M30.648,39.385c-0.119,0.091-0.3,0.146-0.45,0.142c-0.804-0.018-1.609-0.041-2.411-0.104
			c-0.314-0.024-0.647-0.102-0.924-0.246c-0.872-0.455-1.864-0.492-2.761-0.836c-0.095-0.036-0.176-0.092-0.262-0.142
			c0.087,0.052,0.171,0.109,0.269,0.146c0.897,0.345,1.889,0.382,2.761,0.836c0.277,0.144,0.61,0.222,0.924,0.246
			c0.802,0.062,1.607,0.085,2.411,0.104c0.151,0.003,0.332-0.051,0.45-0.142c0.288-0.226,0.268-0.491,0.212-0.78
			C30.922,38.898,30.941,39.161,30.648,39.385z"/>
		<path d="M82.445,32.274c0.041,0.024,0.082,0.046,0.122,0.07c0,0,0,0,0,0C82.526,32.32,82.485,32.298,82.445,32.274z"/>
		<path d="M47.752,39.393c-1.659-0.726-3.475-0.607-5.181-1.055c-0.109-0.029-0.212-0.085-0.312-0.145
			c0.101,0.061,0.204,0.117,0.314,0.146c1.705,0.448,3.521,0.329,5.181,1.055c0.421,0.184,0.951,0.144,1.433,0.161
			c0.928,0.033,1.853,0.054,2.668,0.072c-0.816-0.018-1.742-0.039-2.67-0.073C48.703,39.536,48.173,39.577,47.752,39.393z"/>
		<path d="M25.208,45.939c0.267-0.401,0.523-0.811,0.769-1.226c0.283-0.477,0.151-0.819-0.41-1.097
			c-0.001,0-0.002-0.001-0.003-0.001c0.557,0.277,0.688,0.62,0.406,1.094c-0.246,0.415-0.502,0.825-0.769,1.226
			c-0.298,0.448-1.265,0.669-1.751,0.407c0,0,0,0,0.001,0.001c0.002,0.001,0.004,0.002,0.006,0.003
			C23.943,46.608,24.91,46.386,25.208,45.939z"/>
		<path d="M69.843,43.243c0.07,0.048,0.141,0.089,0.217,0.1c0.729,0.11,1.416,0.308,2.033,0.679
			c-0.618-0.374-1.307-0.572-2.04-0.683C69.979,43.328,69.911,43.289,69.843,43.243z"/>
		<path d="M67.87,35.69c-0.015,0.153-0.025,0.319-0.094,0.45c-0.072,0.138-0.189,0.279-0.323,0.352
			c-0.986,0.538-1.927,1.185-3.083,1.326c-1.171,0.556-2.386,0.941-3.692,1.021c-0.313,0.019-0.627,0.139-0.925,0.253
			c-0.761,0.291-1.546,0.439-2.358,0.456c-1.051,0.023-2.106,0.045-3.274,0.07c1.168-0.025,2.224-0.047,3.276-0.069
			c0.812-0.017,1.597-0.165,2.358-0.456c0.298-0.114,0.612-0.234,0.925-0.253c1.306-0.08,2.521-0.465,3.692-1.021
			c1.157-0.141,2.097-0.788,3.083-1.326c0.134-0.073,0.252-0.215,0.323-0.352c0.068-0.131,0.079-0.297,0.094-0.45
			c0.024-0.247-0.072-0.446-0.287-0.555C67.798,35.246,67.894,35.444,67.87,35.69z"/>
		<path d="M73.466,45.027c0.001,0.001,0.002,0.002,0.003,0.002c0.43,0.255,0.898,0.326,1.358,0.088c0-0.002,0.002-0.005,0.002-0.007
			C74.367,45.352,73.898,45.282,73.466,45.027z"/>
		<path d="M55.998,35.541c-0.211-0.117-0.417-0.245-0.616-0.39c-0.108-0.079-0.218-0.146-0.33-0.201
			c0.111,0.055,0.22,0.121,0.328,0.2C55.58,35.296,55.787,35.424,55.998,35.541z"/>
		<path d="M32.145,41.776c0.315,0.011,0.647,0.076,0.935,0.2c0.901,0.386,1.834,0.556,2.81,0.578
			c1.285,0.029,2.571,0.072,3.854,0.15c0.638,0.039,1.305,0.071,1.899,0.277c1.243,0.431,2.517,0.497,3.801,0.508
			c4.34,0.037,8.679,0.055,13.019,0.08c0.643,0.004,1.287-0.018,1.927,0.028c0.391,0.028,0.631,0.235,0.586,0.434
			c-0.031,0.135-0.184,0.272-0.317,0.348c-0.417,0.238-0.849,0.45-1.279,0.664h0c0.431-0.214,0.863-0.428,1.281-0.665
			c0.133-0.076,0.287-0.213,0.317-0.348c0.045-0.199-0.195-0.406-0.586-0.434c-0.64-0.046-1.284-0.024-1.927-0.028
			c-4.34-0.026-8.679-0.043-13.019-0.08c-1.284-0.011-2.558-0.078-3.801-0.508c-0.595-0.206-1.261-0.238-1.899-0.277
			c-1.283-0.078-2.569-0.121-3.854-0.15c-0.976-0.022-1.909-0.192-2.81-0.578c-0.288-0.124-0.62-0.188-0.935-0.2
			c-1.281-0.046-2.563-0.14-3.843,0.001c-0.156,0.017-0.304,0.102-0.455,0.156c0,0,0,0,0,0c0.151-0.054,0.299-0.137,0.453-0.155
			C29.582,41.636,30.864,41.729,32.145,41.776z"/>
		<path d="M74.837,29.889c-0.16,0.005-0.322-0.026-0.483-0.034c-0.97-0.052-1.915-0.185-2.834-0.55
			c-0.435-0.173-0.944-0.21-1.422-0.219c-2.904-0.058-5.808-0.13-8.712-0.121c-2.904,0.009-5.808,0.101-8.712,0.174
			c-0.479,0.012-0.985,0.032-1.427,0.193c-1.087,0.396-2.205,0.436-3.336,0.468c-2.258,0.064-4.516,0.152-6.774,0.215
			c-0.817,0.023-1.6,0.179-2.347,0.504c-0.455,0.198-0.938,0.24-1.419,0.27c-1.449,0.091-2.9,0.164-4.351,0.231
			c-0.657,0.03-1.251,0.262-1.859,0.481c-0.45,0.162-0.932,0.308-1.404,0.322c-1.301,0.038-2.576,0.141-3.751,0.775
			c-0.136,0.074-0.309,0.111-0.466,0.111c-1.487,0.003-2.801,0.699-4.205,1.022c-1.121,0.258-2.096,0.796-3.089,1.318
			c-0.134,0.07-0.303,0.22-0.316,0.347c-0.031,0.299-0.048,0.633,0.058,0.903c0.035,0.089,0.084,0.157,0.143,0.21
			c-0.056-0.052-0.102-0.119-0.136-0.205c-0.106-0.27-0.09-0.604-0.058-0.903c0.013-0.127,0.182-0.277,0.316-0.347
			c0.993-0.522,1.969-1.06,3.089-1.318c1.405-0.323,2.719-1.019,4.205-1.022c0.156,0,0.329-0.037,0.466-0.111
			c1.175-0.633,2.449-0.736,3.751-0.775c0.472-0.014,0.954-0.161,1.404-0.322c0.608-0.218,1.202-0.451,1.859-0.481
			c1.451-0.067,2.901-0.14,4.351-0.231c0.48-0.03,0.963-0.072,1.419-0.27c0.747-0.325,1.53-0.481,2.347-0.504
			c2.258-0.063,4.516-0.151,6.774-0.215c1.131-0.032,2.249-0.072,3.336-0.468c0.441-0.161,0.948-0.181,1.427-0.193
			c2.904-0.073,5.808-0.165,8.712-0.174c2.904-0.009,5.808,0.063,8.712,0.121c0.477,0.01,0.986,0.046,1.422,0.219
			c0.918,0.365,1.864,0.498,2.834,0.55c0.161,0.009,0.322,0.039,0.483,0.034c1.482-0.044,2.831,0.518,4.234,0.865
			c0.96,0.237,1.819,0.647,2.655,1.109c-0.839-0.464-1.7-0.875-2.662-1.113C77.668,30.407,76.319,29.845,74.837,29.889z"/>
		<path d="M35.726,36.029c0.112-0.089,0.24-0.132,0.384-0.128C35.965,35.897,35.838,35.939,35.726,36.029z"/>
		<path d="M81.007,35.028c-0.794,1.707-0.704,1.712-2.451,1.764c-0.161,0.005-0.323-0.002-0.484-0.015
			c-0.658-0.053-1.252,0.117-1.864,0.372c-1.191,0.497-2.221,1.32-3.474,1.683c-0.153,0.044-0.295,0.129-0.439,0.202
			c-0.583,0.295-1.201,0.464-1.85,0.517c-0.804,0.066-1.612,0.119-2.348,0.499c-0.589,0.304-1.218,0.41-1.87,0.38
			c-0.147-0.007-0.298-0.092-0.429-0.173c0,0,0,0,0,0c0.132,0.082,0.287,0.171,0.436,0.177c0.652,0.03,1.282-0.077,1.87-0.38
			c0.736-0.38,1.544-0.433,2.348-0.499c0.65-0.053,1.268-0.222,1.85-0.517c0.144-0.073,0.286-0.158,0.439-0.202
			c1.253-0.364,2.282-1.186,3.474-1.683c0.611-0.255,1.206-0.425,1.864-0.372c0.161,0.013,0.323,0.02,0.484,0.015
			c1.747-0.052,1.657-0.057,2.451-1.764c0.334-0.718,0.323-0.85-0.193-1.127c-0.002-0.001-0.004-0.002-0.006-0.004
			C81.33,34.178,81.34,34.31,81.007,35.028z"/>
		<ellipse transform="matrix(0.6 -0.8 0.8 0.6 -15.7034 49.9679)" cx="42.116" cy="40.687" rx="0.001" ry="0.001"/>
		<path d="M41.945,40.583c-0.001,0-0.001,0-0.002,0c0.007,0.037,0.028,0.061,0.032,0.1c0.047,0.002,0.093,0.003,0.14,0.005
			c0,0,0-0.001,0-0.001c-0.046-0.002-0.092-0.003-0.139-0.005l0.089-0.104c0,0,0,0,0,0l-0.089,0.103
			C41.973,40.642,41.952,40.619,41.945,40.583z"/>
		<path d="M38.268,52.738c0.611,0.242,1.234,0.353,1.882,0.375c4.517,0.153,9.034,0.201,13.55,0
			c0.478-0.021,0.979-0.065,1.421-0.228c0.924-0.343,1.869-0.463,2.842-0.505c1.289-0.055,2.577-0.144,3.865-0.226
			c0.486-0.031,0.943-0.171,1.393-0.36c0.443-0.187,0.895-0.355,1.392-0.378c1.126-0.051,2.249-0.18,3.38-0.133
			c0,0,6.642-3.861,6.834-6.166c-0.46,0.238-0.928,0.167-1.358-0.088c-0.001-0.001-0.002-0.002-0.003-0.002
			c-0.001-0.001-0.003-0.001-0.004-0.002c-0.276-0.164-0.538-0.359-0.779-0.571c-0.188-0.166-0.385-0.308-0.59-0.432
			c-0.616-0.371-1.303-0.569-2.033-0.679c-0.076-0.011-0.147-0.052-0.217-0.1c-0.069-0.047-0.137-0.102-0.208-0.144
			c0.098-0.101,0.179-0.237,0.298-0.298c0.854-0.443,1.716-0.873,2.577-1.303c0.575-0.287,1.116-0.652,1.769-0.762
			c1.274-0.213,2.392-0.947,3.708-1.057c1.35-0.112,2.434-0.849,3.329-1.803c0.769-0.82,1.432-1.742,2.128-2.63
			c0.426-0.543,0.332-1.721-0.169-2.251c-0.22-0.233-0.438-0.493-0.709-0.651c-0.041-0.024-0.082-0.046-0.122-0.07
			c-0.237-0.138-0.473-0.275-0.712-0.407c-0.836-0.462-1.696-0.872-2.655-1.109c-1.403-0.347-2.752-0.909-4.234-0.865
			c-0.161,0.005-0.322-0.025-0.483-0.034c-0.97-0.052-1.916-0.185-2.834-0.55c-0.436-0.173-0.945-0.209-1.422-0.219
			c-2.904-0.058-5.808-0.13-8.712-0.121c-2.904,0.009-5.808,0.101-8.712,0.174c-0.479,0.012-0.986,0.032-1.427,0.193
			c-1.087,0.396-2.205,0.436-3.336,0.468c-2.258,0.064-4.516,0.152-6.774,0.215c-0.817,0.023-1.6,0.179-2.347,0.504
			c-0.456,0.198-0.939,0.24-1.419,0.27c-1.45,0.091-2.9,0.164-4.351,0.231c-0.657,0.03-1.251,0.263-1.859,0.481
			c-0.45,0.161-0.932,0.308-1.404,0.322c-1.302,0.039-2.576,0.142-3.751,0.775c-0.137,0.074-0.31,0.111-0.466,0.111
			c-1.486,0.003-2.8,0.699-4.205,1.022c-1.12,0.258-2.096,0.796-3.089,1.318c-0.134,0.07-0.303,0.22-0.316,0.347
			c-0.032,0.299-0.048,0.633,0.058,0.903c0.034,0.086,0.08,0.154,0.136,0.205c0.168,0.15,0.421,0.164,0.695,0.106
			c0.31-0.065,0.596-0.173,0.892-0.323c0.864-0.434,1.713-0.931,2.626-1.222c0.917-0.293,1.857-0.509,2.757-0.875
			c0.437-0.178,0.936-0.229,1.414-0.274c0.803-0.076,1.611-0.089,2.415-0.153c0.318-0.025,0.667-0.047,0.939-0.189
			c1.349-0.705,2.806-0.691,4.258-0.672c0.83,0.01,1.583-0.169,2.302-0.573c0.429-0.241,0.925-0.278,1.407-0.298
			c1.773-0.074,3.547-0.133,5.321-0.197c0.653-0.024,1.268-0.194,1.871-0.441c0.295-0.121,0.614-0.199,0.929-0.252
			c0.317-0.054,0.642-0.071,0.964-0.073c6.131-0.031,12.263-0.065,18.394-0.077c1.128-0.002,2.257,0.079,3.384,0.143
			c0.318,0.018,0.658,0.051,0.943,0.177c1.213,0.536,2.496,0.576,3.788,0.636c0.963,0.045,1.95,0.076,2.874,0.317
			c0.93,0.242,1.84,0.56,2.784,0.78c0.307,0.072,0.599,0.21,0.885,0.369c0.099,0.055,0.198,0.113,0.296,0.171
			c0.181,0.107,0.362,0.214,0.545,0.312c0,0,0.001,0,0.001,0.001c0.002,0.001,0.004,0.002,0.006,0.004
			c0.516,0.277,0.527,0.409,0.193,1.127c-0.794,1.707-0.704,1.712-2.451,1.764c-0.161,0.005-0.323-0.002-0.484-0.015
			c-0.658-0.053-1.253,0.117-1.864,0.372c-1.192,0.497-2.221,1.319-3.474,1.683c-0.153,0.044-0.295,0.129-0.439,0.202
			c-0.582,0.295-1.2,0.464-1.85,0.517c-0.804,0.066-1.612,0.119-2.348,0.499c-0.588,0.303-1.218,0.41-1.87,0.38
			c-0.149-0.006-0.304-0.095-0.436-0.177c0,0,0,0,0,0c-0.002-0.001-0.005-0.003-0.007-0.004c-0.035-0.022-0.028-0.217,0.01-0.238
			c0.847-0.456,1.718-0.869,2.551-1.348c1.596-0.917,2.755-2.206,3.281-4.011c0.161-0.552-0.131-0.925-0.474-1.252
			c-0.11-0.106-0.241-0.221-0.379-0.311c-0.137-0.089-0.281-0.154-0.419-0.16c-1.932-0.085-3.866-0.129-5.8-0.148
			c-0.476-0.005-0.954,0.132-1.431,0.204c-1.076,0.797-2.444,0.782-3.621,1.302c-0.606,0.268-1.172,0.287-1.711,0.029
			c-0.179-0.085-0.355-0.201-0.529-0.348c-0.734-0.624-1.338-1.409-2.212-1.853c-0.276-0.139-0.61-0.179-0.924-0.222
			c-0.151-0.021-0.329,0.023-0.472,0.088c-0.879,0.395-1.789,0.74-2.616,1.226c-1.038,0.609-2.119,0.707-3.265,0.577
			c-0.481-0.054-0.963-0.126-1.445-0.137c-1.137-0.026-2.236,0.104-3.271,0.669c-1.182,0.646-2.481,0.628-3.774,0.451
			c-0.308-0.042-0.603-0.206-0.893-0.337c-0.438-0.198-0.848-0.482-1.303-0.614c-1.15-0.334-2.251-0.245-3.119,0.692
			c-1.094,1.182-2.157,2.393-3.189,3.541c-0.001,0.193,0.047,0.38,0.081,0.557c0.056,0.29,0.076,0.555-0.212,0.78
			c-0.118,0.091-0.299,0.145-0.45,0.142c-0.804-0.019-1.609-0.042-2.411-0.104c-0.314-0.024-0.647-0.102-0.924-0.246
			c-0.872-0.454-1.864-0.491-2.761-0.836c-0.097-0.038-0.181-0.094-0.269-0.146c-0.467-0.274-0.818-0.715-1.244-1.05
			c-0.501-0.389-1.212-0.373-1.757,0.063c-0.377,0.302-0.752,0.608-1.117,0.925c-0.12,0.104-0.196,0.256-0.304,0.375
			c-0.332,0.368-0.299,0.927,0.086,1.252c0.244,0.206,0.48,0.431,0.748,0.602c0.302,0.192,0.669,0.275,0.974,0.462
			c0.104,0.063,0.201,0.138,0.285,0.234c0.437,0.497,0.932,0.905,1.468,1.253c0.534,0.346,1.108,0.632,1.706,0.884
			c0.297,0.125,0.586,0.269,0.875,0.412c0.002,0.001,0.003,0.002,0.004,0.003c0.001,0,0.002,0.001,0.003,0.001
			c0.561,0.278,0.693,0.62,0.41,1.097c-0.246,0.415-0.502,0.825-0.769,1.226c-0.298,0.447-1.265,0.669-1.751,0.407
			c-0.002-0.001-0.004-0.002-0.006-0.003c1.559,1.714,5.942,5.237,11.124,6.35c0.221-0.214,0.5-0.341,0.837-0.344
			C36.382,52.341,37.355,52.377,38.268,52.738z M42.146,36.892c0.63-0.136,1.239-0.311,1.824-0.602
			c1.39-0.692,2.785-0.658,4.173,0.052c0.445,0.228,0.919,0.216,1.386,0.005c0.732-0.331,1.471-0.644,2.204-0.971
			c0.293-0.131,0.566-0.323,0.871-0.41c0.826-0.238,1.671-0.403,2.449-0.016c0.111,0.055,0.221,0.122,0.33,0.201
			c0.199,0.145,0.405,0.274,0.616,0.39c0.633,0.351,1.313,0.598,1.974,0.884c0.441,0.191,0.923,0.201,1.394-0.035
			c0.578-0.29,1.2-0.454,1.846-0.533c0.638-0.077,1.277-0.144,1.865-0.451c1.365-0.713,2.809-0.575,4.253-0.349
			c0.098,0.015,0.182,0.042,0.254,0.079c0.215,0.109,0.311,0.308,0.287,0.555c-0.015,0.153-0.026,0.319-0.094,0.45
			c-0.071,0.137-0.189,0.279-0.323,0.352c-0.986,0.538-1.926,1.185-3.083,1.326c-1.171,0.556-2.386,0.941-3.692,1.021
			c-0.313,0.019-0.627,0.139-0.925,0.253c-0.761,0.291-1.546,0.439-2.358,0.456c-1.053,0.022-2.108,0.044-3.276,0.069
			c-0.441,0.01-0.895,0.019-1.375,0.03c-0.274-0.007-0.576-0.014-0.891-0.021c-0.815-0.018-1.741-0.039-2.668-0.072
			c-0.482-0.017-1.012,0.023-1.433-0.161c-1.66-0.726-3.476-0.607-5.181-1.055c-0.11-0.028-0.213-0.085-0.314-0.146
			c-0.038-0.023-0.077-0.045-0.114-0.068c-0.282-0.178-0.524-0.419-0.593-0.735C41.502,37.158,41.763,36.975,42.146,36.892z
			 M35.726,36.029c0.112-0.09,0.24-0.132,0.384-0.128c0.072,0.002,0.148,0.014,0.229,0.039c0.329,0.098,0.524,0.273,0.435,0.482
			c-0.067,0.157-0.17,0.257-0.298,0.303c-0.128,0.047-0.279,0.041-0.442-0.013c-0.303-0.101-0.457-0.274-0.464-0.512
			C35.617,36.13,35.669,36.074,35.726,36.029z M33.749,38.19c0.202-0.255,0.546-0.41,0.852-0.246
			c0.706,0.38,1.377,0.797,2.212,0.854c0.817,0.055,1.535,0.471,2.305,0.7c0.773,0.23,1.611,0.125,2.37,0.438
			c0.262,0.108,0.401,0.341,0.457,0.647c0.04-0.003,0.08-0.002,0.121-0.005c0,0,0,0,0,0l0.001-0.001
			c0.014,0.039,0.033,0.073,0.05,0.11c1.519,0.051,3.039,0.094,4.558,0.161c0.382,0.017,0.664,0.189,0.619,0.31
			c-0.025,0.068-0.128,0.125-0.237,0.161c-0.058,0.02-0.118,0.035-0.169,0.04c-1.407,0.124-2.814,0.13-4.206-0.145
			c-0.265-0.053-0.445-0.259-0.566-0.526c-0.047-0.002-0.093-0.003-0.14-0.005c-0.004-0.039-0.025-0.063-0.032-0.1
			c-0.565,0.039-1.13,0.063-1.693,0.065c-0.04,0-0.08-0.003-0.12-0.003c-1.772-0.001-3.537-0.164-5.298-0.406
			c-0.299-0.041-0.587-0.256-0.849-0.436c-0.473-0.327-0.635-0.733-0.486-1.169C33.546,38.488,33.63,38.34,33.749,38.19z
			 M27.849,41.932c0.151-0.054,0.299-0.139,0.455-0.156c1.28-0.141,2.562-0.047,3.843-0.001c0.315,0.012,0.647,0.076,0.935,0.2
			c0.901,0.386,1.834,0.556,2.81,0.578c1.285,0.029,2.571,0.072,3.854,0.15c0.638,0.039,1.304,0.071,1.899,0.277
			c1.243,0.43,2.517,0.497,3.801,0.508c4.34,0.037,8.679,0.054,13.019,0.08c0.643,0.004,1.287-0.018,1.927,0.028
			c0.391,0.028,0.631,0.235,0.586,0.434c-0.03,0.135-0.184,0.272-0.317,0.348c-0.418,0.237-0.85,0.451-1.281,0.665h0
			c-0.001,0-0.001,0.001-0.002,0.001c-0.582,0.289-1.201,0.458-1.85,0.485c-0.642,0.026-1.285,0.039-1.927,0.023
			c-1.495-0.04-3-0.093-5.177-0.165c-0.392-0.013-0.799-0.027-1.24-0.041c-0.121-0.002-0.26-0.005-0.414-0.008
			c-1.079-0.022-2.907-0.062-4.735-0.082c-0.814-0.009-1.599-0.135-2.352-0.436c-0.459-0.184-0.942-0.225-1.42-0.218
			c-1.77,0.026-3.535-0.021-5.297-0.185c-0.648-0.06-1.266-0.224-1.843-0.518c-0.439-0.224-0.911-0.355-1.387-0.362
			c-1.167-0.019-2.173-0.502-3.19-0.985c-0.289-0.138-0.535-0.318-0.699-0.619C27.847,41.933,27.848,41.932,27.849,41.932
			C27.849,41.932,27.849,41.932,27.849,41.932z M33.091,49.681c-0.45-0.205-0.928-0.28-1.407-0.31
			c-1.333-0.084-2.459-0.682-3.565-1.353c-0.447-0.272-0.545-1.012-0.244-1.492c0.043-0.069,0.094-0.133,0.153-0.189
			c0.48-0.456,1.021-0.785,1.701-0.791c0.965-0.008,1.931-0.008,2.895,0.015c0.648,0.015,1.28,0.157,1.868,0.435
			c0.593,0.281,1.222,0.43,1.865,0.443c1.163,0.025,2.115,0.776,3.243,0.885c0.974,0.094,1.883,0.368,2.771,0.78
			c0.598,0.277,1.083,0.083,1.579-0.657c0.296-0.443,0.657-0.741,1.143-0.753c1.447-0.037,2.897-0.031,4.344,0.007
			c0.473,0.013,0.944,0.168,1.413,0.27c0.627,0.135,1.252,0.281,1.877,0.425c0.585,0.135,0.757,0.406,0.579,0.98
			c-0.048,0.154-0.176,0.328-0.138,0.454c0.085,0.284,0.355,0.44,0.688,0.534c0.318,0.09,0.651,0.136,0.945-0.02
			c1.845-0.977,3.668-1.993,5.579-2.841c1.026-0.456,2.027-0.942,3.158-1.142c0.613-0.108,1.169-0.51,1.77-0.728
			c0.459-0.166,1.019-0.217,1.398,0.049c0.967,0.679,2.038,0.91,3.173,0.999c0.156,0.012,0.309,0.072,0.462,0.113
			c0.39,0.104,0.543,0.353,0.446,0.74c-0.036,0.144-0.052,0.341-0.151,0.413c0,0-0.001,0.001-0.001,0.001
			c-0.001,0.001-0.001,0.003-0.002,0.003c-0.907,0.661-1.821,1.315-2.756,1.935c-0.258,0.171-0.59,0.277-0.899,0.315
			c-0.798,0.099-1.602,0.14-2.403,0.21c-0.481,0.041-1.004-0.017-1.434,0.156c-2.474,0.996-5.083,0.656-7.637,0.837
			c-0.647,0.046-1.263,0.138-1.875,0.371c-0.443,0.169-0.934,0.265-1.409,0.285c-1.927,0.079-3.859,0.119-6.07,0.183
			c-1.331-0.035-2.94-0.071-4.549-0.124c-0.319-0.01-0.661-0.021-0.949-0.137c-1.686-0.677-3.47-0.62-5.23-0.737
			C34.608,50.191,33.83,50.018,33.091,49.681z"/>
		<ellipse transform="matrix(0.9994 -0.0357 0.0357 0.9994 -1.4217 1.5229)" cx="41.944" cy="40.583" rx="0.001" ry="0.001"/>
		<path d="M82.445,32.274c-0.237-0.138-0.473-0.275-0.712-0.407C81.972,31.999,82.208,32.136,82.445,32.274z"/>
		<path d="M72.092,44.022c0.205,0.124,0.402,0.267,0.59,0.432c0.241,0.212,0.503,0.407,0.779,0.571
			c0.001,0.001,0.003,0.001,0.004,0.002c-0.275-0.163-0.536-0.358-0.776-0.569C72.499,44.291,72.3,44.146,72.092,44.022z"/>
		<path d="M18.833,36.619c0.31-0.065,0.595-0.174,0.892-0.323c0.863-0.434,1.713-0.931,2.626-1.222
			c0.918-0.292,1.857-0.508,2.757-0.875c0.437-0.178,0.937-0.229,1.414-0.274c0.803-0.076,1.611-0.089,2.415-0.153
			c0.318-0.025,0.667-0.047,0.939-0.189c1.349-0.705,2.806-0.69,4.258-0.672c0.83,0.011,1.582-0.168,2.302-0.573
			c0.429-0.241,0.925-0.278,1.407-0.298c1.773-0.074,3.547-0.132,5.321-0.197c0.653-0.024,1.268-0.194,1.871-0.441
			c0.295-0.121,0.614-0.199,0.929-0.252c0.316-0.054,0.642-0.071,0.964-0.073c6.131-0.031,12.263-0.065,18.394-0.077
			c1.128-0.002,2.257,0.079,3.384,0.143c0.318,0.018,0.657,0.051,0.943,0.177c1.213,0.537,2.496,0.576,3.788,0.636
			c0.963,0.045,1.95,0.076,2.874,0.317c0.93,0.242,1.84,0.56,2.784,0.78c0.304,0.071,0.594,0.208,0.878,0.365
			c-0.287-0.159-0.578-0.298-0.885-0.369c-0.944-0.22-1.854-0.538-2.784-0.78c-0.924-0.241-1.911-0.272-2.874-0.317
			c-1.292-0.06-2.575-0.1-3.788-0.636c-0.285-0.126-0.625-0.159-0.943-0.177c-1.127-0.064-2.256-0.145-3.384-0.143
			c-6.131,0.012-12.263,0.046-18.394,0.077c-0.322,0.002-0.647,0.019-0.964,0.073c-0.315,0.053-0.634,0.131-0.929,0.252
			c-0.603,0.247-1.218,0.417-1.871,0.441c-1.774,0.064-3.548,0.123-5.321,0.197c-0.482,0.02-0.978,0.057-1.407,0.298
			c-0.719,0.404-1.472,0.583-2.302,0.573c-1.452-0.019-2.909-0.033-4.258,0.672c-0.272,0.142-0.621,0.164-0.939,0.189
			c-0.804,0.064-1.612,0.077-2.415,0.153c-0.478,0.045-0.977,0.096-1.414,0.274c-0.9,0.366-1.84,0.582-2.757,0.875
			c-0.913,0.291-1.762,0.788-2.626,1.222c-0.296,0.15-0.582,0.258-0.892,0.323c-0.274,0.057-0.527,0.044-0.695-0.106
			C18.299,36.665,18.556,36.677,18.833,36.619z"/>
		<path d="M65.808,40.019c0.847-0.455,1.718-0.869,2.551-1.348c1.596-0.917,2.755-2.206,3.281-4.011
			c0.161-0.551-0.131-0.924-0.474-1.252c-0.113-0.108-0.246-0.224-0.386-0.315c0.138,0.09,0.269,0.205,0.379,0.311
			c0.343,0.327,0.635,0.7,0.474,1.252c-0.526,1.805-1.685,3.094-3.281,4.011c-0.833,0.479-1.704,0.892-2.551,1.348
			c-0.038,0.021-0.045,0.216-0.01,0.238c0.002,0.001,0.005,0.003,0.007,0.004C65.762,40.234,65.769,40.04,65.808,40.019z"/>
		<path d="M69.941,42.805c0.855-0.443,1.716-0.873,2.577-1.303c0.575-0.287,1.116-0.652,1.769-0.762
			c1.274-0.214,2.393-0.947,3.708-1.057c1.351-0.112,2.434-0.849,3.329-1.803c0.77-0.821,1.432-1.742,2.128-2.63
			c0.426-0.543,0.332-1.721-0.169-2.251c-0.221-0.233-0.438-0.493-0.709-0.651c-0.002-0.001-0.005-0.003-0.007-0.004
			c0.271,0.158,0.489,0.418,0.709,0.651c0.501,0.53,0.595,1.708,0.169,2.251c-0.696,0.888-1.359,1.81-2.128,2.63
			c-0.895,0.954-1.979,1.691-3.329,1.803c-1.316,0.11-2.434,0.844-3.708,1.057c-0.653,0.11-1.194,0.475-1.769,0.762
			c-0.861,0.43-1.723,0.86-2.577,1.303c-0.119,0.061-0.2,0.197-0.298,0.298c0.07,0.042,0.138,0.097,0.208,0.144
			c-0.067-0.046-0.133-0.099-0.2-0.14C69.741,43.002,69.822,42.867,69.941,42.805z"/>
		<path d="M55.058,32.119c0,0-0.001,0-0.001,0c0.875,0.445,1.478,1.23,2.212,1.853c0.174,0.147,0.35,0.263,0.529,0.348
			c-0.177-0.085-0.351-0.198-0.522-0.344C56.541,33.352,55.936,32.563,55.058,32.119z"/>
		<path d="M30.786,38.052c-0.001,0.193,0.047,0.379,0.081,0.557C30.833,38.431,30.785,38.245,30.786,38.052z"/>
		<path d="M25.564,43.615c-0.002-0.001-0.003-0.002-0.004-0.003c-0.289-0.143-0.578-0.287-0.875-0.412
			c-0.598-0.252-1.172-0.538-1.706-0.884c0.536,0.348,1.113,0.635,1.713,0.888C24.988,43.329,25.276,43.472,25.564,43.615z"/>
		<path d="M22.596,37.149c0.427,0.335,0.777,0.776,1.244,1.05c-0.464-0.275-0.813-0.714-1.238-1.047
			C22.6,37.151,22.598,37.15,22.596,37.149z"/>
		<path d="M80.814,33.901c-0.182-0.098-0.363-0.205-0.545-0.312C80.451,33.696,80.632,33.803,80.814,33.901
			C80.814,33.901,80.814,33.901,80.814,33.901z"/>
		<path d="M21.225,40.829c-0.304-0.187-0.672-0.271-0.974-0.462c0.001,0,0.001,0.001,0.002,0.002
			C20.554,40.56,20.921,40.644,21.225,40.829z"/>
		<path d="M40.652,50.982c0.288,0.116,0.63,0.127,0.949,0.137c1.609,0.053,3.218,0.089,4.549,0.124
			c-1.331-0.035-2.94-0.071-4.546-0.128c-0.319-0.01-0.66-0.021-0.949-0.137c-1.686-0.677-3.47-0.62-5.23-0.737
			c-0.813-0.054-1.592-0.227-2.331-0.564c-0.45-0.205-0.929-0.28-1.407-0.31c-1.333-0.083-2.459-0.681-3.565-1.353
			c-0.446-0.27-0.545-1.008-0.247-1.488c-0.301,0.48-0.203,1.22,0.244,1.492c1.106,0.671,2.232,1.269,3.565,1.353
			c0.479,0.03,0.957,0.105,1.407,0.31c0.739,0.337,1.517,0.51,2.331,0.564C37.182,50.362,38.966,50.305,40.652,50.982z"/>
		<path d="M66.981,49.197c-0.797,0.099-1.602,0.141-2.403,0.21c-0.481,0.042-1.005-0.017-1.434,0.156
			c-2.474,0.996-5.083,0.657-7.637,0.837c-0.647,0.045-1.263,0.137-1.875,0.371c-0.443,0.169-0.935,0.265-1.409,0.285
			c-1.93,0.083-3.862,0.123-6.073,0.187c2.211-0.064,4.143-0.104,6.07-0.183c0.475-0.02,0.966-0.116,1.409-0.285
			c0.612-0.233,1.228-0.325,1.875-0.371c2.554-0.181,5.163,0.159,7.637-0.837c0.43-0.173,0.953-0.115,1.434-0.156
			c0.801-0.07,1.605-0.111,2.403-0.21c0.309-0.038,0.641-0.144,0.899-0.315c0.935-0.62,1.849-1.274,2.756-1.935
			c0.001-0.001,0.001-0.003,0.002-0.003c-0.907,0.661-1.819,1.314-2.755,1.934C67.622,49.053,67.291,49.159,66.981,49.197z"/>
		<path d="M52.746,39.648c-0.274-0.007-0.576-0.014-0.891-0.021C52.17,39.634,52.471,39.641,52.746,39.648z"/>
		<path d="M42.145,38.125c0.037,0.023,0.076,0.045,0.114,0.068c-0.037-0.023-0.076-0.044-0.112-0.067
			c-0.282-0.178-0.524-0.419-0.593-0.735c-0.051-0.232,0.211-0.415,0.594-0.498c0.629-0.136,1.239-0.311,1.824-0.602
			c1.39-0.691,2.785-0.658,4.173,0.052c0.445,0.228,0.919,0.216,1.386,0.005c0.731-0.33,1.471-0.644,2.204-0.971
			c0.294-0.131,0.567-0.322,0.871-0.41c0.824-0.238,1.669-0.402,2.447-0.017c-0.778-0.387-1.624-0.222-2.449,0.016
			c-0.305,0.087-0.578,0.279-0.871,0.41c-0.733,0.327-1.472,0.64-2.204,0.971c-0.467,0.211-0.941,0.223-1.386-0.005
			c-1.388-0.71-2.783-0.744-4.173-0.052c-0.585,0.291-1.194,0.466-1.824,0.602c-0.383,0.083-0.644,0.266-0.594,0.498
			C41.621,37.706,41.863,37.947,42.145,38.125z"/>
		<path d="M54.12,39.618c-0.441,0.009-0.895,0.019-1.375,0.03C53.226,39.638,53.68,39.628,54.12,39.618z"/>
		<path d="M59.369,36.391c0.578-0.29,1.2-0.455,1.846-0.533c0.638-0.077,1.277-0.144,1.865-0.451
			c1.365-0.713,2.809-0.575,4.253-0.349c0.097,0.015,0.181,0.042,0.252,0.078c-0.071-0.037-0.156-0.064-0.254-0.079
			c-1.444-0.226-2.888-0.364-4.253,0.349c-0.588,0.307-1.227,0.374-1.865,0.451c-0.646,0.079-1.268,0.243-1.846,0.533
			c-0.471,0.236-0.953,0.226-1.394,0.035c-0.662-0.286-1.341-0.533-1.974-0.884c0.634,0.351,1.314,0.599,1.976,0.885
			C58.416,36.617,58.898,36.627,59.369,36.391z"/>
		<path d="M55.603,45.551c-1.498-0.039-3.003-0.092-5.179-0.164c2.177,0.072,3.682,0.125,5.177,0.165
			c0.642,0.016,1.285,0.003,1.927-0.023c0.649-0.027,1.268-0.196,1.85-0.485c0.001,0,0.001-0.001,0.002-0.001
			c-0.582,0.289-1.202,0.458-1.85,0.485C56.888,45.555,56.245,45.568,55.603,45.551z"/>
		<path d="M28.546,42.552c1.017,0.483,2.023,0.966,3.19,0.985c0.476,0.007,0.948,0.138,1.387,0.362
			c0.577,0.294,1.195,0.458,1.843,0.518c1.762,0.164,3.527,0.211,5.297,0.185c0.478-0.007,0.961,0.034,1.42,0.218
			c0.753,0.301,1.538,0.427,2.352,0.436c1.828,0.02,3.656,0.06,4.735,0.082c-1.079-0.022-2.906-0.062-4.733-0.083
			c-0.814-0.009-1.599-0.135-2.352-0.436c-0.46-0.183-0.942-0.225-1.42-0.218c-1.769,0.026-3.535-0.021-5.297-0.185
			c-0.648-0.06-1.266-0.224-1.843-0.518c-0.44-0.224-0.911-0.354-1.387-0.362c-1.167-0.019-2.174-0.502-3.19-0.985
			c-0.29-0.138-0.535-0.318-0.699-0.619c-0.001,0-0.001,0.001-0.002,0.001C28.011,42.234,28.257,42.414,28.546,42.552z"/>
		<path d="M33.984,39.8c0.262,0.18,0.551,0.395,0.849,0.436c1.759,0.243,3.524,0.408,5.297,0.408c0.04,0,0.08,0.003,0.12,0.003
			c0.564-0.002,1.128-0.026,1.693-0.065c-0.057-0.305-0.196-0.537-0.457-0.645c-0.758-0.313-1.597-0.208-2.37-0.438
			c-0.77-0.229-1.488-0.645-2.305-0.7c-0.834-0.057-1.506-0.474-2.212-0.854c-0.306-0.164-0.651-0.009-0.852,0.246
			c-0.118,0.149-0.201,0.297-0.251,0.441C33.349,39.069,33.511,39.474,33.984,39.8z"/>
		<path d="M41.977,40.681l0.089-0.103c-0.04,0.003-0.08,0.002-0.121,0.005C41.952,40.619,41.973,40.642,41.977,40.681z"/>
		<path d="M34.6,37.946c0.706,0.38,1.378,0.797,2.212,0.854c0.817,0.055,1.535,0.471,2.305,0.7c0.773,0.23,1.612,0.125,2.37,0.438
			c0.26,0.108,0.399,0.34,0.457,0.645c0.001,0,0.001,0,0.002,0c-0.057-0.306-0.195-0.538-0.457-0.647
			c-0.759-0.313-1.597-0.208-2.37-0.438c-0.77-0.229-1.488-0.645-2.305-0.7c-0.835-0.057-1.506-0.474-2.212-0.854
			c-0.306-0.164-0.65-0.009-0.852,0.246c-0.119,0.15-0.202,0.298-0.252,0.443c0.049-0.144,0.133-0.292,0.251-0.441
			C33.949,37.937,34.294,37.782,34.6,37.946z"/>
		<path d="M42.066,40.578c-0.04,0.003-0.08,0.002-0.121,0.005l0,0C41.985,40.58,42.025,40.581,42.066,40.578z"/>
		<path d="M40.25,40.648c-0.04,0-0.08-0.003-0.12-0.003C40.17,40.644,40.21,40.648,40.25,40.648z"/>
		<path d="M47.293,41.159c0.045-0.121-0.238-0.293-0.619-0.31c-1.518-0.067-3.038-0.11-4.557-0.161
			c0.12,0.268,0.301,0.472,0.566,0.525c1.392,0.275,2.799,0.269,4.206,0.145c0.051-0.004,0.11-0.019,0.168-0.039
			C47.165,41.283,47.267,41.227,47.293,41.159z"/>
		<path d="M46.674,40.849c0.381,0.017,0.664,0.189,0.619,0.31c-0.025,0.068-0.128,0.124-0.236,0.16
			c0.109-0.036,0.211-0.093,0.237-0.161C47.339,41.037,47.057,40.865,46.674,40.849c-1.518-0.068-3.038-0.111-4.557-0.162
			c0,0,0,0.001,0,0.001C43.636,40.739,45.156,40.782,46.674,40.849z"/>
		<path d="M42.115,40.687c-0.016-0.036-0.035-0.07-0.05-0.109l-0.089,0.104C42.023,40.684,42.069,40.685,42.115,40.687z"/>
		<path d="M42.117,40.687c-0.017-0.037-0.036-0.071-0.05-0.11l-0.001,0.001c0.014,0.039,0.033,0.072,0.05,0.109
			C42.116,40.687,42.116,40.687,42.117,40.687z"/>
		<path d="M36.034,36.711c0.163,0.054,0.314,0.06,0.441,0.013c0.127-0.047,0.23-0.146,0.297-0.303
			c0.089-0.21-0.105-0.384-0.435-0.482c-0.08-0.024-0.156-0.037-0.228-0.039c-0.144-0.003-0.271,0.039-0.384,0.128
			c-0.056,0.045-0.108,0.101-0.157,0.17C35.576,36.437,35.73,36.61,36.034,36.711z"/>
		<path d="M36.772,36.421c-0.066,0.157-0.17,0.256-0.297,0.303C36.603,36.678,36.706,36.578,36.772,36.421
			c0.09-0.209-0.105-0.384-0.434-0.482c-0.08-0.024-0.156-0.037-0.229-0.039c0.072,0.002,0.148,0.015,0.228,0.039
			C36.667,36.037,36.861,36.211,36.772,36.421z"/>
	</g>
</g>
</svg>
