<?xml version="1.0" encoding="iso-8859-1"?>
<!-- Generator: Adobe Illustrator 21.0.2, SVG Export Plug-In . SVG Version: 6.00 Build 0)  -->
<!DOCTYPE svg PUBLIC "-//W3C//DTD SVG 1.1//EN" "http://www.w3.org/Graphics/SVG/1.1/DTD/svg11.dtd">
<svg version="1.1" id="Layer_1" xmlns="http://www.w3.org/2000/svg" xmlns:xlink="http://www.w3.org/1999/xlink" x="0px" y="0px"
	 viewBox="0 0 101.967 80.938" style="enable-background:new 0 0 101.967 80.938;" xml:space="preserve">
<g>
	<path style="fill:#FFFFFF;" d="M28.2,52.081c0,0-5-8.333-7.667-10.333s-6-6.667-6-6.667s1.333-4,4.667-5s26-4.333,26-4.333
		s20.333-0.667,25.333-0.333c5,0.333,18,4,12,9.333s-7,3.667-7,3.667l-5,9c0,0-3.333,3.333-6.333,4s-12.667,2-12.667,2
		S40.867,52.081,39.2,52.081s-6.333-0.667-6.333-0.667L28.2,52.081z"/>
	<g>
		<path style="fill:none;" d="M30.688,55.577c-0.037,0.102-0.08,0.177-0.128,0.23c0.049-0.053,0.092-0.13,0.13-0.233
			c0.049-0.133,0.045-0.304,0.011-0.445c-0.08-0.333-0.265-0.623-0.428-0.923c-0.001,0-0.003-0.001-0.004-0.001
			c0.164,0.302,0.349,0.593,0.43,0.927C30.733,55.273,30.737,55.444,30.688,55.577z"/>
		<path style="fill:none;" d="M71.077,50.447c-0.235,0.249-0.297,0.559-0.329,0.878c-0.035,0.356,0.046,0.651,0.368,0.833
			c0.856,0.486,1.747,0.852,2.703,1.027c-0.94-0.178-1.818-0.541-2.661-1.019c-0.322-0.182-0.404-0.477-0.368-0.833
			c0.032-0.319,0.094-0.629,0.329-0.878c0.332-0.352,0.704-0.666,1.028-1.024c0.017-0.019,0.031-0.039,0.047-0.059
			c-0.029,0.016-0.062,0.036-0.089,0.051C71.781,49.781,71.409,50.095,71.077,50.447z"/>
		<polygon style="fill:none;" points="68.294,51.778 68.048,51.741 68.156,52.016 68.049,51.742 		"/>
		<path style="fill:#FFFFFF;" d="M58.315,53.75L58.315,53.75c0.127-0.099,0.239-0.237,0.382-0.289
			c0.095-0.034,0.194-0.056,0.291-0.083c-0.006,0.001-0.012,0.002-0.018,0.003c-0.091,0.026-0.183,0.046-0.272,0.078
			C58.554,53.51,58.442,53.65,58.315,53.75z"/>
		<polygon style="fill:#FFFFFF;" points="68.294,51.778 68.049,51.742 68.156,52.016 68.336,51.784 		"/>
		<polygon style="fill:#FFFFFF;" points="68.336,51.784 68.156,52.016 68.337,51.784 68.294,51.778 		"/>
		<path d="M54.629,35.288c0.034,0.049,0.058,0.097,0.049,0.109C54.687,35.385,54.664,35.338,54.629,35.288z"/>
		<path d="M53.922,30.136c-0.111-0.022-0.218-0.052-0.335-0.063c-0.637-0.056-1.274-0.083-2.232-0.142
			c0.958,0.06,1.595,0.086,2.23,0.142C53.703,30.083,53.81,30.113,53.922,30.136z"/>
		<path d="M55.835,32.032c-0.096,0.301-0.255,0.576-0.6,0.654c-0.16,0.036-0.323,0.059-0.485,0.087
			c0.163-0.028,0.326-0.051,0.487-0.087c0.345-0.078,0.504-0.353,0.6-0.654c0.109-0.34,0.04-0.598-0.2-0.877
			c-0.274-0.317-0.579-0.569-0.92-0.752c0.34,0.182,0.645,0.434,0.918,0.751C55.875,31.434,55.944,31.692,55.835,32.032z"/>
		<path d="M54.493,35.148c0.041,0.022,0.088,0.074,0.125,0.124C54.581,35.222,54.534,35.17,54.493,35.148z"/>
		<path d="M53.927,35.641c0.149,0.046,0.29,0.047,0.417,0.005C54.217,35.687,54.076,35.686,53.927,35.641z"/>
		<path d="M52.894,39.594c0.12,0.034,0.242,0.062,0.361,0.086c-0.119-0.024-0.24-0.052-0.359-0.086
			c-0.336-0.097-0.469-0.392-0.562-0.686c-0.118-0.37-0.038-0.611,0.278-0.837c0.523-0.373,1.126-0.577,1.708-0.804
			c0.587-0.229,1.23-0.31,1.84-0.487c0.608-0.176,1.079-0.65,1.711-0.794c0.091-0.021,0.175-0.033,0.255-0.035
			c-0.08,0.002-0.166,0.014-0.257,0.035c-0.632,0.144-1.103,0.618-1.711,0.794c-0.61,0.176-1.252,0.258-1.84,0.487
			c-0.582,0.227-1.185,0.43-1.708,0.804c-0.316,0.226-0.396,0.467-0.278,0.837C52.426,39.202,52.558,39.497,52.894,39.594z"/>
		<path d="M52.493,33.403c-0.39,0.272-0.74,0.602-1.102,0.914c-0.12,0.104-0.22,0.23-0.332,0.343
			c-0.462,0.468-0.771,1.023-0.819,1.679c-0.092,1.267-0.136,2.538-0.228,3.806c-0.038,0.526-0.454,0.823-0.847,1.084
			c-0.203,0.135-0.425,0.215-0.657,0.262c0.232-0.047,0.455-0.127,0.659-0.262c0.393-0.261,0.809-0.558,0.847-1.084
			c0.092-1.267,0.135-2.538,0.228-3.806c0.048-0.657,0.357-1.211,0.819-1.679c0.112-0.113,0.212-0.24,0.332-0.343
			c0.361-0.312,0.712-0.642,1.102-0.914c0.254-0.177,0.559-0.313,0.861-0.381c0.16-0.036,0.323-0.059,0.485-0.087
			c-0.163,0.028-0.326,0.051-0.487,0.087C53.052,33.09,52.747,33.226,52.493,33.403z"/>
		<path d="M38.414,35.898c0.841-0.086,1.695-0.133,2.553-0.158C40.109,35.764,39.255,35.812,38.414,35.898z"/>
		<path d="M54.843,39.788c-0.203,0.009-0.427,0.019-0.71,0.033C54.416,39.807,54.64,39.797,54.843,39.788z"/>
		<path d="M29.988,53.371c-0.013-0.202,0-0.362,0.064-0.484c-0.066,0.122-0.08,0.283-0.066,0.487
			C30.007,53.685,30.009,53.683,29.988,53.371z"/>
		<path d="M39.745,32.4c-0.897,0.424-1.855,0.572-2.829,0.508c-2.742-0.182-5.479-0.101-8.219,0.055
			c-0.845,0.048-1.547,0.407-2.199,0.895c-0.776,0.581-1.53,1.19-1.904,2.131c-0.067,0.169-0.061,0.306,0.013,0.408
			c-0.072-0.101-0.077-0.238-0.01-0.405c0.374-0.941,1.128-1.55,1.904-2.131c0.652-0.488,1.354-0.847,2.199-0.895
			c2.739-0.156,5.476-0.237,8.219-0.055c0.974,0.064,1.931-0.084,2.829-0.508c0.596-0.282,1.236-0.347,1.882-0.366
			c0.531-0.016,1.02,0.038,1.383,0.316c-0.364-0.28-0.854-0.334-1.386-0.319C40.98,32.053,40.341,32.118,39.745,32.4z"/>
		<path d="M20.742,40.237L20.742,40.237c-0.031-0.01-0.067-0.017-0.103-0.024C20.675,40.22,20.711,40.227,20.742,40.237z"/>
		<path d="M20.305,39.836L20.305,39.836c0.02,0.102,0.043,0.202,0.099,0.279c0.029,0.04,0.085,0.061,0.148,0.077
			c-0.062-0.016-0.118-0.036-0.147-0.077C20.35,40.038,20.326,39.938,20.305,39.836z"/>
		<path d="M56.371,29.289c-0.958-0.589-1.912-1.191-3.093-1.278c-1.29-0.095-2.577-0.086-3.867-0.032
			c-0.996,0.042-1.871,0.369-2.726,0.87c-0.728,0.427-1.216,1.008-1.615,1.732c-0.398,0.721-0.652,1.456-0.69,2.284
			c-0.016,0.355-0.263,0.587-0.524,0.569c-0.062-0.004-0.138-0.049-0.204-0.108c0.066,0.061,0.143,0.107,0.207,0.111
			c0.261,0.018,0.508-0.213,0.524-0.569c0.038-0.828,0.292-1.562,0.69-2.284c0.399-0.723,0.887-1.305,1.615-1.732
			c0.855-0.501,1.73-0.828,2.726-0.87c1.291-0.054,2.577-0.063,3.867,0.032c1.181,0.087,2.135,0.688,3.093,1.278
			c0.129,0.079,0.244,0.192,0.347,0.317C56.617,29.482,56.501,29.369,56.371,29.289z"/>
		<path d="M65.693,27.187c-1.555,0.439-2.97,1.224-4.279,2.183c-0.614,0.747-1.156,1.529-1.324,2.513
			c-0.046,0.269,0.014,0.494,0.158,0.656c-0.142-0.161-0.2-0.386-0.155-0.653c0.168-0.984,0.71-1.766,1.324-2.513
			c1.309-0.959,2.724-1.745,4.279-2.183c1.098-0.31,2.218-0.255,3.201,0.547c0.13,0.106,0.256,0.213,0.378,0.322
			c-0.122-0.11-0.25-0.218-0.381-0.325C67.911,26.933,66.792,26.878,65.693,27.187z"/>
		<path d="M66.913,24.767c-0.272-0.068-0.542-0.155-0.808-0.27c-0.148-0.063-0.311-0.101-0.477-0.123
			c0.152,0.023,0.301,0.058,0.435,0.116C66.343,24.609,66.627,24.697,66.913,24.767z"/>
		<path d="M76.4,26.047c0.227,0.035,0.45,0.081,0.67,0.134C76.849,26.129,76.627,26.081,76.4,26.047z"/>
		<path d="M75.559,25.963c0.002,0,0.004,0.001,0.006,0.001c-0.3-0.021-0.602-0.148-0.887-0.266c-0.312-0.128-0.628-0.237-0.95-0.321
			c0.308,0.082,0.61,0.19,0.908,0.313C74.933,25.812,75.248,25.95,75.559,25.963z"/>
		<path d="M47.796,41.556c0.099-0.002,0.197-0.007,0.296-0.014C47.993,41.549,47.894,41.554,47.796,41.556
			C47.795,41.556,47.796,41.556,47.796,41.556z"/>
		<path d="M61.588,39.449c-0.435-0.181-0.7-0.57-0.698-1.269C60.888,38.879,61.154,39.268,61.588,39.449z"/>
		<path d="M54.18,30.184c0.108,0.032,0.207,0.082,0.309,0.126C54.387,30.266,54.288,30.216,54.18,30.184z"/>
		<path d="M68.342,37.273c-0.192,0.451-0.503,0.828-0.913,1.062c-0.969,0.554-2.129,0.576-3.131,1.069
			c-0.271,0.133-0.614,0.135-0.928,0.161c-0.315,0.027-0.634,0.007-1.185,0.007c0.551,0,0.87,0.02,1.185-0.006
			c0.313-0.026,0.657-0.028,0.928-0.161c1.002-0.493,2.163-0.515,3.131-1.069C67.838,38.102,68.15,37.725,68.342,37.273
			c0.115-0.269-0.053-0.766-0.296-1.018C68.288,36.507,68.456,37.004,68.342,37.273z"/>
		<path d="M48.369,41.51c-0.072,0.011-0.142,0.024-0.215,0.03C48.227,41.533,48.298,41.52,48.369,41.51z"/>
		<path d="M82.089,31.558c0.268,0.629,0.247,1.24-0.113,1.834c-0.257,0.425-0.621,0.755-1.029,1.006
			c-1.373,0.845-2.857,1.479-4.304,2.183c-1.13,0.151-2.123,0.739-3.214,1.013c-0.311,0.078-0.638,0.098-0.959,0.125
			c-0.449,0.038-0.898,0.005-1.233-0.228c0.335,0.234,0.785,0.269,1.236,0.231c0.321-0.028,0.648-0.047,0.959-0.125
			c1.091-0.273,2.083-0.862,3.214-1.013c1.447-0.703,2.931-1.337,4.304-2.183c0.408-0.251,0.771-0.581,1.029-1.006
			c0.36-0.594,0.381-1.206,0.113-1.834c-0.063-0.148-0.128-0.303-0.226-0.427c-0.177-0.222-0.358-0.439-0.546-0.649
			c0.187,0.209,0.367,0.425,0.543,0.646C81.962,31.255,82.026,31.41,82.089,31.558z"/>
		<path d="M71.717,32.843c-0.265-0.041-0.477-0.144-0.637-0.299c0.16,0.156,0.373,0.26,0.64,0.302
			c0.987,0.152,1.821,0.633,2.58,1.243c-0.001-0.001-0.001-0.002-0.002-0.002C73.538,33.476,72.704,32.995,71.717,32.843z"/>
		<path d="M19.785,39.689c-0.679-0.012-1.243-0.267-1.677-0.797c0,0,0,0,0.001,0.001c0.434,0.532,0.999,0.787,1.679,0.799
			c0.125,0,0.251-0.008,0.377-0.013c0,0,0,0,0-0.001C20.039,39.683,19.912,39.691,19.785,39.689z"/>
		<path d="M25.819,38.436c0.613-0.56,1.339-0.859,2.201-0.77c0.64,0.066,1.284,0.106,1.927,0.119
			c0.318,0.006,0.654-0.031,0.953-0.133c0.294-0.1,0.551-0.308,0.825-0.469c0.167-0.619,0.277-1.242-0.089-1.828
			c-0.047-0.075-0.1-0.14-0.159-0.197c0.058,0.056,0.11,0.12,0.156,0.194c0.366,0.586,0.256,1.209,0.089,1.828
			c-0.273,0.161-0.531,0.368-0.825,0.469c-0.299,0.102-0.635,0.139-0.953,0.133c-0.643-0.012-1.287-0.053-1.927-0.119
			c-0.862-0.089-1.588,0.21-2.201,0.77c-0.399,0.364-0.868,0.415-1.339,0.397c-0.809-0.03-1.602-0.198-2.351-0.515
			c-0.517-0.219-0.942-0.012-1.344,0.253c-0.392,0.259-0.608,0.635-0.617,1.11c0.001,0,0.002,0,0.003,0
			c0.009-0.472,0.225-0.849,0.616-1.107c0.402-0.264,0.827-0.472,1.344-0.253c0.749,0.317,1.543,0.485,2.351,0.515
			C24.951,38.85,25.42,38.8,25.819,38.436z"/>
		<path d="M68.143,31.899c-0.55,0.638-1.239,1.032-2.086,1.066c-0.809,0.033-1.604,0.082-2.357,0.43
			c-1.227,0.567-2.529,0.392-3.805,0.295c-0.349-0.026-0.684-0.229-0.94-0.5c0.256,0.272,0.592,0.477,0.943,0.503
			c1.276,0.096,2.578,0.272,3.805-0.295c0.753-0.348,1.547-0.397,2.357-0.43c0.847-0.035,1.536-0.428,2.086-1.066
			c0.335-0.389,0.436-0.87,0.341-1.343c-0.05-0.247-0.171-0.458-0.332-0.637c0.16,0.178,0.28,0.388,0.329,0.634
			C68.58,31.03,68.479,31.51,68.143,31.899z"/>
		<path d="M35.551,41.855c0.156,0.008,0.314,0.038,0.469,0.079c-0.157-0.042-0.316-0.071-0.473-0.08
			c-0.639-0.035-1.284-0.01-1.929-0.01C34.263,41.844,34.908,41.819,35.551,41.855z"/>
		<path d="M34.415,44.352c-0.014-0.004-0.034-0.011-0.049-0.016C34.381,44.34,34.401,44.348,34.415,44.352z"/>
		<path d="M42.207,42.727c2.902-0.141,5.805-0.075,8.708-0.085c1.613-0.006,3.225-0.041,4.838-0.078
			c0.483-0.011,1.01,0.037,1.438-0.136c2.003-0.812,4.134-0.581,6.202-0.849c0.317-0.041,0.649-0.077,0.94-0.198
			c1.063-0.44,2.184-0.551,3.31-0.63c0.815-0.057,1.581-0.269,2.329-0.588c0.915-0.39,1.881-0.395,2.848-0.302
			c-0.001,0-0.001-0.001-0.002-0.001c-0.968-0.092-1.935-0.088-2.85,0.302c-0.748,0.319-1.513,0.531-2.329,0.588
			c-1.126,0.079-2.247,0.189-3.31,0.63c-0.291,0.121-0.622,0.156-0.94,0.198c-2.068,0.268-4.199,0.037-6.202,0.849
			c-0.428,0.174-0.955,0.125-1.438,0.136c-1.612,0.038-3.225,0.073-4.838,0.078c-2.903,0.01-5.806-0.056-8.708,0.085
			c-1.292,0.063-2.578-0.046-3.865-0.159c-0.325-0.028-0.638-0.091-0.946-0.176c0.309,0.085,0.624,0.148,0.95,0.177
			C39.628,42.681,40.915,42.79,42.207,42.727z"/>
		<path d="M39.127,45.234c-0.458-0.147-0.902-0.348-1.367-0.478C38.225,44.887,38.669,45.088,39.127,45.234z"/>
		<path d="M45.291,50.82c-0.603-0.251-1.22-0.377-1.866-0.406c-1.284-0.058-2.567-0.122-3.851-0.18
			c-0.643-0.029-1.291-0.068-1.892-0.307c-0.761-0.302-1.549-0.414-2.354-0.43c-2.248-0.045-4.496-0.062-6.743-0.121
			c-0.654-0.017-1.236-0.224-1.561-0.897c-0.488-1.008-1.016-1.997-1.531-2.993c-0.232-0.448,0.09-0.787,0.738-0.798
			c0.2-0.003,0.4-0.006,0.6-0.005c-0.201-0.002-0.402,0.001-0.604,0.005c-0.648,0.011-0.97,0.35-0.738,0.798
			c0.515,0.995,1.043,1.984,1.531,2.993c0.326,0.673,0.907,0.88,1.561,0.897c2.247,0.059,4.496,0.076,6.743,0.121
			c0.805,0.016,1.593,0.129,2.354,0.43c0.602,0.239,1.249,0.278,1.892,0.307c1.284,0.058,2.567,0.122,3.851,0.18
			c0.646,0.029,1.263,0.155,1.866,0.406c0.44,0.183,0.911,0.343,1.38,0.391c1.442,0.145,2.885,0.231,4.521,0.354
			c-1.636-0.123-3.079-0.209-4.517-0.354C46.201,51.164,45.73,51.003,45.291,50.82z"/>
		<path d="M49.222,47.367c0.001,0,0.002,0,0.003,0.001c-0.332-0.17-0.672-0.303-1.018-0.409
			C48.552,47.065,48.891,47.197,49.222,47.367z"/>
		<path d="M72.446,47.222c-0.481-0.797-0.47-1.476,0.187-2.137c1.235-2.103,2.807-3.93,4.557-5.619
			c0.941-0.908,1.956-1.706,3.174-2.176c1.407-0.543,2.454-1.525,3.437-2.601c0.211-0.231,0.347-0.54,0.48-0.83
			c0.202-0.44,0.37-0.895,0.55-1.336c-0.095-0.316-0.191-0.621-0.28-0.928c-0.478-1.657-1.585-2.805-3.077-3.546
			c-1.412-0.702-2.805-1.479-4.342-1.855c1.52,0.379,2.9,1.151,4.3,1.847c1.492,0.741,2.598,1.889,3.077,3.546
			c0.089,0.307,0.184,0.612,0.28,0.928c-0.18,0.441-0.348,0.896-0.55,1.336c-0.133,0.29-0.269,0.599-0.48,0.83
			c-0.983,1.076-2.031,2.058-3.437,2.601c-1.217,0.47-2.233,1.268-3.174,2.176c-1.751,1.689-3.322,3.515-4.557,5.619
			c-0.657,0.661-0.667,1.34-0.187,2.137c0.465,0.771,0.299,1.548-0.299,2.209c0.027-0.015,0.061-0.035,0.089-0.051
			C72.75,48.724,72.897,47.971,72.446,47.222z"/>
		<path d="M31.282,42.096c0.246-0.224,0.566-0.303,0.89-0.314c0.161-0.005,0.322-0.018,0.483-0.019
			c0.321-0.003,0.642-0.001,0.963-0.001v-0.001c-0.322,0-0.645-0.002-0.967,0.001c-0.161,0.002-0.322,0.014-0.483,0.019
			c-0.324,0.011-0.644,0.09-0.89,0.314c-0.131,0.119,0.411,1.012,0.7,1.185c0.462,0.278,1.471,0.739,2.138,0.975
			c-0.667-0.236-1.673-0.697-2.134-0.974C31.694,43.107,31.152,42.215,31.282,42.096z"/>
		<path d="M58.808,49.585c0.386,0.095,0.766,0.221,1.147,0.37c0.195,0.077,0.392,0.144,0.589,0.202
			c-0.196-0.058-0.391-0.125-0.585-0.201C59.577,49.806,59.195,49.68,58.808,49.585z"/>
		<path d="M49.936,47.503c0.701,0.17,1.372,0.432,2.053,0.687c0.122,0.046,0.25,0.075,0.378,0.103
			c-0.127-0.028-0.253-0.057-0.374-0.102C51.311,47.936,50.638,47.673,49.936,47.503z"/>
		<path d="M42.163,45.658c0.498,0.084,0.971,0.244,1.445,0.432c0.222,0.088,0.454,0.161,0.689,0.219
			c-0.234-0.058-0.464-0.13-0.685-0.218C43.136,45.902,42.662,45.742,42.163,45.658z"/>
		<path d="M54.367,48.598c0.155,0.044,0.306,0.099,0.446,0.17c0.222,0.113,0.449,0.204,0.678,0.279
			c-0.228-0.074-0.454-0.165-0.674-0.278C54.676,48.697,54.523,48.642,54.367,48.598z"/>
		<path d="M33.046,40.052c0.055,0.123,0.209,0.232,0.343,0.285c1.069,0.422,2.195,0.392,3.305,0.306
			c0.454-0.035,0.888-0.323,1.331-0.494c0.459-0.177,0.91-0.246,1.349,0.065c0.13,0.092,0.277,0.161,0.421,0.23
			c1.076,0.515,2.166,0.425,3.257,0.062c0.149-0.05,0.301-0.121,0.424-0.217c0.629-0.498,1.227-1.027,1.588-1.765
			c0.107-0.22,0.153-0.441,0.149-0.66c0.004,0.219-0.042,0.44-0.149,0.659c-0.361,0.738-0.96,1.267-1.588,1.765
			c-0.122,0.097-0.274,0.168-0.424,0.217c-1.092,0.363-2.182,0.453-3.257-0.062c-0.144-0.069-0.291-0.138-0.421-0.23
			c-0.439-0.311-0.89-0.243-1.349-0.065c-0.443,0.171-0.877,0.459-1.331,0.494c-1.11,0.086-2.236,0.116-3.305-0.306
			C33.255,40.283,33.101,40.174,33.046,40.052c-0.074-0.169-0.1-0.329-0.081-0.474C32.945,39.723,32.971,39.884,33.046,40.052z"/>
		<polygon points="34.465,36.381 34.17,36.444 34.17,36.444 		"/>
		<path d="M26.422,41.687c-1.205,0.108-2.405,0.041-3.578-0.337c-0.111-0.036-0.192-0.166-0.286-0.252
			c0.122-0.098,0.233-0.215,0.368-0.288c0.13-0.07,0.284-0.13,0.43-0.133c0.138-0.003,0.276-0.005,0.41-0.006
			c-0.134,0.001-0.272,0.003-0.411,0.006c-0.145,0.003-0.299,0.063-0.43,0.133c-0.135,0.073-0.246,0.19-0.368,0.288
			c0.095,0.086,0.175,0.216,0.286,0.252C24.016,41.728,25.216,41.794,26.422,41.687z"/>
		<polygon points="34.204,36.234 34.204,36.234 34.465,36.381 		"/>
		<path d="M24.234,40.669c0.257,0,0.462,0.002,0.561,0.002C24.696,40.671,24.492,40.669,24.234,40.669z"/>
		<path d="M23.133,46.094c-0.5-0.536-1.055-1.009-1.714-1.349c1.016,0.897,2.081,1.941,3.085,3.105
			c-0.021-0.102-0.056-0.198-0.124-0.276C23.96,47.084,23.572,46.565,23.133,46.094z"/>
		<path d="M72.404,47.214c-0.48-0.797-0.47-1.476,0.187-2.137c1.235-2.104,2.806-3.93,4.557-5.619
			c0.941-0.908,1.957-1.706,3.174-2.176c1.406-0.543,2.454-1.525,3.437-2.601c0.211-0.231,0.347-0.54,0.48-0.83
			c0.202-0.44,0.37-0.895,0.55-1.336c-0.096-0.316-0.191-0.621-0.28-0.928c-0.479-1.657-1.585-2.805-3.077-3.546
			c-1.4-0.696-2.78-1.468-4.3-1.847c-0.021-0.005-0.042-0.008-0.062-0.013c-0.22-0.053-0.443-0.099-0.67-0.134
			c-0.261-0.039-0.527-0.065-0.799-0.076c-0.012,0-0.024-0.006-0.035-0.007c-0.002,0-0.004-0.001-0.006-0.001
			c-0.311-0.013-0.626-0.151-0.922-0.273c-0.299-0.123-0.6-0.23-0.908-0.313c-0.298-0.077-0.602-0.134-0.916-0.152
			c-1.128-0.068-2.255-0.172-3.384-0.205c-0.852-0.025-1.696-0.049-2.516-0.253c-0.286-0.069-0.57-0.157-0.85-0.278
			c-0.135-0.058-0.283-0.092-0.435-0.116c-0.157-0.021-0.318-0.03-0.472-0.032c-3.39-0.026-6.781-0.147-10.171,0.021
			c-0.482,0.024-0.968,0.032-1.427,0.222c-0.913,0.38-1.88,0.43-2.851,0.453c-2.26,0.054-4.52,0.115-6.78,0.164
			c-1.295,0.028-2.569,0.121-3.793,0.628c-0.433,0.179-0.944,0.209-1.423,0.234c-1.612,0.083-3.227,0.121-4.839,0.202
			c-0.479,0.024-1,0.03-1.422,0.221c-1.218,0.55-2.501,0.6-3.792,0.662c-0.656,0.032-1.27,0.222-1.848,0.52
			c-0.441,0.228-0.92,0.284-1.396,0.365c-0.634,0.108-1.297,0.098-1.889,0.385c-0.881,0.428-1.867,0.511-2.765,0.862
			c-0.751,0.294-1.504,0.57-2.265,0.838c-0.906,0.319-1.787,0.741-2.623,1.215c-0.843,0.477-1.579,1.113-2.134,1.934
			c-0.25,0.37-0.312,0.98-0.086,1.368c0.243,0.418,0.461,0.853,0.735,1.249c1.1,1.588,2.015,3.306,3.322,4.751
			c0.26,0.288,1.994,2.598,3.672,4.076c0.694,0.342,1.272,0.833,1.793,1.391c0.44,0.471,0.827,0.991,1.247,1.48
			c0.079,0.092,0.118,0.206,0.134,0.327c1.419,1.655,2.453,2.916,3.25,4.958c0.065,0.087,0.916,0.351,2.214,0.711
			c-0.138-0.256-0.012,0.106-0.033-0.206c-0.014-0.203,0-0.364,0.066-0.487c0.065-0.123,0.181-0.207,0.374-0.255
			c0.152-0.038,0.299-0.132,0.449-0.135c1.453-0.028,2.909-0.075,4.283,0.542c0.452,0.203,0.946,0.188,1.427,0.197
			c2.421,0.045,4.842,0.076,7.263,0.121c1.453,0.027,2.905,0.074,4.357,0.107c0.814,0.019,1.607,0.134,2.348,0.493
			c0.595,0.288,1.241,0.344,1.881,0.412c0.923-0.173,3.507-0.493,6.537-0.989c0.678-0.193,1.392-0.256,2.035-0.583
			c0.451-0.229,0.956-0.243,1.414-0.098c0.043,0.014,0.086,0.026,0.129,0.039c4.013-0.794,8.001-1.881,9.556-3.315
			C72.703,48.762,72.869,47.985,72.404,47.214z M20.785,38.571c-0.392,0.258-0.607,0.635-0.616,1.107
			c0.033-0.001,0.067-0.002,0.1-0.003v0.001l0.001-0.001c0.014,0.052,0.024,0.106,0.035,0.161c0.275,0.114,0.427,0.247,0.438,0.401
			h-0.001l0,0c-0.031-0.01-0.067-0.017-0.103-0.024c-0.03-0.006-0.059-0.014-0.088-0.021c-0.063-0.016-0.119-0.037-0.148-0.077
			c-0.056-0.077-0.079-0.177-0.1-0.279c-0.047-0.019-0.089-0.039-0.143-0.057c0-0.002,0.001-0.004,0-0.006l-0.003,0.003
			c-0.002-0.034,0.007-0.063,0.007-0.096c-0.126,0.006-0.253,0.013-0.377,0.013c-0.68-0.012-1.245-0.267-1.679-0.799
			c0,0,0,0-0.001-0.001s-0.002-0.001-0.002-0.002c-0.102-0.125-0.228-0.232-0.315-0.365c-0.705-1.076-1.404-2.157-2.105-3.237
			c-0.179-0.276-0.037-1.104,0.24-1.345c0.242-0.211,0.456-0.478,0.733-0.622c1.285-0.667,2.55-1.399,3.895-1.917
			c1.193-0.459,2.427-0.832,3.637-1.259c0.453-0.16,0.961-0.188,1.389-0.392c0.893-0.426,1.821-0.632,2.8-0.656
			c0.975-0.024,1.924-0.167,2.81-0.607c0.445-0.221,0.937-0.241,1.417-0.266c1.288-0.067,2.578-0.119,3.867-0.151
			c0.818-0.021,1.581-0.209,2.338-0.52c0.436-0.179,0.933-0.266,1.407-0.289c2.094-0.102,4.19-0.17,6.285-0.243
			c0.652-0.023,1.265-0.183,1.881-0.392c0.452-0.154,0.939-0.267,1.414-0.281c5.964-0.173,11.929-0.302,17.894,0.019
			c0.812,0.044,1.593,0.184,2.366,0.435c0.929,0.302,1.906,0.306,2.869,0.365c1.133,0.069,2.223,0.23,3.281,0.71
			c0.569,0.258,1.257,0.26,1.894,0.36c0.492,0.077,0.91,0.309,1.316,0.574c0.718,0.469,1.338,1.042,1.901,1.674
			c0.188,0.21,0.369,0.427,0.546,0.649c0.098,0.124,0.163,0.279,0.226,0.427c0.268,0.628,0.247,1.24-0.113,1.834
			c-0.258,0.425-0.621,0.755-1.029,1.006c-1.373,0.846-2.857,1.48-4.304,2.183c-1.131,0.151-2.123,0.74-3.214,1.013
			c-0.311,0.078-0.638,0.097-0.959,0.125c-0.451,0.039-0.901,0.004-1.236-0.231c-0.335-0.233-0.556-0.664-0.548-1.42
			c0.005-0.452,0.347-0.934,0.812-0.982c0.316-0.033,0.643-0.026,0.958,0.012c0.641,0.076,1.154,0.566,1.812,0.589
			c0.151,0.005,0.316-0.025,0.455-0.084c0.362-0.153,0.42-0.43,0.168-0.779c-0.185-0.256-0.354-0.543-0.594-0.738
			c-0.76-0.611-1.594-1.091-2.58-1.243c-0.267-0.041-0.479-0.145-0.64-0.302c-0.16-0.155-0.269-0.363-0.325-0.613
			c-0.07-0.311-0.085-0.643-0.069-0.962c0.06-1.271-0.558-2.143-1.411-2.91c-0.122-0.109-0.248-0.216-0.378-0.322
			c-0.983-0.802-2.103-0.857-3.201-0.547c-1.555,0.438-2.97,1.224-4.279,2.183c-0.614,0.747-1.156,1.529-1.324,2.513
			c-0.045,0.267,0.013,0.492,0.155,0.653c0.142,0.16,0.367,0.257,0.655,0.268c0.349,0.013,0.647-0.09,0.757-0.451
			c0.356-1.17,1.106-1.929,2.25-2.34c0.603-0.217,1.17-0.549,1.784-0.718c0.627-0.172,1.298-0.124,1.884,0.187
			c0.213,0.113,0.415,0.258,0.577,0.437c0.162,0.178,0.283,0.39,0.332,0.637c0.095,0.473-0.006,0.954-0.341,1.343
			c-0.55,0.638-1.239,1.031-2.086,1.066c-0.81,0.033-1.604,0.082-2.357,0.43c-1.227,0.567-2.529,0.391-3.805,0.295
			c-0.351-0.026-0.687-0.23-0.943-0.503c-0.086-0.091-0.163-0.19-0.229-0.292c-0.605-0.944-1.141-1.932-1.728-2.889
			c-0.082-0.134-0.174-0.274-0.277-0.4c-0.103-0.125-0.218-0.237-0.347-0.317c-0.958-0.59-1.912-1.191-3.093-1.278
			c-1.29-0.095-2.576-0.086-3.867-0.032c-0.996,0.042-1.871,0.369-2.726,0.87c-0.728,0.427-1.216,1.009-1.615,1.732
			c-0.398,0.722-0.652,1.456-0.69,2.284c-0.016,0.356-0.263,0.587-0.524,0.569c-0.063-0.005-0.14-0.05-0.207-0.111
			c-0.066-0.06-0.121-0.135-0.141-0.202c-0.109-0.359-0.281-0.605-0.498-0.771c-0.363-0.277-0.852-0.331-1.383-0.316
			c-0.646,0.019-1.286,0.084-1.882,0.366c-0.898,0.424-1.855,0.572-2.829,0.508c-2.743-0.182-5.48-0.101-8.219,0.055
			c-0.845,0.048-1.547,0.407-2.199,0.895c-0.776,0.581-1.53,1.19-1.904,2.131c-0.066,0.167-0.062,0.304,0.01,0.405
			c0.073,0.1,0.211,0.164,0.413,0.188c0.341,0.04,0.626-0.093,0.872-0.34c0.83-0.831,1.809-1.325,3.01-1.323
			c0.643,0.001,1.287-0.024,1.93-0.022c0.246,0.001,0.47,0.088,0.645,0.258c0.059,0.057,0.112,0.122,0.159,0.197
			c0.366,0.586,0.256,1.209,0.089,1.828c-0.274,0.161-0.531,0.369-0.825,0.469c-0.299,0.102-0.635,0.139-0.953,0.133
			c-0.643-0.013-1.287-0.053-1.927-0.119c-0.862-0.089-1.588,0.21-2.201,0.77c-0.399,0.364-0.868,0.414-1.339,0.397
			c-0.808-0.03-1.602-0.198-2.351-0.515C21.612,38.099,21.187,38.307,20.785,38.571z M60.924,37.723
			c0.043-0.314,0.086-0.63,0.164-0.936c0.035-0.139,0.144-0.266,0.241-0.38c0.102-0.12,0.22-0.298,0.348-0.314
			c1.573-0.195,3.152-0.32,4.737-0.249c0.467,0.021,0.929,0.168,1.393,0.26c0.083,0.017,0.165,0.073,0.24,0.151
			c0.242,0.252,0.41,0.749,0.296,1.019c-0.192,0.451-0.504,0.828-0.913,1.062c-0.968,0.554-2.129,0.576-3.131,1.069
			c-0.271,0.133-0.615,0.135-0.928,0.161c-0.315,0.026-0.634,0.006-1.185,0.006c-0.222-0.012-0.423-0.051-0.597-0.123
			c-0.435-0.181-0.7-0.57-0.698-1.269C60.89,38.041,60.901,37.888,60.924,37.723z M46.868,34.962
			c-0.242-0.593-0.398-1.207-0.453-1.849c-0.041-0.487,0.014-0.967,0.194-1.405c0.319-0.775,0.892-1.356,1.733-1.484
			c0.826-0.126,1.661-0.187,2.362-0.24c0.234-0.018,0.452-0.035,0.651-0.053c0.958,0.059,1.595,0.086,2.232,0.142
			c0.117,0.01,0.224,0.04,0.335,0.063c0.086,0.017,0.176,0.024,0.258,0.048c0.108,0.032,0.207,0.083,0.309,0.126
			c0.076,0.032,0.156,0.055,0.228,0.093c0.341,0.182,0.646,0.434,0.92,0.752c0.24,0.279,0.309,0.537,0.2,0.877
			c-0.096,0.301-0.255,0.576-0.6,0.654c-0.161,0.036-0.324,0.059-0.487,0.087c-0.304,0.052-0.606,0.11-0.909,0.162
			c-0.162,0.028-0.325,0.051-0.485,0.087c-0.302,0.068-0.607,0.204-0.861,0.381c-0.39,0.272-0.741,0.602-1.102,0.914
			c-0.12,0.103-0.22,0.23-0.332,0.343c-0.462,0.468-0.771,1.022-0.819,1.679c-0.093,1.268-0.136,2.539-0.228,3.806
			c-0.038,0.526-0.454,0.823-0.847,1.084c-0.203,0.135-0.426,0.214-0.659,0.262c-0.046,0.009-0.093,0.012-0.139,0.019
			c-0.071,0.011-0.142,0.024-0.215,0.03c-0.021,0.002-0.042,0.002-0.063,0.003c-0.098,0.007-0.197,0.012-0.296,0.014h-0.001
			c0,0,0,0-0.001,0c-0.952,0.017-1.506-0.689-1.179-1.518c0.232-0.588,0.624-1.121,0.64-1.781
			C47.283,37.141,47.302,36.026,46.868,34.962z M54.678,35.397c-0.094,0.124-0.207,0.207-0.334,0.249s-0.268,0.041-0.417-0.005
			c-0.122-0.038-0.289-0.128-0.317-0.227c-0.054-0.194,0.151-0.33,0.499-0.344c0.129-0.005,0.273,0.018,0.384,0.078
			c0.041,0.022,0.088,0.074,0.125,0.124c0.005,0.007,0.007,0.009,0.011,0.016C54.664,35.338,54.687,35.385,54.678,35.397z
			 M52.61,38.071c0.523-0.374,1.126-0.577,1.708-0.804c0.588-0.229,1.23-0.311,1.84-0.487c0.608-0.176,1.079-0.65,1.711-0.794
			c0.091-0.021,0.177-0.033,0.257-0.035c0.24-0.007,0.434,0.076,0.59,0.289c0.178,0.244,0.26,0.539,0.2,0.879
			c-0.027,0.15-0.089,0.31-0.183,0.428c-0.297,0.37-0.598,0.739-0.931,1.076c-0.699,0.706-1.553,1.092-2.55,1.145
			c-0.132,0.007-0.266,0.013-0.409,0.02c-0.203,0.009-0.427,0.019-0.71,0.033c-0.227-0.039-0.545-0.074-0.878-0.141
			c-0.12-0.024-0.241-0.052-0.361-0.086c-0.336-0.097-0.468-0.392-0.562-0.686C52.214,38.538,52.294,38.297,52.61,38.071z
			 M33.154,39.199c0.353-0.347,0.844-0.436,1.275-0.636c1.313-0.606,2.574-1.285,3.571-2.367c0.106-0.115,0.258-0.187,0.414-0.298
			c0.841-0.086,1.695-0.134,2.553-0.158c0.572-0.017,1.144-0.03,1.718-0.014c1.038,0.03,1.825,0.526,2.332,1.433
			c0.127,0.228,0.192,0.465,0.196,0.705c0.004,0.219-0.042,0.44-0.149,0.66c-0.361,0.738-0.959,1.267-1.588,1.765
			c-0.123,0.096-0.275,0.167-0.424,0.217c-1.091,0.363-2.181,0.453-3.257-0.062c-0.144-0.069-0.291-0.138-0.421-0.23
			c-0.439-0.311-0.89-0.242-1.349-0.065c-0.443,0.171-0.877,0.459-1.331,0.494c-1.11,0.086-2.236,0.116-3.305-0.306
			c-0.134-0.053-0.288-0.162-0.343-0.285c-0.075-0.168-0.101-0.329-0.081-0.474C32.984,39.432,33.048,39.303,33.154,39.199z
			 M34.169,36.444l0.034-0.21h0.001l0,0l0.261,0.147L34.169,36.444L34.169,36.444L34.169,36.444z M22.843,41.35
			c-0.111-0.036-0.191-0.166-0.286-0.252c0.122-0.098,0.233-0.215,0.368-0.288c0.131-0.07,0.285-0.13,0.43-0.133
			c0.139-0.003,0.277-0.005,0.411-0.006c0.166-0.002,0.325-0.002,0.468-0.002c0.258,0,0.463,0.002,0.561,0.002
			c1.045,0.109,1.667,0.162,2.284,0.247c0.142,0.02,0.321,0.122,0.39,0.24c0.09,0.154-0.101,0.426-0.477,0.476
			c-0.19,0.026-0.38,0.036-0.57,0.053C25.216,41.794,24.016,41.728,22.843,41.35z M54.844,51.306
			c-1.284,0.1-2.565,0.183-3.656,0.259c-1.636-0.123-3.079-0.209-4.521-0.354c-0.469-0.048-0.94-0.208-1.38-0.391
			c-0.603-0.251-1.22-0.377-1.866-0.406c-1.284-0.058-2.567-0.122-3.851-0.18c-0.643-0.029-1.29-0.068-1.892-0.307
			c-0.761-0.301-1.549-0.414-2.354-0.43c-2.247-0.045-4.496-0.062-6.743-0.121c-0.654-0.017-1.235-0.224-1.561-0.897
			c-0.488-1.009-1.016-1.998-1.531-2.993c-0.232-0.448,0.09-0.787,0.738-0.798c0.201-0.003,0.403-0.007,0.604-0.005
			c0.603,0.006,1.201,0.059,1.769,0.302c0.746,0.318,1.507,0.54,2.322,0.56c0.642,0.016,1.284,0.038,1.925,0.069
			c0.646,0.032,1.264,0.19,1.873,0.41c0.449,0.162,0.911,0.319,1.381,0.391c1.42,0.215,2.907,0.093,4.211,0.871
			c0.635,0.089,1.268,0.209,1.907,0.261c0.967,0.078,1.882,0.305,2.802,0.63c0.896,0.317,1.916,0.297,2.799,0.64
			c1.068,0.415,2.137,0.657,3.268,0.708c0.811,0.036,1.571,0.264,2.314,0.595c0.433,0.192,0.914,0.292,1.384,0.383
			c0.325,0.063,0.611,0.164,0.834,0.426C55.448,51.126,55.192,51.278,54.844,51.306z M67.837,48.853
			c-0.25,0.193-0.549,0.365-0.852,0.437c-0.784,0.187-1.543,0.416-2.3,0.705c-1.365,0.521-2.771,0.567-4.141,0.162
			c-0.197-0.058-0.393-0.125-0.589-0.202c-0.381-0.149-0.761-0.275-1.147-0.37c-0.386-0.095-0.778-0.16-1.181-0.189
			c-0.727-0.051-1.447-0.125-2.136-0.349c-0.23-0.075-0.456-0.166-0.678-0.279c-0.14-0.071-0.291-0.126-0.446-0.17
			s-0.313-0.077-0.469-0.104c-0.505-0.089-1.037-0.094-1.531-0.201c-0.128-0.028-0.256-0.057-0.378-0.103
			c-0.68-0.255-1.352-0.517-2.053-0.687c-0.233-0.057-0.469-0.103-0.71-0.135h-0.001c-0.001,0-0.002,0-0.003-0.001
			c-0.331-0.17-0.67-0.302-1.015-0.408c-1.034-0.316-2.12-0.393-3.197-0.521c-0.238-0.028-0.477-0.071-0.713-0.129
			c-0.236-0.058-0.467-0.131-0.689-0.219c-0.474-0.188-0.947-0.348-1.445-0.432c-0.135-0.023-0.27-0.042-0.409-0.052
			c-0.643-0.046-1.284-0.125-1.923-0.207c-0.241-0.031-0.474-0.091-0.704-0.164c-0.458-0.147-0.902-0.348-1.367-0.478
			c-0.231-0.065-0.468-0.113-0.714-0.127c-0.805-0.047-1.607-0.134-2.408-0.228c-0.057-0.007-0.134-0.024-0.223-0.049
			c-0.014-0.004-0.034-0.011-0.049-0.016c-0.077-0.023-0.158-0.048-0.25-0.081c-0.667-0.236-1.676-0.697-2.138-0.975
			c-0.289-0.173-0.831-1.066-0.7-1.185c0.246-0.224,0.566-0.303,0.89-0.314c0.161-0.005,0.322-0.017,0.483-0.019
			c0.322-0.003,0.645-0.001,0.967-0.001v0.001c0.001,0,0.003,0,0.004,0c-0.004,0.027-0.004,0.054-0.004,0.082
			c0.645,0,1.29-0.025,1.929,0.01c0.158,0.009,0.317,0.038,0.473,0.08c0.156,0.041,0.311,0.095,0.46,0.151
			c0.302,0.115,0.604,0.222,0.912,0.306s0.621,0.147,0.946,0.176c1.287,0.113,2.573,0.222,3.865,0.159
			c2.902-0.141,5.805-0.075,8.708-0.085c1.613-0.005,3.226-0.04,4.838-0.078c0.483-0.011,1.01,0.038,1.438-0.136
			c2.003-0.812,4.134-0.581,6.202-0.849c0.318-0.042,0.649-0.077,0.94-0.198c1.063-0.441,2.184-0.551,3.31-0.63
			c0.816-0.057,1.581-0.269,2.329-0.588c0.915-0.39,1.882-0.394,2.85-0.302c0.001,0,0.001,0.001,0.002,0.001s0.001,0,0.002,0
			c0.142,0.014,0.307,0.14,0.397,0.262c0.167,0.225,0.277,0.599,0.096,0.872c-1.069,1.608-2.113,3.223-2.947,4.974
			C69.804,47.153,68.868,48.059,67.837,48.853z"/>
		<circle cx="20.305" cy="39.835" r="0.001"/>
		<path d="M20.161,39.778c0.054,0.018,0.097,0.038,0.143,0.057l0,0C20.258,39.816,20.216,39.796,20.161,39.778
			c0.001,0,0.106-0.101,0.108-0.102v-0.001l-0.107,0.097C20.162,39.774,20.161,39.776,20.161,39.778z"/>
		<path d="M77.07,26.181c0.021,0.005,0.042,0.008,0.062,0.013C77.112,26.189,77.09,26.186,77.07,26.181z"/>
		<path d="M72.813,25.225c0.314,0.019,0.617,0.075,0.916,0.152c-0.311-0.083-0.629-0.141-0.958-0.16
			c-1.128-0.068-2.255-0.172-3.384-0.205c-0.837-0.025-1.667-0.05-2.474-0.245c0.82,0.205,1.664,0.229,2.516,0.253
			C70.558,25.053,71.685,25.157,72.813,25.225z"/>
		<path d="M76.4,26.047c-0.273-0.042-0.55-0.072-0.834-0.084c0.012,0.001,0.024,0.007,0.035,0.007
			C75.872,25.982,76.138,26.008,76.4,26.047z"/>
		<path d="M17.388,41.638c0.142,0.001,0.316-0.108,0.422-0.217c0.179-0.185,0.159-0.497-0.101-0.785
			c-1.307-1.445-2.222-3.163-3.322-4.751c-0.274-0.396-0.492-0.831-0.735-1.249c-0.226-0.388-0.164-0.998,0.086-1.368
			c0.555-0.821,1.291-1.457,2.134-1.934c0.836-0.474,1.717-0.896,2.623-1.215c0.761-0.268,1.514-0.544,2.265-0.838
			c0.898-0.351,1.884-0.434,2.765-0.862c0.592-0.287,1.255-0.277,1.889-0.385c0.476-0.081,0.955-0.137,1.396-0.365
			c0.578-0.298,1.192-0.488,1.848-0.52c1.291-0.062,2.574-0.112,3.792-0.662c0.422-0.191,0.943-0.197,1.422-0.221
			c1.612-0.081,3.227-0.119,4.839-0.202c0.479-0.025,0.99-0.055,1.423-0.234c1.224-0.507,2.498-0.6,3.793-0.628
			c2.26-0.049,4.52-0.11,6.78-0.164c0.971-0.023,1.938-0.073,2.851-0.453c0.459-0.19,0.945-0.198,1.427-0.222
			c3.39-0.168,6.781-0.047,10.171-0.021c0.154,0.001,0.315,0.01,0.472,0.032c-0.171-0.026-0.345-0.038-0.514-0.039
			c-3.391-0.026-6.781-0.147-10.171,0.021c-0.482,0.024-0.969,0.031-1.427,0.222c-0.913,0.38-1.88,0.43-2.851,0.453
			c-2.26,0.054-4.52,0.115-6.78,0.164c-1.295,0.029-2.569,0.122-3.793,0.628c-0.433,0.179-0.944,0.209-1.423,0.234
			c-1.612,0.083-3.227,0.121-4.839,0.202c-0.479,0.024-1,0.03-1.422,0.221c-1.218,0.55-2.501,0.6-3.792,0.662
			c-0.656,0.031-1.27,0.221-1.848,0.52c-0.441,0.228-0.92,0.284-1.396,0.365c-0.634,0.108-1.298,0.098-1.889,0.385
			c-0.881,0.428-1.867,0.511-2.765,0.862c-0.751,0.294-1.505,0.57-2.265,0.838c-0.905,0.319-1.786,0.741-2.623,1.215
			c-0.843,0.477-1.579,1.112-2.134,1.934c-0.25,0.37-0.312,0.98-0.086,1.368c0.243,0.417,0.461,0.853,0.735,1.249
			c1.1,1.588,2.014,3.306,3.322,4.751c0.26,0.288,0.28,0.6,0.101,0.785c-0.105,0.11-0.28,0.218-0.422,0.217
			c0.003,0.002,0.008,0.005,0.012,0.008C17.368,41.638,17.378,41.638,17.388,41.638z"/>
		<path d="M24.421,47.583c-0.42-0.489-0.807-1.009-1.247-1.48c-0.521-0.558-1.098-1.049-1.793-1.391
			c0.013,0.011,0.025,0.022,0.038,0.033c0.659,0.34,1.214,0.813,1.714,1.349c0.439,0.471,0.827,0.99,1.247,1.48
			c0.067,0.078,0.102,0.175,0.124,0.276c0.017,0.02,0.034,0.04,0.051,0.06C24.538,47.789,24.5,47.675,24.421,47.583z"/>
		<path d="M62.418,52.702c-0.457-0.145-0.963-0.131-1.414,0.098c-0.637,0.324-1.344,0.389-2.016,0.578
			c1.144-0.187,2.349-0.399,3.554-0.638C62.501,52.727,62.459,52.715,62.418,52.702z"/>
		<path d="M30.424,52.635c0.152-0.038,0.299-0.132,0.449-0.135c1.453-0.028,2.909-0.075,4.283,0.542
			c0.452,0.203,0.945,0.188,1.427,0.197c2.421,0.045,4.842,0.076,7.263,0.121c1.452,0.027,2.905,0.074,4.357,0.107
			c0.814,0.019,1.607,0.134,2.348,0.493c0.593,0.287,1.237,0.344,1.875,0.411c0.003-0.001,0.006-0.002,0.008-0.002
			c-0.64-0.068-1.286-0.124-1.881-0.412c-0.741-0.359-1.534-0.474-2.348-0.493c-1.452-0.033-2.904-0.08-4.357-0.107
			c-2.421-0.045-4.842-0.076-7.263-0.121c-0.481-0.009-0.975,0.006-1.427-0.197c-1.374-0.617-2.83-0.57-4.283-0.542
			c-0.15,0.003-0.297,0.097-0.449,0.135c-0.193,0.048-0.31,0.132-0.374,0.255C30.117,52.766,30.232,52.683,30.424,52.635z"/>
		<path d="M61.006,52.797c-0.643,0.327-1.358,0.39-2.035,0.583c0.006-0.001,0.012-0.002,0.018-0.003
			c0.672-0.189,1.379-0.253,2.016-0.578c0.451-0.229,0.957-0.243,1.414-0.098c0.041,0.013,0.083,0.025,0.124,0.038
			c0.002,0,0.005-0.001,0.007-0.001c-0.043-0.013-0.086-0.026-0.129-0.039C61.962,52.554,61.457,52.568,61.006,52.797z"/>
		<ellipse transform="matrix(0.9762 -0.2169 0.2169 0.9762 -8.1263 5.3186)" cx="20.166" cy="39.679" rx="0.002" ry="0.002"/>
		<path d="M20.269,39.675c-0.033,0.001-0.067,0.001-0.1,0.003c0,0,0,0,0,0.001C20.202,39.677,20.235,39.676,20.269,39.675z"/>
		<path d="M20.165,39.679c-0.001,0.033-0.009,0.062-0.007,0.096l0.003-0.003c-0.001-0.033,0.007-0.061,0.007-0.093
			C20.168,39.679,20.166,39.679,20.165,39.679z"/>
		<path d="M20.161,39.772l0.107-0.097c-0.034,0.001-0.067,0.002-0.1,0.004C20.168,39.71,20.16,39.739,20.161,39.772z"/>
		<path d="M15.689,35.291c-0.179-0.276-0.036-1.104,0.24-1.345c0.242-0.212,0.456-0.478,0.733-0.622
			c1.285-0.668,2.55-1.399,3.895-1.917c1.193-0.459,2.426-0.832,3.637-1.259c0.453-0.16,0.961-0.188,1.389-0.392
			c0.893-0.426,1.821-0.632,2.8-0.656c0.976-0.024,1.924-0.167,2.81-0.607c0.446-0.222,0.937-0.241,1.417-0.266
			c1.288-0.066,2.577-0.118,3.867-0.151c0.818-0.021,1.581-0.209,2.338-0.52c0.436-0.179,0.933-0.266,1.407-0.289
			c2.094-0.103,4.19-0.17,6.285-0.243c0.652-0.022,1.265-0.182,1.881-0.392c0.452-0.154,0.939-0.267,1.414-0.281
			c5.965-0.173,11.93-0.302,17.894,0.019c0.812,0.043,1.593,0.183,2.366,0.435c0.928,0.302,1.906,0.306,2.869,0.365
			c1.132,0.07,2.223,0.23,3.281,0.71c0.569,0.258,1.257,0.26,1.894,0.36c0.492,0.077,0.91,0.309,1.316,0.574
			c0.716,0.468,1.336,1.04,1.898,1.671c-0.563-0.632-1.183-1.204-1.901-1.674c-0.406-0.265-0.824-0.497-1.316-0.574
			c-0.637-0.1-1.325-0.102-1.894-0.36c-1.058-0.48-2.148-0.641-3.281-0.71c-0.963-0.059-1.94-0.063-2.869-0.365
			c-0.773-0.251-1.554-0.391-2.366-0.435c-5.965-0.321-11.93-0.192-17.894-0.019c-0.475,0.014-0.962,0.127-1.414,0.281
			c-0.616,0.209-1.229,0.369-1.881,0.392c-2.095,0.073-4.191,0.141-6.285,0.243c-0.474,0.023-0.971,0.11-1.407,0.289
			c-0.757,0.311-1.52,0.499-2.338,0.52c-1.289,0.032-2.579,0.084-3.867,0.151c-0.48,0.025-0.972,0.045-1.417,0.266
			c-0.886,0.44-1.835,0.583-2.81,0.607c-0.979,0.024-1.907,0.23-2.8,0.656c-0.428,0.204-0.936,0.232-1.389,0.392
			c-1.21,0.427-2.444,0.8-3.637,1.259c-1.345,0.518-2.61,1.25-3.895,1.917c-0.277,0.144-0.491,0.411-0.733,0.622
			c-0.277,0.241-0.419,1.069-0.24,1.345c0.701,1.08,1.4,2.161,2.105,3.237c0.087,0.133,0.213,0.24,0.315,0.365
			c0.001,0.001,0.002,0.001,0.002,0.002c-0.101-0.124-0.227-0.232-0.314-0.364C17.089,37.451,16.39,36.37,15.689,35.291z"/>
		<path d="M70.689,30.972c0.06-1.273-0.559-2.145-1.414-2.913c0.853,0.767,1.472,1.639,1.411,2.91
			c-0.016,0.319-0.001,0.651,0.069,0.962c0.057,0.25,0.165,0.458,0.325,0.613c-0.159-0.155-0.266-0.361-0.322-0.61
			C70.689,31.624,70.674,31.292,70.689,30.972z"/>
		<path d="M25.023,36.588c0.341,0.04,0.625-0.093,0.872-0.34c0.83-0.832,1.81-1.325,3.01-1.323c0.643,0.002,1.287-0.024,1.93-0.022
			c0.245,0.001,0.467,0.087,0.642,0.255c-0.175-0.17-0.399-0.257-0.645-0.258c-0.643-0.002-1.287,0.023-1.93,0.022
			c-1.201-0.002-2.18,0.492-3.01,1.323c-0.246,0.247-0.531,0.38-0.872,0.34c-0.202-0.024-0.34-0.089-0.413-0.188
			C24.679,36.498,24.819,36.564,25.023,36.588z"/>
		<path d="M43.013,32.352c0.217,0.166,0.389,0.412,0.498,0.771c0.02,0.066,0.076,0.142,0.141,0.202
			c-0.065-0.06-0.119-0.133-0.138-0.199C43.404,32.766,43.232,32.519,43.013,32.352z"/>
		<path d="M57.001,30.012c-0.083-0.135-0.176-0.276-0.28-0.403c0.103,0.126,0.195,0.266,0.277,0.4
			c0.587,0.957,1.123,1.945,1.728,2.889c0.066,0.102,0.143,0.201,0.229,0.292c-0.085-0.09-0.161-0.188-0.226-0.289
			C58.124,31.956,57.588,30.968,57.001,30.012z"/>
		<path d="M70.692,36.074c0.004-0.452,0.347-0.934,0.812-0.982c0.316-0.032,0.642-0.026,0.958,0.012
			c0.64,0.077,1.153,0.566,1.812,0.589c0.151,0.006,0.316-0.025,0.455-0.084c0.363-0.154,0.421-0.43,0.168-0.779
			c-0.186-0.257-0.354-0.546-0.596-0.74c0,0,0,0-0.001-0.001c0.24,0.194,0.408,0.481,0.594,0.738
			c0.252,0.349,0.194,0.626-0.168,0.779c-0.139,0.059-0.304,0.089-0.455,0.084c-0.658-0.023-1.171-0.513-1.812-0.589
			c-0.315-0.038-0.642-0.045-0.958-0.012c-0.465,0.048-0.807,0.53-0.812,0.982c-0.008,0.756,0.213,1.188,0.548,1.42
			C70.904,37.258,70.684,36.827,70.692,36.074z"/>
		<path d="M60.906,32.81c0.35,0.014,0.647-0.09,0.757-0.451c0.356-1.17,1.106-1.929,2.25-2.34c0.603-0.217,1.17-0.549,1.784-0.718
			c0.627-0.172,1.298-0.123,1.884,0.187c0.211,0.112,0.413,0.257,0.574,0.434c-0.161-0.179-0.363-0.324-0.577-0.437
			c-0.586-0.311-1.257-0.359-1.884-0.187c-0.614,0.169-1.181,0.501-1.784,0.718c-1.144,0.411-1.894,1.17-2.25,2.34
			c-0.11,0.361-0.408,0.464-0.757,0.451c-0.288-0.011-0.513-0.108-0.655-0.268C60.39,32.701,60.616,32.799,60.906,32.81z"/>
		<path d="M34.366,44.336c-0.077-0.023-0.158-0.048-0.25-0.081C34.209,44.288,34.289,44.313,34.366,44.336z"/>
		<path d="M39.827,45.398c-0.24-0.031-0.472-0.09-0.7-0.163c0.229,0.074,0.463,0.134,0.704,0.164
			c0.639,0.082,1.28,0.161,1.923,0.207c0.139,0.01,0.274,0.03,0.409,0.052c-0.136-0.023-0.273-0.043-0.413-0.053
			C41.107,45.559,40.467,45.479,39.827,45.398z"/>
		<path d="M73.219,40.123c-0.09-0.122-0.255-0.248-0.397-0.262c-0.001,0-0.001,0-0.002,0c0.141,0.015,0.305,0.14,0.395,0.261
			c0.167,0.226,0.277,0.6,0.096,0.872c-1.069,1.608-2.113,3.223-2.947,4.974c-0.564,1.184-1.5,2.091-2.531,2.884
			c-0.25,0.192-0.549,0.365-0.852,0.437c-0.783,0.187-1.543,0.416-2.3,0.705c-1.364,0.52-2.768,0.566-4.137,0.163
			c1.371,0.405,2.776,0.359,4.141-0.162c0.757-0.289,1.516-0.518,2.3-0.705c0.303-0.072,0.602-0.244,0.852-0.437
			c1.031-0.794,1.967-1.7,2.531-2.884c0.834-1.751,1.878-3.366,2.947-4.974C73.496,40.722,73.386,40.348,73.219,40.123z"/>
		<path d="M34.634,44.4c-0.057-0.007-0.131-0.023-0.219-0.048c0.09,0.025,0.166,0.043,0.223,0.049
			c0.801,0.094,1.603,0.181,2.408,0.228c0.246,0.014,0.483,0.062,0.714,0.127c-0.233-0.066-0.471-0.114-0.718-0.128
			C36.238,44.581,35.435,44.494,34.634,44.4z"/>
		<path d="M49.226,47.368c0.241,0.032,0.477,0.079,0.71,0.135C49.703,47.446,49.466,47.4,49.226,47.368
			C49.225,47.368,49.226,47.368,49.226,47.368z"/>
		<path d="M44.297,46.309c0.236,0.058,0.475,0.101,0.713,0.129c1.077,0.128,2.163,0.205,3.197,0.521
			c-1.035-0.317-2.123-0.394-3.201-0.522C44.77,46.409,44.531,46.366,44.297,46.309z"/>
		<path d="M55.491,49.046c0.689,0.225,1.409,0.298,2.136,0.349c0.403,0.028,0.795,0.094,1.181,0.189
			c-0.387-0.096-0.78-0.161-1.185-0.19C56.897,49.344,56.179,49.27,55.491,49.046z"/>
		<path d="M52.367,48.293c0.494,0.107,1.026,0.112,1.531,0.201c0.156,0.027,0.314,0.06,0.469,0.104
			c-0.156-0.044-0.316-0.077-0.473-0.105C53.391,48.404,52.86,48.399,52.367,48.293z"/>
		<path d="M33.622,41.762c-0.001,0-0.003,0-0.004,0c0,0.028,0,0.054,0,0.082C33.618,41.816,33.618,41.789,33.622,41.762z"/>
		<path d="M37.392,42.391c-0.308-0.085-0.61-0.191-0.912-0.306c-0.149-0.057-0.303-0.11-0.46-0.151
			c0.155,0.041,0.308,0.094,0.456,0.15C36.779,42.2,37.082,42.306,37.392,42.391z"/>
		<path d="M53.402,50.12c-0.743-0.331-1.503-0.559-2.314-0.595c-1.131-0.051-2.2-0.293-3.268-0.708
			c-0.883-0.343-1.903-0.323-2.799-0.64c-0.92-0.325-1.835-0.552-2.802-0.63c-0.639-0.052-1.272-0.172-1.907-0.261
			c-1.304-0.778-2.791-0.656-4.211-0.871c-0.47-0.072-0.932-0.229-1.381-0.391c-0.609-0.22-1.227-0.378-1.873-0.41
			c-0.641-0.031-1.283-0.053-1.925-0.069c-0.815-0.02-1.576-0.242-2.322-0.56c-0.568-0.243-1.166-0.296-1.769-0.302
			c0.602,0.006,1.199,0.059,1.765,0.302c0.746,0.318,1.507,0.54,2.322,0.56c0.642,0.016,1.284,0.037,1.925,0.069
			c0.646,0.032,1.264,0.19,1.873,0.41c0.45,0.163,0.911,0.32,1.381,0.391c1.42,0.215,2.908,0.092,4.211,0.871
			c0.636,0.09,1.269,0.209,1.907,0.261c0.968,0.078,1.882,0.304,2.802,0.63c0.897,0.317,1.917,0.297,2.799,0.64
			c1.068,0.415,2.137,0.657,3.268,0.708c0.811,0.037,1.57,0.265,2.314,0.595c0.433,0.193,0.915,0.292,1.384,0.383
			c0.325,0.063,0.611,0.164,0.834,0.426c-0.172,0.197-0.428,0.35-0.776,0.377c-1.28,0.1-2.561,0.183-3.652,0.259
			c1.091-0.076,2.372-0.159,3.656-0.259c0.348-0.028,0.604-0.18,0.776-0.377c-0.223-0.262-0.509-0.363-0.834-0.426
			C54.316,50.412,53.835,50.312,53.402,50.12z"/>
		<path d="M54.489,30.31c0.076,0.032,0.156,0.055,0.228,0.093C54.645,30.365,54.564,30.342,54.489,30.31z"/>
		<path d="M48.508,41.49c-0.046,0.009-0.093,0.012-0.139,0.019C48.416,41.503,48.463,41.5,48.508,41.49z"/>
		<path d="M48.154,41.539c-0.021,0.002-0.042,0.002-0.063,0.003C48.113,41.541,48.134,41.541,48.154,41.539z"/>
		<path d="M54.75,32.773c-0.304,0.052-0.606,0.11-0.909,0.162C54.144,32.883,54.447,32.825,54.75,32.773z"/>
		<path d="M46.615,40.038c-0.327,0.829,0.227,1.535,1.179,1.518c0,0,0,0,0.001,0c-0.951,0.016-1.505-0.688-1.178-1.518
			c0.231-0.587,0.623-1.12,0.64-1.781c0.028-1.116,0.047-2.231-0.387-3.295c-0.242-0.593-0.399-1.207-0.453-1.849
			c-0.041-0.487,0.014-0.967,0.194-1.405c0.319-0.775,0.892-1.355,1.733-1.484c0.825-0.126,1.66-0.187,2.36-0.24
			c-0.701,0.053-1.536,0.114-2.362,0.24c-0.841,0.128-1.414,0.709-1.733,1.484c-0.18,0.438-0.235,0.918-0.194,1.405
			c0.055,0.642,0.211,1.256,0.453,1.849c0.434,1.064,0.415,2.179,0.387,3.295C47.239,38.917,46.847,39.45,46.615,40.038z"/>
		<path d="M53.922,30.136c0.086,0.017,0.176,0.024,0.258,0.048C54.098,30.16,54.007,30.153,53.922,30.136z"/>
		<path d="M45.017,37.16c0.127,0.227,0.192,0.464,0.196,0.704c-0.004-0.24-0.069-0.477-0.196-0.705
			c-0.507-0.907-1.294-1.403-2.332-1.433c-0.574-0.016-1.147-0.003-1.718,0.014c0.572-0.017,1.144-0.03,1.718-0.013
			C43.723,35.757,44.511,36.253,45.017,37.16z"/>
		<path d="M58.714,36.24c0.179,0.244,0.26,0.539,0.2,0.879c-0.027,0.15-0.089,0.311-0.183,0.428c-0.297,0.37-0.598,0.74-0.931,1.076
			c-0.698,0.706-1.553,1.092-2.55,1.145c-0.131,0.007-0.265,0.013-0.407,0.02c0.143-0.007,0.277-0.013,0.409-0.02
			c0.997-0.053,1.851-0.439,2.55-1.145c0.333-0.337,0.634-0.706,0.931-1.076c0.094-0.118,0.156-0.278,0.183-0.428
			c0.06-0.34-0.022-0.635-0.2-0.879c-0.156-0.213-0.35-0.296-0.59-0.289C58.366,35.944,58.558,36.027,58.714,36.24z"/>
		<path d="M54.133,39.821c-0.226-0.04-0.545-0.074-0.878-0.141C53.588,39.747,53.906,39.782,54.133,39.821z"/>
		<path d="M22.926,40.81c-0.135,0.073-0.246,0.19-0.368,0.288c0.094,0.086,0.175,0.216,0.286,0.252
			c1.173,0.378,2.373,0.444,3.578,0.337c0.19-0.017,0.379-0.027,0.569-0.053c0.376-0.051,0.567-0.322,0.477-0.476
			c-0.069-0.118-0.247-0.22-0.39-0.24c-0.617-0.085-1.238-0.138-2.283-0.247c-0.099,0-0.304-0.002-0.561-0.002
			c-0.142,0-0.302,0.001-0.468,0.002c-0.134,0.001-0.271,0.003-0.41,0.006C23.21,40.68,23.056,40.74,22.926,40.81z"/>
		<path d="M27.468,41.158c0.09,0.154-0.101,0.425-0.477,0.476c-0.19,0.026-0.379,0.036-0.569,0.053
			c0.19-0.017,0.38-0.027,0.57-0.053C27.368,41.584,27.559,41.312,27.468,41.158c-0.068-0.118-0.247-0.22-0.389-0.24
			c-0.617-0.085-1.239-0.138-2.284-0.247c1.045,0.109,1.666,0.162,2.283,0.247C27.221,40.938,27.399,41.04,27.468,41.158z"/>
		<path d="M23.766,40.671c0.166-0.002,0.325-0.002,0.468-0.002C24.091,40.668,23.932,40.669,23.766,40.671z"/>
		<path d="M54.493,35.148c-0.111-0.06-0.255-0.083-0.384-0.078c-0.347,0.014-0.553,0.15-0.499,0.344
			c0.028,0.099,0.196,0.189,0.317,0.227c0.149,0.045,0.29,0.046,0.417,0.005c0.127-0.042,0.24-0.125,0.334-0.249
			c0.009-0.012-0.015-0.06-0.049-0.109c-0.004-0.005-0.007-0.01-0.011-0.016C54.581,35.222,54.534,35.17,54.493,35.148z"/>
		<path d="M54.344,35.646c0.127-0.042,0.24-0.125,0.334-0.249C54.584,35.52,54.471,35.604,54.344,35.646z"/>
		<path d="M54.109,35.07c-0.348,0.014-0.553,0.15-0.499,0.344C53.556,35.22,53.762,35.084,54.109,35.07z"/>
		<path d="M53.61,35.414c0.028,0.099,0.195,0.189,0.317,0.227C53.806,35.603,53.638,35.513,53.61,35.414z"/>
		<path d="M54.618,35.272c0.004,0.005,0.008,0.01,0.011,0.016C54.625,35.281,54.623,35.279,54.618,35.272z"/>
		<path d="M20.305,39.836c0.021,0.102,0.044,0.202,0.1,0.279c0.029,0.04,0.084,0.061,0.147,0.077
			c0.029,0.007,0.058,0.014,0.088,0.021c0.035,0.007,0.071,0.014,0.102,0.024C20.731,40.082,20.58,39.95,20.305,39.836z"/>
		<path d="M20.305,39.835c-0.011-0.054-0.021-0.109-0.035-0.161l-0.001,0.001C20.283,39.726,20.293,39.781,20.305,39.835
			C20.305,39.835,20.305,39.835,20.305,39.835z"/>
		<path d="M20.639,40.213c-0.03-0.006-0.059-0.014-0.088-0.021C20.58,40.199,20.609,40.206,20.639,40.213z"/>
		<path d="M20.742,40.237L20.742,40.237c-0.01-0.155-0.162-0.288-0.437-0.401l0,0C20.58,39.95,20.731,40.082,20.742,40.237z"/>
		<path d="M20.304,39.835c-0.011-0.054-0.021-0.108-0.035-0.159c-0.003,0.002-0.107,0.102-0.107,0.102
			C20.216,39.796,20.258,39.816,20.304,39.835z"/>
		<polygon points="34.204,36.234 34.17,36.444 34.465,36.381 		"/>
		<polygon points="34.203,36.234 34.169,36.444 34.17,36.444 34.204,36.234 		"/>
	</g>
</g>
</svg>
