<?xml version="1.0" encoding="iso-8859-1"?>
<!-- Generator: Adobe Illustrator 21.0.2, SVG Export Plug-In . SVG Version: 6.00 Build 0)  -->
<!DOCTYPE svg PUBLIC "-//W3C//DTD SVG 1.1//EN" "http://www.w3.org/Graphics/SVG/1.1/DTD/svg11.dtd">
<svg version="1.1" id="Layer_1" xmlns="http://www.w3.org/2000/svg" xmlns:xlink="http://www.w3.org/1999/xlink" x="0px" y="0px"
	 viewBox="0 0 101.967 80.938" style="enable-background:new 0 0 101.967 80.938;" xml:space="preserve">
<g>
	<path style="fill:#FFFFFF;" d="M24.646,38.448c1.333-5.333,6-10,13-11.667s15.667-3,16.667-3.333c1-0.333,11.667-1.333,15-1.333
		c3.333,0,5.333,1.333,6.667,5s2.667,5.667,2.667,8c0,2.333-2.333,6-3,7.667c-0.667,1.667-6.333,8.667-8.333,9.333
		c-2,0.667-11,3-13,3.333c-2,0.333-3.333,1-4.333,1s-13,3-15.333,2c-2.333-1-5.667-3.333-6.667-5.333s-3.667-4-4.667-5.333
		s-1.333-4.667-0.667-6.333C23.313,39.781,24.646,38.448,24.646,38.448z"/>
	<path d="M36.959,59.371c-0.304-0.099-0.627-0.167-0.946-0.19c-1.834-0.135-3.422-0.864-4.868-1.96
		c-0.514-0.389-1.048-0.753-1.579-1.119c-1.075-0.741-2.009-1.631-2.702-2.734c-0.348-0.553-0.738-1.048-1.2-1.502
		c-1.036-1.018-2.075-2.035-3.072-3.091c-0.439-0.465-0.8-1.01-1.155-1.547c-0.174-0.262-0.314-0.576-0.366-0.884
		c-0.191-1.119-0.216-2.249-0.065-3.376c0.042-0.315,0.131-0.63,0.246-0.927c0.528-1.359,1.116-2.678,2.302-3.629
		c0.508-0.407,0.855-0.956,1.132-1.548c0.409-0.874,0.805-1.755,1.256-2.608c1.133-2.143,1.604-2.727,3.551-4.544
		c0.355-0.331,0.765-0.577,1.187-0.822c1.257-0.728,2.547-1.384,3.878-1.962c1.036-0.45,2.075-0.889,3.226-0.963
		c0.65-0.042,1.26-0.252,1.862-0.495c0.296-0.12,0.609-0.214,0.923-0.267c1.423-0.238,2.925-0.086,4.24-0.859
		c1.121-0.128,2.24-0.275,3.363-0.378c0.65-0.06,1.261-0.211,1.867-0.455c0.442-0.178,0.921-0.3,1.394-0.359
		c0.8-0.1,1.622-0.057,2.41-0.208c1.098-0.211,2.107-0.775,3.275-0.767c1.128,0.007,2.257-0.098,3.385-0.16
		c0.159-0.009,0.33-0.023,0.471-0.087c2.304-1.048,4.771-0.568,7.164-0.747c1.122-0.084,2.258,0.016,3.388,0.03
		c0.845,0.01,1.568,0.345,2.211,0.857c1.021,0.812,1.912,1.741,2.422,2.968c0.682,1.64,1.46,3.234,2.367,4.758
		c0.5,0.84,0.73,1.789,1.204,2.635c0.238,0.425,0.281,0.918,0.269,1.407c-0.02,0.806,0.009,1.626-0.317,2.382
		c-0.388,0.901-0.601,1.829-0.673,2.807c-0.035,0.473-0.169,0.955-0.348,1.397c-0.729,1.801-1.625,3.505-2.916,4.985
		c-0.848,0.972-1.828,1.831-2.523,2.933c-0.262,0.415-0.6,0.751-1.02,1.012c-0.273,0.17-0.543,0.358-0.776,0.577
		c-2.398,2.257-5.319,3.612-8.322,4.819c-0.442,0.178-0.927,0.258-1.399,0.354c-0.63,0.13-1.29,0.146-1.876,0.442
		c-0.737,0.372-1.518,0.511-2.334,0.541c-1.452,0.053-2.903,0.145-4.355,0.18c-0.981,0.024-1.908,0.212-2.83,0.554
		c-0.764,0.283-1.587,0.294-2.379,0.048c-0.328-0.102-0.518-0.372-0.581-0.679c-0.032-0.157-0.084-0.348-0.024-0.477
		c0.131-0.283,0.391-0.479,0.707-0.569c0.787-0.224,1.603-0.128,2.405-0.193c0.642-0.052,1.323-0.013,1.913-0.223
		c1.561-0.554,3.177-0.49,4.781-0.606c0.97-0.07,1.905-0.263,2.821-0.624c0.744-0.292,1.559-0.399,2.319-0.655
		c0.608-0.205,1.192-0.472,1.809-0.668c1.549-0.491,2.985-1.226,4.195-2.331c1.547-1.413,3.175-2.747,4.439-4.445
		c0.266-0.358,0.239-0.608-0.125-0.753c-0.14-0.056-0.294-0.093-0.444-0.102c-0.159-0.009-0.321,0.02-0.481,0.041
		c-0.49,0.065-0.906,0.316-1.342,0.524c-0.873,0.415-1.738,0.858-2.643,1.191c-0.75,0.277-1.564,0.356-2.296,0.73
		c-1.009,0.515-2.19,0.475-3.224,0.987c-1.003,0.497-2.212,0.453-3.192,1.078c-0.128,0.082-0.308,0.098-0.466,0.112
		c-1.296,0.119-2.51,0.541-3.741,0.934c-0.759,0.242-1.582,0.287-2.376,0.42c-1.176,0.636-2.46,0.678-3.756,0.745
		c-3.39,0.173-6.778,0.129-10.168,0.049c-2.744-0.065-5.488-0.127-8.231,0.027c-0.313,0.018-0.618,0.142-0.93,0.197
		c-0.391,0.069-0.58,0.829-0.35,1.208c0.429,0.708,1.033,1.248,1.69,1.708c1.055,0.74,2.154,1.42,3.251,2.096
		c0.266,0.164,0.592,0.258,0.903,0.316c1.274,0.237,2.563,0.305,3.858,0.258 M66.46,44.437c1.129,0.052,2.226,0.015,3.218-0.668
		c0.521-0.358,1.169-0.536,1.678-0.907c0.905-0.662,1.931-1.135,2.813-1.812c0.884-0.679,1.651-1.473,2.128-2.543
		c0.518-1.16,1.157-2.267,1.558-3.479c0.103-0.312,0.041-0.65-0.128-0.929c-0.161-0.267-0.357-0.518-0.569-0.746
		c-0.102-0.11-0.31-0.241-0.417-0.205c-0.464,0.156-0.791,0.503-1.059,0.906c-0.186,0.28-0.069,0.516,0.106,0.846
		c0.534,1.007,0.491,1.327-0.271,2.101c-0.787,0.799-1.569,1.6-2.139,2.574c-0.249,0.425-0.565,0.76-0.978,1.021
		c-1.483,0.937-2.902,1.977-4.465,2.785c-0.418,0.216-0.889,0.343-1.2,0.723c-0.096,0.117-0.12,0.294-0.176,0.443
		c-0.791,0.091-1.603-0.005-2.374,0.27c-0.311,0.111-0.5,0.339-0.565,0.696c-0.295-0.125-0.589-0.248-0.884-0.374
		c-0.443-0.189-0.878-0.397-1.329-0.564c-0.601-0.222-1.033-0.772-1.696-0.858c-0.152-0.02-0.328-0.036-0.461,0.021
		c-0.607,0.26-1.056,0.738-1.489,1.207c-0.897,0.974-2.027,1.565-3.208,2.098c-0.666,0.301-1.246,0.119-1.806-0.236
		c-0.27-0.171-0.524-0.372-0.763-0.585c-0.36-0.321-0.702-0.663-1.048-1c-0.359-0.349-0.794-0.269-1.151,0.277
		c-0.791,1.213-1.545,2.448-2.904,3.136c-0.112,0.057-0.254,0.313-0.226,0.348c0.218,0.264,0.519,0.375,0.851,0.366
		c0.965-0.025,1.932-0.021,2.894-0.091c0.473-0.035,0.974-0.129,1.395-0.334c0.892-0.436,1.834-0.576,2.799-0.658
		c0.64-0.054,1.305-0.033,1.881-0.359c1.007-0.569,2.231-0.41,3.222-0.958c1.025-0.566,2.191-0.476,3.25-0.843
		c0.305-0.106,0.491-0.356,0.575-0.703c0.64-0.037,1.282-0.056,1.92-0.118C65.94,45.237,66.176,45.013,66.46,44.437z M71.338,37.708
		c-0.811-0.122-1.605-0.025-2.355,0.283c-0.888,0.365-1.786,0.725-2.621,1.191c-1.024,0.572-2.204,0.389-3.247,0.801
		c-0.293,0.116-0.568,0.294-0.826,0.479c-0.553,0.398-0.671,1.103-0.298,1.674c0.087,0.132,0.177,0.268,0.292,0.375
		c0.347,0.324,0.697,0.68,1.241,0.444c0.743-0.322,1.585-0.32,2.311-0.639c1.465-0.645,2.903-1.363,4.256-2.223
		c0.851-0.541,1.428-1.285,1.239-2.395c0.353,0.064,0.607-0.066,0.685-0.407c0.016-0.071-0.201-0.288-0.272-0.272
		C71.402,37.101,71.273,37.355,71.338,37.708z M26.695,39.575c1.306-0.152,2.574-0.03,3.781,0.529
		c0.592,0.274,1.215,0.423,1.864,0.482c0.482,0.044,1.019-0.013,1.433,0.183c1.517,0.718,3.134,0.718,4.741,0.778
		c3.227,0.119,6.455,0.177,9.683,0.047c1.452-0.059,2.885-0.108,4.281-0.651c1.055-0.41,2.234-0.246,3.352-0.385
		c0.477-0.059,1.009-0.046,1.412-0.261c1.162-0.616,2.515-0.592,3.669-1.185c0.441-0.227,0.907-0.338,1.385-0.399
		c0.967-0.124,1.911-0.313,2.764-0.815c2.544-0.586,4.795-1.83,7.049-3.085c1.006-0.56,1.852-1.286,2.607-2.128
		c0.203-0.227,0.349-0.556,0.399-0.858c0.131-0.793,0.221-1.574,0.688-2.281c0.265-0.401,0.217-0.88-0.049-1.355
		c-0.47-0.842-0.853-1.732-1.288-2.593c-0.217-0.43-0.431-0.87-0.714-1.255c-0.386-0.525-0.882-0.97-1.549-1.076
		c-0.795-0.127-1.604-0.252-2.404-0.238c-3.389,0.059-6.778,0.17-10.167,0.263c-0.65,0.018-1.271,0.156-1.883,0.389
		c-0.447,0.171-0.919,0.315-1.391,0.373c-0.8,0.099-1.61,0.104-2.413,0.182c-0.479,0.046-0.994,0.062-1.418,0.256
		c-1.206,0.553-2.477,0.68-3.77,0.772c-0.478,0.034-0.977,0.096-1.417,0.27c-0.917,0.362-1.868,0.495-2.835,0.567
		c-0.971,0.073-1.891,0.296-2.817,0.626c-0.899,0.321-1.91,0.318-2.823,0.609c-0.921,0.293-1.814,0.656-2.79,0.745
		c-0.482,0.044-0.951,0.16-1.389,0.382c-0.862,0.436-1.712,0.902-2.596,1.288c-1.226,0.536-2.153,1.415-2.939,2.452
		c-0.681,0.899-1.337,1.822-1.934,2.778c-0.509,0.814-0.974,1.663-1.29,2.58c-0.118,0.343-0.043,0.629,0.211,0.894
		c0.331,0.344,0.662,0.696,0.676,1.219c-1.346,0.25-1.909,1.688-3.163,2.085c-0.13,0.041-0.235,0.199-0.325,0.322
		c-0.093,0.126-0.204,0.27-0.221,0.416c-0.076,0.634-0.141,1.271-0.171,1.909c-0.046,0.992,0.231,1.894,0.816,2.702
		c0.093,0.128,0.136,0.293,0.231,0.419c0.095,0.127,0.226,0.226,0.341,0.338c0.085-0.121,0.236-0.237,0.246-0.365
		c0.123-1.553,0.977-2.671,2.116-3.627c0.123-0.103,0.242-0.21,0.364-0.313c0.122-0.104,0.253-0.198,0.368-0.308
		c0.611-0.589,1.394-0.741,2.187-0.882c0.15-0.027,0.33-0.096,0.419-0.208c0.117-0.147-0.082-0.347-0.503-0.406
		c-0.996-0.14-1.81-0.603-2.496-1.317C26.807,40.21,26.703,39.917,26.695,39.575z M34.454,42.638c-0.699,0-1.017,0.015-1.333-0.004
		c-0.336-0.021-0.678,0.015-0.88,0.272c-0.116,0.148,0.13,0.395,0.439,0.618c0.253,0.183,0.551,0.385,0.674,0.651
		c0.465,1.003,1.106,1.937,1.281,3.063c0.024,0.152,0.099,0.296,0.148,0.444c0.172,0.517,1.19,0.652,1.636,0.253
		c1.189-1.063,2.196-2.293,3.23-3.498c0.1-0.117,0.194-0.28,0.198-0.425c0.003-0.109-0.116-0.274-0.224-0.327
		c-0.857-0.419-1.816-0.494-2.721-0.756C36.003,42.671,35.022,42.698,34.454,42.638z M29.94,49.395
		c0.86-0.038,1.492-0.063,2.123-0.096c0.157-0.008,0.313-0.049,0.47-0.065c0.472-0.049,0.673-0.533,0.493-1.052
		c-0.258-0.743-0.491-1.496-0.757-2.236c-0.297-0.826-1.291-1.438-2.261-1.401c-0.314,0.012-0.626,0.081-0.941,0.108
		c-0.51,0.045-0.891,0.316-1.155,0.719c-0.346,0.527-0.683,1.069-0.945,1.64c-0.197,0.428-0.196,0.913-0.092,1.391
		c0.1,0.457,0.523,0.898,0.928,0.914C28.59,49.346,29.379,49.374,29.94,49.395z M42.336,50.074c0.334-0.018,0.654-0.02,0.971-0.057
		c0.155-0.018,0.302-0.1,0.453-0.153c-0.101-0.282-0.142-0.61-0.316-0.836c-0.481-0.629-1.073-1.157-1.445-1.889
		c-0.327-0.644-1.166-0.761-1.598-0.337c-0.569,0.558-1.155,1.1-1.567,1.795c-0.172,0.29-0.098,0.608,0.284,0.731
		C40.171,49.669,41.186,50.212,42.336,50.074z M47.808,43.957c-0.158-0.242-0.402-0.462-0.733-0.464
		c-0.958-0.006-1.92,0.007-2.874,0.089c-0.272,0.023-0.545,0.282-0.769,0.487c-0.078,0.072-0.035,0.313,0.002,0.465
		c0.073,0.307,0.157,0.615,0.278,0.905c0.122,0.294,0.298,0.566,0.444,0.851c0.526,1.034,1.418,1.073,2.234,0.131
		c0.528-0.61,0.92-1.298,1.294-2.001C47.756,44.282,47.768,44.112,47.808,43.957z M57.439,42.06
		c-0.115-0.081-0.218-0.195-0.346-0.238c-0.453-0.155-0.936-0.15-1.369-0.002c-0.733,0.251-1.455,0.554-2.141,0.911
		c-0.236,0.123-0.428,0.454-0.504,0.728c-0.079,0.283-0.048,0.627,0.032,0.917c0.219,0.796,0.725,0.978,1.405,0.619
		c1.128-0.594,1.983-1.497,2.728-2.511C57.333,42.361,57.375,42.203,57.439,42.06z"/>
</g>
</svg>
