<?xml version="1.0" encoding="utf-8"?>
<!-- Generator: Adobe Illustrator 21.0.2, SVG Export Plug-In . SVG Version: 6.00 Build 0)  -->
<!DOCTYPE svg PUBLIC "-//W3C//DTD SVG 1.1//EN" "http://www.w3.org/Graphics/SVG/1.1/DTD/svg11.dtd">
<svg version="1.1" id="Layer_1" xmlns="http://www.w3.org/2000/svg" xmlns:xlink="http://www.w3.org/1999/xlink" x="0px" y="0px"
	 viewBox="0 0 102 80.9" style="enable-background:new 0 0 102 80.9;" xml:space="preserve">
<style type="text/css">
	.st0{fill:#FFFFFF;}
</style>
<g id="cartoon_food_5">
	<path class="st0" d="M35.2,29.2c-7.2,1.8-16.3,10-6.7,14.6l8.1,1.4c0,0,2.6,5.3,7.3,7.3S52,54,55.5,53S67,51.8,67,51.8l5.5-7.5
		c0,0,11.1-6.3,9.3-11.3c-1.8-5-11.8-4.6-11.8-4.6l-20.4-1.6L35.2,29.2z"/>
</g>
<g>
	<path d="M67.3,54.2c-0.8-2.3-2.3-2-3.7-1.7c-3.4,0.7-6.7,1.4-10.1,2.1c-2.4,0.5-4.6,0-7-0.2c-3.6-0.3-5.5-2.8-8.1-4.3
		c-0.4-0.2-1-0.6-1-1c-0.4-2.8-2.8-2.5-4.6-2.9c-3.4-0.8-6.7-1.5-8.7-4.8c-2-3.3-1-6.6,2-8.9c5.1-3.9,11.1-4.9,17.2-5.6
		c9-1.1,17.8,0.2,26.6,1.5c1.8,0.3,3.7,0.3,5.5,0.4c2.9,0.2,5.2,1.2,6.4,4.2c1.1,2.8-0.4,4.8-2.1,6.6c-1.1,1.2-2.3,2.4-3.7,3.3
		c-2,1.3-3.6,3.1-5.4,4.7C68.6,49.2,68.7,51.7,67.3,54.2z M49.2,28.3c-7,0.6-14.6,0.8-21.3,5.3c-2,1.3-3.2,2.7-3,5
		c0.2,2.3,1.7,3.8,3.7,4.6c2.6,1,5.3,1.6,8.1,2.1c6.8,1.2,13.6,1,20.5,0c5-0.8,10.1-1.4,15-3.1c2.8-1,5.9-1.7,7.7-4.5
		c1.8-2.7,0.5-5.7-2.6-6.4c-2.2-0.5-4.5-0.2-6.7-0.6C63.7,29.2,56.8,28.9,49.2,28.3z M70.4,44.8c-10.5,1.6-20.6,4.8-31.2,2.8
		c1.4,1.4,2.4,3.1,4.7,2.9c0.7-0.1,1.4,0.5,2,1.1c1.6,1.6,3.5,1.9,5.7,1.5c4.9-0.8,9.5-2.8,14.5-3c0.3,0,0.8-0.3,1-0.6
		C68.2,48.1,69.2,46.6,70.4,44.8z"/>
	<path d="M56.4,42c0.2,2.2-0.9,2.1-2.3,2.2c-2.1,0.1-4.1,0.7-6-0.4c-1-0.6-1.9-1.2-1.2-2.6c0.2-0.4,1-1,0.2-1.4
		c-0.8-0.5-1.6,0.1-1.7,0.8c-0.6,2.1-2.2,2.3-3.9,2.6c-0.9,0.1-1.8,0-2.5-0.5c-1.6-1.1-3.2-1.9-5.2-1.1c-0.5,0.2-1.1,0.2-1.4-0.4
		c-0.2-0.4,0-0.9,0.3-1c1.8-0.7,2.5-2.6,3.8-3.9c1.6-1.6,3.2-1.9,5.1-0.6c1,0.7,2.1,1.4,3.4,1.7c-0.5-4.3,2.5-6.6,6.3-5
		c1.9,0.8,3,2.3,2.3,4.4c-0.5,1.5,0.5,1.7,1.1,2.6c1.4,1.8,3.7,1.1,5.3,2.5c0.9,0.8,3.2,0.2,4-1.1c0.8-1.3,1-3.1,0.1-4.6
		c-0.8-1.4-2.4-1-3.7-0.6c-1.3,0.4-2.5,1-3.1,2.4c-0.1,0.4-0.5,0.7-0.9,0.6c-0.5-0.2-0.3-0.6-0.3-1c0-1.7,1.1-2.9,2.5-3.5
		c1.9-0.9,4.1-1.4,5.9,0.2c1.2,1,1.9,1.3,3.4,0.3c1.6-1.1,3.7-1.3,5.7-0.5c1.3,0.5,2.3,1.4,2.3,3c0,1.5-0.9,2.3-2.1,2.9
		c-1.9,0.9-4,1.3-6.1,0.9c-1-0.2-1.6,0.1-2.2,0.9C63.4,44.1,59.7,44.5,56.4,42z M41.3,41c0.7-0.2,1.8,0.5,2.1-0.9
		c0.2-1.1-0.3-1.8-1.3-2.2c-0.5-0.2-1-0.5-1.5-0.7c-1-0.3-2.3-0.7-2.6,0.6c-0.2,1.1,0.1,2.6,1.7,3C40.1,40.9,40.7,40.9,41.3,41z
		 M71.7,35.5c-1.1,0.1-2.2,0.2-3.2,0.7c-0.8,0.4-1.2,1.2-1.1,2c0.2,1,1.2,0.6,1.8,0.5c1,0,2.1-0.2,3-0.5c0.8-0.3,2.2-0.5,1.9-1.7
		C73.9,35.4,72.6,35.6,71.7,35.5z M49.8,34c-1.2,0.2-2.5,0-3.2,1.2c-0.3,0.5-0.3,1.2,0.1,1.6c1,0.8,2.1,0.2,3.2,0.2
		c0.1,0,0.2,0,0.2,0c0.8-0.3,2.2-0.2,2-1.5C52.1,34.1,50.9,34,49.8,34z M54.9,41.1c-1.7-0.8-3.2-0.9-4.8-0.6
		c-0.7,0.1-1.2,0.5-1.1,1.3c0.1,0.7,0.7,0.8,1.3,0.9C52,42.8,53.5,42.5,54.9,41.1z"/>
</g>
</svg>
