<?xml version="1.0" encoding="iso-8859-1"?>
<!-- Generator: Adobe Illustrator 21.0.2, SVG Export Plug-In . SVG Version: 6.00 Build 0)  -->
<!DOCTYPE svg PUBLIC "-//W3C//DTD SVG 1.1//EN" "http://www.w3.org/Graphics/SVG/1.1/DTD/svg11.dtd">
<svg version="1.1" id="Layer_1" xmlns="http://www.w3.org/2000/svg" xmlns:xlink="http://www.w3.org/1999/xlink" x="0px" y="0px"
	 viewBox="0 0 101.967 80.938" style="enable-background:new 0 0 101.967 80.938;" xml:space="preserve">
<g id="Food_5">
	<g>
		<path style="fill:#FFFFFF;" d="M46.944,24.595c-1.333,0.5-4.167,3.667-5.167,5.167s-3.333,5-4,5.5s-2.833,2-4.5,2.333
			c-1.667,0.333-5,2.667-4.333,6s7.167,6.667,7.667,7.333c0.5,0.667,0.5,2,1.667,3s10,3.333,15.167,2.333s11.667-1.333,14-3.833
			c2.167-1.333,3-1.5,2.833-3.167s-1-5.167-1-5.167l2.5-5.667l-1.667-1.667c0,0-3-5-6-5.333c-2-0.667-3-3.5-3.667-4.333
			s-4.5-2.167-6.833-1.667s-4-1.333-4.667-1.333S46.944,24.595,46.944,24.595z"/>
		<g>
			<path d="M49.18,23.285c0.265,0.1,0.572,0.206,0.931,0.336c2.291,0.83,4.543,0.883,6.903,0.958
				c2.328,0.075,4.331,1.128,5.116,3.628c0.227,0.723,0.661,1.249,1.325,1.624c0.902,0.509,1.765,1.09,2.673,1.589
				c1.634,0.898,3.114,1.924,3.901,3.723c0.211,0.483,0.647,0.87,1.035,1.374c0.493-0.634,0.916-1.189,1.352-1.734
				c0.607-0.761,1.276-0.507,1.891-0.045c0.643,0.482,0.269,1.115-0.067,1.469c-2.038,2.149-2.312,5.195-4.085,7.367
				c0,0,0.727,4.563,1.164,6c0.438,1.437-1.832,2.734-1.832,2.734c-0.415-0.019-0.844,0.135-1.242,0.491
				c-2.541,2.27-5.607,2.913-8.8,3.316c-4.748,0.599-9.479,1.507-14.302,0.692c-2.364-0.4-4.73-0.74-6.833-2.022
				c-0.691-0.421-1.637-0.828-1.696-1.587c-0.137-1.776-1.416-2.347-2.659-3.033c-1.628-0.899-2.982-2.129-4.256-3.461
				c-1.092-1.141-1.992-2.515-3.643-2.987c-0.323-0.092-0.523-0.372-0.389-0.739c0.126-0.344,0.411-0.475,0.762-0.397
				c0.311,0.069,0.608,0.2,0.92,0.266c0.79,0.168,1.181-0.142,1.257-0.973c0.329-3.573,2.85-5.047,5.898-5.671
				c1.559-0.319,2.445-0.991,2.924-2.391c0.186-0.542,0.484-0.994,0.91-1.38c1.302-1.179,2.202-2.637,2.938-4.234
				c0,0,0.918-2.061,1.668-2.374s0.418-0.165,0.418-0.165c0.381-0.123,0.698-0.252,0.957-0.396c0,0,3.063-2.063,4.438-2.126
				C49.132,23.012,49.18,23.285,49.18,23.285z M70.229,37.653c-0.774-0.694-1.812-0.735-1.988-1.598
				c-0.395-1.943-1.953-2.582-3.467-3.304c-1.767-0.843-3.222-2.015-4.141-3.797c-1.155-2.239-2.769-3.03-5.231-2.609
				c-1.432,0.245-2.675,0.229-4.072-0.644c-2.291-1.431-4.295-0.721-5.819,1.55c-0.443,0.659-0.772,1.46-1.509,1.828
				c-2.566,1.28-3.354,4.036-5.042,6.04c-0.672,0.797-1.244,1.59-2.213,2.044c-0.947,0.444-1.949,0.688-2.939,0.996
				c-1.821,0.567-3.337,1.549-3.837,3.563c-0.358,1.443-0.156,1.812,1.301,2.119c3.873,0.817,7.802,0.506,11.687,0.284
				c4.522-0.258,9.038-0.8,13.528-1.423C61.318,42.03,65.999,40.807,70.229,37.653z M32.462,46.036c0,0.197-0.057,0.383,0.011,0.491
				c0.167,0.265,0.377,0.507,0.594,0.735c2.713,2.849,6.176,4.126,9.961,4.673c4.517,0.652,9.069,0.503,13.613,0.496
				c0.804-0.001,1.572-0.111,2.347-0.358c5.031-1.599,7.909-5.378,10.073-9.884c0.224-0.466,0.651-0.972-0.011-1.593
				c-2.91,1.348-5.84,2.8-9.083,3.375c-2.509,0.444-5.049,0.625-7.578,0.904c-5.946,0.656-11.876,1.364-17.877,0.999
				C33.84,45.834,33.108,45.655,32.462,46.036z M38.277,52.891c1.023,0.776,1.84,1.166,2.735,1.5c2.416,0.9,4.94,1.26,7.467,1.337
				c5.126,0.156,10.134-0.893,15.138-1.855c1.018-0.196,1.985-0.577,2.782-1.302c0.876-0.796,1.636-1.765,2.929-1.962
				c0.184-0.028,0.495-0.341,0.467-0.451c-0.208-0.821-0.242-1.693-1.145-2.233c-0.85-0.508-1.32-0.117-1.852,0.419
				c-0.505,0.509-1.03,0.997-1.539,1.501c-0.613,0.608-1.719,1.073-0.222,2.043c0.507,0.328-0.192,0.811-0.631,0.929
				c-2.618,0.699-5.318,1.432-7.981,1.274c-5.778-0.342-11.663,0.425-17.321-1.411C38.984,52.641,38.816,52.747,38.277,52.891z"/>
			<path d="M46.301,32.519c-0.101-0.851-0.653-1.779,0.343-2.55c1.228-0.95,1.939-2.676,4.017-2.241
				c1.714,0.359,2.33,1.4,1.494,2.902c-0.671,1.207-2.098,1.448-2.952,2.296c-0.736,0.731-0.016,2.255-1.095,3.191
				c-1.008,0.874-2.157,1.378-3.369,1.69c-0.619,0.159-1.408-0.048-1.761-0.869c-0.532-1.239-0.437-2.435,0.494-3.043
				C44.328,33.336,45.32,32.985,46.301,32.519z M50.801,29.783c-0.14-0.476-0.456-0.774-0.869-0.653
				c-0.686,0.2-1.714-0.04-1.827,1.06c-0.042,0.409,0.374,0.73,0.805,0.656C49.657,30.717,50.483,30.644,50.801,29.783z
				 M46.043,35.153c0.105-0.171,0.069-0.305-0.118-0.375c-0.305-0.114-0.619-0.098-0.76,0.218c-0.109,0.244,0.079,0.428,0.34,0.46
				C45.745,35.485,45.932,35.376,46.043,35.153z"/>
			<path d="M38.298,40.293c0.012-1.226,0.714-1.996,2.027-2.222c1.447-0.249,3.282,0.614,4.084,1.919
				c0.921,1.498,0.377,3.03-1.285,3.621C41.192,44.297,38.279,42.294,38.298,40.293z M40.434,40.17
				c1.138,0.146,1.202,0.936,1.736,1.282c0.224,0.145,0.457,0.106,0.628-0.081c0.174-0.19,0.172-0.467-0.005-0.618
				C42.254,40.293,41.656,39.946,40.434,40.17z"/>
			<path d="M56.757,30.94c0.735,0.024,1.424,0.207,2.031,0.632c1.342,0.941,1.442,2.263,0.285,3.434
				c-0.988,1-2.213,1.231-3.53,1.057c-1.394-0.184-1.816-0.87-1.509-2.298C54.53,31.461,55.073,30.897,56.757,30.94z M55.526,32.861
				c0.062,0.299,0.073,0.525,0.156,0.721c0.378,0.896,1.082,0.716,1.74,0.444c0.246-0.102,0.605-0.481,0.562-0.638
				c-0.213-0.782-0.928-0.677-1.532-0.687C56.157,32.696,55.861,32.799,55.526,32.861z"/>
			<path d="M51.791,41.867c-1.178,0.285-2.17-0.397-2.959-1.335c-0.735-0.874-0.341-1.932,0.765-2.021
				c0.698-0.056,1.183-0.273,1.685-0.709c0.58-0.504,1.333-0.566,2.046-0.393c0.977,0.236,1.799,0.713,1.892,1.869
				c0.087,1.085-0.403,1.803-1.389,2.266C53.224,41.829,52.608,41.873,51.791,41.867z M53.133,39.216
				c-0.44-0.205-0.766-0.194-1.036-0.015c-0.32,0.212-0.733,0.498-0.403,0.933c0.227,0.3,0.573,0.073,0.829-0.117
				C52.772,39.833,53.098,39.712,53.133,39.216z"/>
			<path d="M61.457,40.111c-1.013-0.089-1.904-0.091-2.526-0.86c-0.209-0.259-0.353-0.541-0.192-0.861
				c0.152-0.3,0.437-0.487,0.77-0.435c0.384,0.06,0.775,0.162,1.125,0.326c0.771,0.361,1.386,0.054,1.975-0.393
				c0.315-0.239,0.647-0.511,0.503-0.971c-0.131-0.418-0.463-0.695-0.898-0.565c-0.792,0.236-1.315,0.101-1.16-0.825
				c0.135-0.81,0.721-1.197,1.559-1.113c1.139,0.114,2.315,1.241,2.414,2.297c0.117,1.255-0.837,2.765-2.073,3.162
				C62.435,40.04,61.864,40.051,61.457,40.111z"/>
		</g>
	</g>
</g>
</svg>
