<?xml version="1.0" encoding="iso-8859-1"?>
<!-- Generator: Adobe Illustrator 21.0.2, SVG Export Plug-In . SVG Version: 6.00 Build 0)  -->
<!DOCTYPE svg PUBLIC "-//W3C//DTD SVG 1.1//EN" "http://www.w3.org/Graphics/SVG/1.1/DTD/svg11.dtd">
<svg version="1.1" id="Layer_1" xmlns="http://www.w3.org/2000/svg" xmlns:xlink="http://www.w3.org/1999/xlink" x="0px" y="0px"
	 viewBox="0 0 101.967 80.938" style="enable-background:new 0 0 101.967 80.938;" xml:space="preserve">
<g id="Food_7">
	<g>
		<path style="fill:#FFFFFF;" d="M52.94,18.301c-1.5,0.75-4.25,3.75-2.75,5.5s-2.5,1.75-3.25,2.25s-2.5,4.25-2.5,7
			s0.25,8.75,1.25,10.5s3.5,3.75,4.5,4s0.25,1.5,1,3.5s0,4.5,0.25,5.5s2,2.5,3.75,2s2.5-2.5,2-3.25s-2.5-3.5-1.75-5s2-2.75,2-2.75
			s5-8.5,5-10.25s-0.75-5.75-1.25-6.75s-0.25-4.75-2.25-4.75s-8,1.75-8,1.75l1-2.25l4.25-3c0,0,1.5-3-0.25-3.75
			S52.94,18.301,52.94,18.301z"/>
		<path d="M62.351,39.673c0,0,1.58-4.1,0.834-7.694c-0.716-0.471-0.657-1.47-1.201-2.143c-0.422-0.523-0.491-1.012-0.281-1.414
			c0,0,0.979-2.002-0.476-2.604l-0.582-1.939c-2.808,0.333-5.133,1.948-8.199,2.293c0.579-0.843,1.201-1.107,1.757-1.448
			c0.748-0.46,1.539-0.864,2.234-1.395c1.955-1.493,1.883-3.84-0.161-5.196c-1.46-0.969-3.035-0.942-4.57-0.206
			c-1.556,0.746-1.947,2.229-2.151,3.776c-0.123,0.929,0.61,2.118-0.139,2.729c-0.643,0.524-1.808,0.377-2.721,0.609l-1.738,2.25
			c-1.482,1.241-1.154,3.656-1.154,3.656c-0.019,0.269-0.375,8.781,1.237,12.368c1.203,2.679,3.643,3.904,6.315,4.714
			c0.527,0.159,0.993-0.04,1.167-0.547c0.23-0.669-0.377-0.857-0.805-0.912c-2.256-0.289-3.826-1.52-4.867-3.467
			c-0.755-1.41-0.587-1.64,0.966-2.341c2.829-1.276,5.071-3.299,6.934-5.747c0.559-0.735,0.809-1.385-0.164-2.227
			c-0.827-0.716-0.5-1.236,0.675-1.54c1.313-0.34,2.621-0.701,3.931-1.055c0.566-0.153,1.119-0.276,1.349,0.491
			c-1.671,0.348-1.599,0.378-2.279,2.009c-1.397,3.348-3.288,6.376-5.983,8.866c-0.622,0.574-1.375,0.772-2.089,1.112
			c-0.517,0.247-0.963,0.71-0.761,1.336c0.153,0.475,0.679,0.758,1.164,0.675c0.742-0.127,1.403-0.036,2.094,0.235
			c0.581,0.228,1.033-0.063,1.478-0.495c1.996-1.936,4.23-3.633,6.065-6.276c0.381,1.675,0.103,2.947-0.507,4.101
			c-1.215,2.299-2.187,4.849-5.116,5.631c-0.659,0.176-0.606,0.866-0.649,1.417c-0.172,2.182,0.656,4.053,1.771,5.856
			c0.839,1.357,0.704,1.641-0.699,2.262c-0.69,0.306-1.2,0.312-1.589-0.438c-0.443-0.853-0.918-1.664-0.824-2.701
			c0.072-0.79,0.033-1.599-0.047-2.391c-0.099-0.974-0.464-1.884-1.191-2.553c-0.374-0.344-0.912-0.873-1.453-0.357
			c-0.505,0.482,0.067,0.845,0.388,1.149c0.636,0.605,0.742,1.38,0.813,2.188c0.145,1.659,0.106,2.162-0.849,2.418
			c0,0,0.16,1.155,0.494,2.489c0.333,1.333,1.667,2.167,2.833,2.333c1.167,0.167,4.833-1,6.333-2.167s-0.131-2.046-0.131-2.046
			c-1.229,0.383-1.942,0.256-2.497-0.496c-0.185-0.251-0.353-0.571-0.516-0.965c-0.364-0.879-0.55-1.833-0.793-2.759
			c-0.174-0.662-0.046-1.249,0.458-1.76C59.186,46.596,61.494,43.584,62.351,39.673z M54.251,19.331
			c0.202,0.036,0.607,0.058,0.978,0.184c0.823,0.281,1.045,0.948,0.528,1.666c-0.784,1.09-1.974,1.586-3.205,1.923
			c-0.662,0.181-1.001-0.32-1.122-0.935C51.108,20.53,52.247,19.301,54.251,19.331z M45.932,37.946
			c-0.321-1.592-0.53-2.979-0.371-4.416c0.113-1.023,0.599-1.754,1.667-1.576c1.666,0.278,3.316-0.178,5.333,0.026
			C50.483,34.293,49.134,36.961,45.932,37.946z M58.355,28.755c-0.978,0.294-1.98,0.535-2.987,0.702
			c-1.012,0.168-2.043,0.218-3.299,0.343c0.131-0.909,0.166-1.578,1.225-1.828c1.21-0.287,2.445-0.628,3.519-1.36
			c0.293-0.2,0.773-0.258,1.133-0.194c0.601,0.108,1.359,0.171,1.477,0.963C59.535,28.134,58.985,28.566,58.355,28.755z
			 M60.361,35.115c-0.276-0.049-0.461-0.19-0.462-0.442c-0.002-0.41,0.198-0.785,0.56-0.924c0.23-0.088,0.293,0.263,0.295,0.462
			C60.758,34.567,60.858,34.994,60.361,35.115z"/>
	</g>
</g>
</svg>
