<?xml version="1.0" encoding="iso-8859-1"?>
<!-- Generator: Adobe Illustrator 21.0.2, SVG Export Plug-In . SVG Version: 6.00 Build 0)  -->
<!DOCTYPE svg PUBLIC "-//W3C//DTD SVG 1.1//EN" "http://www.w3.org/Graphics/SVG/1.1/DTD/svg11.dtd">
<svg version="1.1" id="Layer_1" xmlns="http://www.w3.org/2000/svg" xmlns:xlink="http://www.w3.org/1999/xlink" x="0px" y="0px"
	 viewBox="0 0 101.967 80.938" style="enable-background:new 0 0 101.967 80.938;" xml:space="preserve">
<g id="Food_6">
	<g>
		<path style="fill:#FFFFFF;" d="M24.185,25.63c-0.417,0.75-1.083,3.583-0.5,8.333s2.75,15.5,2.75,15.5s-1,1.083-2,1
			s-8.5,2.333-6.5,5.667c2,3.333,5.583,5.917,10.75,6.25c0,0,5.833,1.083,8.167,1.167c2.333,0.083,6,0.75,6.667,0.667
			s15.833-0.833,17.75-1.333s7.833-0.417,11.417-3.25c3-1.5,9.917-5.083,10.25-5.833s3.333-6-2.667-8.333c-3.25-1.417-4-1-4-1
			s-3.5-14.333-1.583-20.167c0.833-2.75-4.167-4-5.75-4s-25.917,1.917-27.5,1.917s-8.417,0.5-9.833,1
			c-1.416,0.5-5.75,0.667-6.25,1.083C24.852,24.713,24.185,25.63,24.185,25.63z"/>
		<path d="M85.006,49.745c-0.61-2.062-1.824-3.705-3.755-4.767c-0.712-0.392-1.409-0.567-1.845,0.263
			c-0.354,0.673,0.267,1,0.755,1.261c0.714,0.382,1.327,0.869,1.875,1.466c1.631,1.779,1.366,3.899-0.47,5.505
			c-2.033,1.778-4.425,2.711-6.931,3.49c-1.818,0.565-3.622,1.176-5.414,1.761c-0.195,0.992,0.887,0.879,1.066,1.569
			c-0.859,0.645-1.882,1.034-2.939,1.465c0,0-9.079,0.705-13.079,1.08s-7.948,0.358-7.948,0.358
			c-2.148-0.037-4.276,0.056-6.438-0.333c-2.498-0.45-5.095-0.317-7.622-0.648c-2.907-0.381-5.82-0.792-8.54-2.065
			c-1.992-0.932-3.332-2.397-4.212-4.347c-0.663-1.469-0.2-2.687,1.298-3.203c0.767-0.264,1.467-0.528,2.081-1.098
			c0.459-0.426,1.104-0.628,1.755-0.7c1.534-0.169,2.022,0.347,1.804,1.914c-0.488,3.512,0.489,4.969,3.744,6.331
			c2.085,0.872,4.213,0.771,6.352,0.878c3.87,0.193,7.653-0.3,11.324-1.554c0.639-0.219,1.456-0.28,1.566-1.215
			c-0.536-0.411-1.064-0.173-1.596-0.039c-4.522,1.142-9.075,1.667-13.727,0.844c-2.014-0.357-3.745-1.287-5.474-2.286
			c-0.758-0.438-0.835-1.194-0.867-1.864c-0.166-3.496-0.944-6.89-1.581-10.31l-0.564-3.213c-0.818-2.991-1.084-5.636-1.292-8.286
			c-0.09-1.159,0.338-1.4,1.468-0.722c1.733,1.038,3.552,1.932,5.541,2.057c4.065,0.255,8.16,0.506,12.213,0.019
			c4.756-0.571,9.535-0.834,14.294-1.337c1.245-0.132,2.493-0.293,4.043-0.583c-0.886,1.634-2.075,2.407-3.4,2.881
			c-1.267,0.454-2.616,0.693-3.944,0.951c-0.701,0.136-1.425,0.125-2.073-0.329c-2.229-1.563-4.538-1.192-6.827-0.183
			c-0.866,0.382-1.748,0.721-2.592,1.189c-1.887,1.047-3.841,1.301-5.961,0.358c-1.514-0.673-3.194-0.996-4.823-1.38
			c-1.536-0.362-2.99,0.26-4.458,0.586c-0.385,0.085-0.762,0.397-0.583,0.864c0.178,0.466,0.623,0.362,1.021,0.277
			c0.779-0.167,1.557-0.342,2.343-0.466c0.63-0.099,1.363-0.287,1.877,0.103c1.523,1.156,3.531,0.965,5.099,1.958
			c1.102,0.698,2.258,0.635,3.436,0.158c1.471-0.595,2.972-1.12,4.431-1.742c2.242-0.956,4.444-1.232,6.651,0.089
			c1.812,1.084,3.624,0.34,5.311-0.249c2.327-0.812,4.61-1.831,6.301-3.758c0.456-0.519,1.031-0.694,1.67-0.836
			c1.091-0.242,2.178-0.513,3.243-0.847c0.592-0.186,1.299-0.423,0.773-1.325c-0.327-0.562-0.01-0.899,0.456-1.14
			c1.114-0.577,2.236-1.136,3.617-1.836c0.193,3.552,0.373,6.855,0.58,10.649l0.44,2.091c0.108,0.331,0.195,0.803,0.298,1.432
			c0.435,2.671,1.338,5.26,1.284,8.027c-0.024,1.206-0.443,1.868-1.459,2.458c-4.982,2.893-10.345,4.512-16.066,4.997
			c-0.555,0.047-1.148,0.122-1.671-0.014c-1.3-0.339-1.885-0.226-2.565,1.306l1.844,0.507l8.912-1.098
			c1.767-0.21,3.365-0.927,5.024-1.496c2.751-0.943,4.967-2.853,7.608-3.975c0.776-0.329,0.547-1.104,0.441-1.698
			c-0.363-2.042-0.676-4.104-1.219-6.101c-1.573-5.787-1.847-11.624-0.985-17.54c0.115-0.786,0.118-1.597,0.083-2.393
			c-0.097-2.196-1.25-3.54-3.376-4.054c-1.648-0.399-3.32-0.406-5.003-0.424c-6-0.066-11.945,0.716-17.917,1.079
			c-0.311,0.019-0.625,0.002-1.265,0.002l-7.679,0.447c-1.487,0.5-3.105,0.514-4.736,0.509c-3.069-0.01-5.939,1.161-8.927,1.66
			c0,0,0.164-0.293-2.711,0.832s-2.273,5.068-2.273,5.068s0.521,4.038,1.077,7.239c0.028,0.156,0.014,0.319,0.023,0.479l1.21,6.502
			c0.385,1.831,0.776,3.521,1.083,5.226c0.138,0.764-0.268,1.231-1.087,1.191c-2.143-0.104-3.817,1.045-5.504,2.098
			c-2.145,1.339-2.718,3.103-1.466,5.301c1.359,2.386,3.209,4.338,5.978,5.226c4.075,1.307,8.263,1.774,12.511,1.891
			c1.233,0.033,2.493-0.071,3.661,0.678c0,0,8.037,0.351,10.537,0.226c3.124-0.156,13.625-1.5,17.5-2.375s12.009-5.535,12.009-5.535
			c1.225-0.762,2.393-1.417,3.482-2.183C84.887,53.763,85.611,51.79,85.006,49.745z M32.777,23.997
			c1.777-0.395,3.609-0.622,5.459-0.614c5.194,0.023,10.336-0.766,15.51-1.067c4.945-0.287,9.879-0.75,14.838-0.823
			c1.226-0.018,2.381,0.288,3.547,0.507c1.438,0.27,1.669,1.056,0.813,2.207c-0.834,1.119-1.934,1.944-3.213,2.431
			c-3.204,1.219-6.397,2.447-9.778,3.176c-1.977,0.426-3.977,0.415-5.936,0.559c-6.682,0.49-13.33,1.657-20.073,1.175
			c-3.262-0.234-6.258-1.05-8.857-3.518C27.102,25.376,29.945,24.627,32.777,23.997z"/>
		<path d="M70.934,40.986c0.211-0.641,0.658-0.856,1.053-1.117l2.199-1.073l-0.083-2.583l-1.084-0.102
			c-0.355-0.279-0.755-0.367-1.291-0.155c-0.908,0.36-1.551,0.991-1.346,1.979c0.165,0.797-0.349,0.959-0.766,1.269
			c-0.537,0.4-0.996,0.4-1.365-0.265c-0.089-0.159-0.416-0.296-0.61-0.27c-2.243,0.306-4.428-0.114-6.644-0.356
			c-1.695-0.186-3.219,0.774-4.741,1.477c-4.127,1.907-8.424,2.835-12.993,2.313c-0.815-0.093-1.635-0.258-2.278-0.649
			c-1.794-1.089-3.71-1.343-5.742-1.294c-1.917,0.046-3.837,0.008-5.755-0.005c-1.214-0.008-1.418-0.032-2.399,1.656l0.917-0.119
			c2.15-0.123,4.314,0.047,6.469-0.007c2.367-0.059,4.48,0.505,6.632,1.584c2.562,1.285,5.438,1.061,8.221,0.475
			c1.388-0.292,2.762-0.654,4.382-1.041c-2.016,1.92-4.4,1.941-6.646,2.243c-5.141,0.691-10.156-0.031-15.08-1.581
			c-1.054-0.331-2.153-0.533-3.243-0.731c-0.799-0.145-1.511,0.158-1.656,0.99c-0.135,0.775,0.625,1.103,1.191,1.237
			c1.231,0.292,2.539,0.176,3.755,0.639c0.286,0.11,0.551,0.163,0.544,0.51c-1.015-0.093-2.012-0.349-3.038-0.139
			c-0.465,0.094-0.969,0.049-1.353,0.4c-0.287,0.263-0.665,0.505-0.514,0.979c0.177,0.555,0.599,0.708,1.132,0.558
			c0.295-0.083,0.563-0.296,0.897-0.161c0.202,0.199,0.027,0.44,0.064,0.631c0.182,0.952-1.19,1.58-0.655,2.426
			c0.498,0.789,1.627,0.446,2.449,0.736c2.86,1.007,5.838,1.584,8.806,2.151c2.699,0.515,5.407,0.449,8.01-0.577
			c3.249-1.28,6.734-1.201,10.099-1.808c3.607-0.651,7.186-1.353,10.537-2.963c1.314-0.632,2.422-1.537,3.656-2.267
			c0.694-0.411,0.966-1.019,0.479-1.818C72.457,43.032,72.202,41.627,70.934,40.986z M38.204,50.816
			c-1.545,0.365-0.643-1.522-1.556-1.848c0.927,0.077,2.075-0.775,2.429,0.685C39.253,50.378,38.734,50.691,38.204,50.816z
			 M53.271,49.628c-1.001-0.072-1.06-0.831-1.429-1.259c-1.003-1.164-2.214-1.559-3.375-1.062c-1.242,0.532-1.492,1.246-1.072,3.211
			c0.069,0.323,0.163,0.606-0.119,0.888c-0.88,0.075-0.833-0.802-1.224-1.229c-1.163-1.269-2.335-2.515-4.304-1.563
			c-0.59,0.285-0.994,0.137-1.438-0.377c-1.284-1.485-2.89-1.959-4.729-1.134c-1.354,0.607-1.952-0.643-2.888-1.057
			c0.675-0.226,1.414-0.223,2.009-0.007c2.233,0.809,4.585,0.343,6.855,0.801c2.646,0.534,5.246-0.202,7.753-0.974
			c1.551-0.478,3.084-0.662,4.753-0.724C53.882,46.693,52.345,47.887,53.271,49.628z M62.628,39.91
			c1.569,0.063,3.126,0.644,4.684-0.046c-3.551,2.091-7.329,2.565-11.626,2.232C58.058,40.807,60.188,39.812,62.628,39.91z
			 M65.666,47.626c-0.41-0.104-0.5-0.318-0.571-0.551c-0.725-2.377-2.109-3.397-4.065-3.129c-1.233,0.169-1.454,1.073-1.712,2.005
			c-0.241,0.871-0.095,1.606,0.844,1.933c0.443,0.155,1.084,0.126,1.056,0.729c-0.037,0.788-0.773,0.634-1.298,0.679
			c-0.384,0.033-0.774,0.006-1.323,0.006c0.109-2.789-0.063-3.14-2.366-4.799c3.607-1.483,7.344-1.38,10.954-2.248
			c0.498,1.597-2.028,3.21,0.289,4.506C66.966,47.577,66.132,47.316,65.666,47.626z M69.977,44.254
			c-0.227,0.054-0.419-0.112-0.471-0.445c0.015-0.267,0.227-0.476,0.531-0.54c0.242-0.051,0.442,0.116,0.464,0.365
			C70.532,43.989,70.265,44.185,69.977,44.254z"/>
		<path d="M50.576,29.163c-0.867,0.083-1.388-0.541-1.927-1.131c-0.514-0.563-0.882-1.573-1.846-1.152
			c-1.114,0.487-2.487,0.435-3.246,1.753c-1.193,2.072-2.091,2.078-3.705,0.231c-1.309-1.496-3.05-1.802-4.871-0.841
			c-0.914,0.482-1.808,1.005-2.729,1.473c-0.312,0.158-0.656,0.026-0.777-0.303c-0.065-0.177,0-0.525,0.135-0.633
			c1.562-1.242,3.236-2.364,5.11-3.013c1.129-0.391,1.896,0.994,2.997,1.23c0.418,0.09,0.744,0.568,1.132,0.84
			c0.639,0.447,1.135,0.663,1.755-0.222c1.232-1.759,3.315-2.041,5.206-2.584c0.672-0.193,1.301,0.052,1.556,0.764
			c0.276,0.769,0.716,1.204,1.574,1.133c0.84-0.07,1.555,0.302,1.448,1.149C52.282,28.687,51.551,29.169,50.576,29.163z"/>
		<path d="M64.03,26.322c-1.042-0.34-1.902,0.362-2.818,0.803c-1.871,0.902-1.886,0.937-3.29-0.548
			c-0.934-0.988-2.054-0.664-3.134-0.524c-0.363,0.047-0.687,0.381-1.031,0.58c-0.365,0.211-0.776,0.354-1.053-0.061
			c-0.238-0.358-0.114-0.78,0.134-1.117c0.891-1.214,2.114-1.591,3.577-1.468c0.575,0.049,1.221,0.084,1.579,0.454
			c1.438,1.487,2.855,0.855,4.307,0.11c0.713-0.366,1.431-0.734,2.265-0.678c1.183,0.08,1.788,1.215,1.222,2.256
			C65.331,26.969,64.709,26.501,64.03,26.322z"/>
	</g>
</g>
</svg>
